<svg width="70" height="70" viewBox="0 0 70 70" fill="none" xmlns="http://www.w3.org/2000/svg">
<g opacity="0.6" clip-path="url(#clip0)">
<path opacity="0.8" d="M70 58.5156H58.5156V70H53.0469V58.5156H41.5625V53.0469H53.0469V41.5625H58.5156V53.0469H70V58.5156ZM40.9206 30.5481C41.1609 31.6296 41.2891 32.7532 41.2891 33.9062C41.2891 38.63 39.1571 42.8651 35.8059 45.7009C35.9015 45.7388 35.9982 45.7757 36.0938 45.8147V51.8575C33.166 50.2623 29.8122 49.3555 26.25 49.3555V49.3501C26.2046 49.3512 26.1587 49.3512 26.1133 49.3523V49.3555C14.7298 49.3555 5.46875 58.6166 5.46875 70H0C0 59.1485 6.65436 49.8228 16.096 45.8857C12.6166 43.0509 10.3906 38.7336 10.3906 33.9062C10.3906 25.3875 17.3211 18.457 25.8398 18.457C26.8524 18.457 27.842 18.5558 28.8007 18.7428C28.5635 17.6704 28.4375 16.5569 28.4375 15.4145C28.4375 6.91498 35.3525 0 43.852 0C52.3515 0 59.2665 6.91498 59.2665 15.4145C59.2665 20.1852 57.0876 24.4566 53.6733 27.2861C58.1866 29.0784 62.0767 32.0872 64.9259 35.957H57.5639C54.1668 32.946 49.7742 31.0352 44.9484 30.7895C44.5858 30.8151 44.2205 30.829 43.852 30.829C42.8496 30.829 41.8696 30.7318 40.9206 30.5481ZM33.9062 15.4145C33.9062 20.8987 38.3678 25.3603 43.852 25.3603C49.3357 25.3603 53.7978 20.8987 53.7978 15.4145C53.7978 9.93027 49.3357 5.46875 43.852 5.46875C38.3678 5.46875 33.9062 9.93027 33.9062 15.4145ZM35.8203 33.9062C35.8203 28.4028 31.3433 23.9258 25.8398 23.9258C20.3364 23.9258 15.8594 28.4028 15.8594 33.9062C15.8594 39.4097 20.3364 43.8867 25.8398 43.8867C31.3433 43.8867 35.8203 39.4097 35.8203 33.9062Z" fill="white"/>
</g>
<defs>
<clipPath id="clip0">
<rect width="70" height="70" fill="white"/>
</clipPath>
</defs>
</svg>
