<svg width="23" height="11" viewBox="0 0 23 11" fill="none" xmlns="http://www.w3.org/2000/svg">
<path d="M22.2285 5.31169C22.2285 4.97757 21.9699 4.70732 21.6502 4.70732H1.96499L5.4253 1.09091C5.65097 0.855055 5.65097 0.476707 5.4253 0.240854C5.19963 0.00500164 4.83761 0.00500164 4.61194 0.240854L0.16901 4.88421C-0.0566623 5.12006 -0.0566623 5.49841 0.16901 5.73426L4.61194 10.3776C4.72478 10.4955 4.87052 10.5545 5.02097 10.5545C5.17142 10.5545 5.31717 10.4955 5.43 10.3776C5.65568 10.1418 5.65568 9.76341 5.43 9.52756L1.96969 5.91115H21.6596C21.9699 5.91115 22.2285 5.64582 22.2285 5.31169Z" fill="#828282"/>
</svg>
