<svg width="24" height="24" viewBox="0 0 24 24" fill="none" xmlns="http://www.w3.org/2000/svg">
<path d="M12 0L1.60767 6V18L12 24L22.3923 18V6L12 0Z" fill="#FFED89"/>
<path d="M12 12V0L1.60767 6L12 12Z" fill="#FFE86A"/>
<path d="M1.60767 6V18L12 12L1.60767 6Z" fill="#EFCC10"/>
<path d="M22.3923 6L12 12L22.3923 18V6Z" fill="#FFE86A"/>
<path d="M12 12L1.60767 18L12 24V12Z" fill="#DAB800"/>
<path d="M12 24L22.3923 18L12 12V24Z" fill="#DAB800"/>
<path d="M17.865 15.3862V8.61386L11.9999 5.22766L6.13489 8.61386V15.3862L11.9999 18.7724L17.865 15.3862Z" fill="#FFFDF3"/>
<path d="M17.865 15.3862V8.61386L12 5.22766V18.7724L17.865 15.3862Z" fill="#FFF8D1"/>
</svg>
