<svg width="104" height="104" viewBox="0 0 104 104" fill="none" xmlns="http://www.w3.org/2000/svg">
<g clip-path="url(#clip0)">
<path opacity="0.5" d="M81.3334 13.1456C95.9951 26.3344 109.185 42.688 92.8312 63.7058C76.477 84.7236 51.3821 98.7113 35.801 86.5874C14.6938 70.1636 15.8575 42.0681 28.613 22.6902C41.3685 3.31223 66.6717 -0.0432481 81.3334 13.1456Z" fill="url(#paint0_linear)"/>
<path opacity="0.3" d="M89.2947 70.6462C80.2475 88.1694 67.7662 105.07 43.2927 94.5701C18.8192 84.0699 -1.06631 63.334 6.71783 45.191C17.2627 20.6134 44.7374 14.626 66.7135 22.0599C88.6895 29.4938 98.3418 53.1231 89.2947 70.6462Z" fill="url(#paint1_linear)"/>
<path fill-rule="evenodd" clip-rule="evenodd" d="M32.5818 95.8277L32.7786 96.4811L93.5546 78.2732L93.3578 77.6198C92.67 75.3154 92.9249 72.8323 94.0664 70.7156C95.2079 68.5989 97.1427 67.0218 99.446 66.3304L100.099 66.1336L92.128 39.5085L91.4746 39.7053C89.1722 40.3979 86.689 40.148 84.5707 39.0106C82.4524 37.8733 80.8723 35.9414 80.1776 33.6396L79.9865 32.9867L19.2072 51.1653L19.4035 51.8244C20.0915 54.1253 19.8402 56.605 18.7046 58.7211C17.5691 60.8372 15.6417 62.4175 13.344 63.1162L12.6848 63.3125L20.6351 89.9127L21.2942 89.7163C22.4366 89.375 23.6352 89.2623 24.8212 89.3848C26.0072 89.5073 27.1574 89.8626 28.2059 90.4303C29.2544 90.9979 30.1806 91.7669 30.9315 92.6931C31.6824 93.6192 32.2432 94.6844 32.5818 95.8277Z" fill="url(#paint2_linear)"/>
<path fill-rule="evenodd" clip-rule="evenodd" d="M35.3087 90.9569L88.3987 75.0592L88.4179 74.8927C88.4413 72.6796 89.0022 70.5053 90.0522 68.5571C91.1022 66.6088 92.6099 64.9449 94.4456 63.7085L94.5806 63.615L88.914 44.6697L88.747 44.6563C86.5339 44.6328 84.3597 44.072 82.4114 43.022C80.4631 41.972 78.7992 40.4643 77.5628 38.6286L77.4698 38.4878L24.374 54.3851L24.3606 54.5521C24.3378 56.7644 23.7772 58.938 22.7272 60.8854C21.6772 62.8329 20.1693 64.4957 18.3334 65.7305L18.1922 65.8293L23.8645 84.7751L24.0315 84.7885C26.2448 84.8109 28.4194 85.3713 30.3678 86.4214C32.3163 87.4715 33.98 88.9798 35.2157 90.8161L35.3087 90.9569Z" fill="url(#paint3_linear)"/>
<path d="M77.6968 45.8147L28.1923 60.6387L28.4541 61.5132L77.9587 46.6892L77.6968 45.8147Z" fill="white"/>
<path d="M84.3168 67.9273L34.8066 82.7529L35.0685 83.6274L84.5786 68.8018L84.3168 67.9273Z" fill="white"/>
<path d="M32.7974 75.8875L29.355 74.7243L27.1912 77.6343L27.233 74.0091L23.7964 72.8464L27.2564 71.7678L27.3044 68.1374L29.3968 71.0992L32.8631 70.0153L30.6988 72.931L32.7974 75.8875Z" fill="white"/>
<path d="M82.6207 60.9691L84.8556 58.1112L88.2628 59.3527L86.2379 56.3442L88.4729 53.4863L84.9843 54.4872L82.9537 51.4782L82.8308 55.1026L79.3422 56.1036L82.7493 57.3451L82.6207 60.9691Z" fill="white"/>
<path d="M38.6516 74.5151L36.1844 66.6195L38.9303 65.7734C39.441 65.5859 39.9803 65.488 40.5243 65.484C41.0146 65.5124 41.483 65.6962 41.8617 66.0087C42.26 66.3583 42.5476 66.8165 42.6891 67.3271C42.8269 67.7681 42.857 68.2356 42.7767 68.6905C42.7048 69.1298 42.4958 69.535 42.1795 69.8482C42.3347 69.9676 42.4831 70.0957 42.624 70.2317L45.0142 72.5161L42.8623 73.1838L40.6624 70.9842L39.7588 71.2653L40.583 73.9224L38.6516 74.5151ZM39.2432 69.6009L40.0812 69.3436C40.358 69.2752 40.5968 69.1008 40.7462 68.8579C40.8114 68.7371 40.8508 68.6041 40.8618 68.4672C40.8728 68.3304 40.8551 68.1928 40.81 68.0631C40.7808 67.885 40.6948 67.7211 40.5649 67.5958C40.435 67.4705 40.2681 67.3905 40.0891 67.3677C39.83 67.3549 39.5709 67.3932 39.3265 67.4803L38.6727 67.6829L39.2432 69.6009Z" fill="white"/>
<path d="M45.1083 72.501L45.3411 63.8252L47.3741 63.1943L52.4993 70.2542L50.5138 70.8715L49.516 69.3655L47.0549 70.1301L47.0901 71.9298L45.1083 72.501ZM47.0536 68.4142L48.611 67.9307L47.6913 66.5352L46.9519 65.276C47.0151 65.8608 47.0497 66.3678 47.0552 66.7334L47.0536 68.4142Z" fill="white"/>
<path d="M53.3516 69.9624L50.9075 62.0685L55.7435 60.6019L56.245 62.2246L53.342 63.1508L53.8527 64.8032L56.2314 64.0552L56.7416 65.7133L54.363 66.4614L55.2874 69.3874L53.3516 69.9624Z" fill="white"/>
<path d="M59.3373 68.1073L56.8927 60.2193L61.7257 58.7177L62.236 60.3758L59.333 61.3021L59.8433 62.9602L62.2219 62.2122L62.7384 63.865L60.3598 64.6131L61.2842 67.5391L59.3373 68.1073Z" fill="white"/>
<path d="M65.317 66.2568L62.8729 58.363L64.8047 57.7645L66.7386 64.0002L69.96 63.0068L70.4707 64.6592L65.317 66.2568Z" fill="white"/>
<path d="M71.4696 64.351L69.0201 56.451L73.9658 54.9179L74.4823 56.5707L71.4699 57.4882L71.9344 58.9224L74.3413 58.1824L74.8578 59.8353L72.4504 60.581L72.9103 62.0728L76.0784 61.0925L76.5892 62.7449L71.4696 64.351Z" fill="white"/>
<path d="M89.7052 63.4034L95.0929 37.5343C93.8391 37.2739 92.649 36.769 91.5905 36.0483C90.5321 35.3275 89.6261 34.4052 88.9245 33.334C88.2228 32.2629 87.7393 31.0639 87.5014 29.8056C87.2636 28.5474 87.2762 27.2546 87.5384 26.0013L26.7754 13.3136C26.5163 14.5694 26.012 15.7618 25.2916 16.8225C24.5711 17.8833 23.6485 18.7915 22.5766 19.4953C21.5047 20.1991 20.3046 20.6846 19.0448 20.924C17.7851 21.1635 16.4905 21.1522 15.2352 20.8907L9.84212 46.7537C12.3708 47.2877 14.5845 48.8029 15.9974 50.967C17.4102 53.1311 17.907 55.7673 17.3785 58.2971L78.1377 70.9557C78.4001 69.6996 78.9077 68.5077 79.6314 67.448C80.3551 66.3884 81.2807 65.4819 82.3551 64.7804C83.4296 64.0789 84.6318 63.5962 85.893 63.3599C87.1543 63.1237 88.4497 63.1384 89.7052 63.4034Z" fill="url(#paint4_linear)"/>
<path d="M21.6447 54.9818C21.4258 52.7446 20.6693 50.5935 19.4395 48.7118C18.2097 46.8301 16.5432 45.2737 14.5819 44.1753L18.5452 25.1447C20.7836 24.9248 22.9356 24.1665 24.8175 22.9347C26.6994 21.7028 28.2554 20.0339 29.3525 18.0704L83.2784 29.3107C83.4977 31.5478 84.2545 33.6988 85.4842 35.5804C86.714 37.462 88.3802 39.0185 90.3412 40.1173L86.3721 59.1475C84.1343 59.3705 81.984 60.1329 80.1054 61.3692C78.2269 62.6056 76.6763 64.2791 75.5864 66.2463L21.6447 54.9818Z" fill="url(#paint5_linear)"/>
<path d="M75.7045 66.4803L21.4298 55.1712L21.4118 55.0022C21.2033 52.7995 20.4627 50.6806 19.2536 48.8277C18.0446 46.9748 16.4034 45.4435 14.4712 44.3656L14.32 44.2864L18.3679 24.9313L18.5351 24.942C20.7377 24.7245 22.8545 23.9755 24.7037 22.7592C26.5529 21.543 28.0791 19.896 29.1512 17.9596L29.2473 17.8153L83.5219 29.1243L83.5112 29.2916C83.7246 31.4937 84.4693 33.611 85.6814 35.4619C86.8934 37.3128 88.5366 38.8418 90.4698 39.9177L90.621 39.9969L86.5843 59.3585L86.4152 59.3766C84.2126 59.5881 82.0944 60.332 80.2432 61.5443C78.3921 62.7565 76.8634 64.4007 75.7891 66.3352L75.7045 66.4803ZM21.8652 54.794L75.4711 65.9673C76.5765 64.0306 78.1252 62.3834 79.9903 61.1609C81.8553 59.9384 83.9836 59.1753 86.2005 58.9344L90.0965 40.2295C88.1603 39.1242 86.5138 37.5755 85.2922 35.7104C84.0706 33.8453 83.3088 31.7171 83.0693 29.5005L29.4691 18.3275C28.3634 20.264 26.8146 21.9109 24.9496 23.1334C23.0846 24.3558 20.9565 25.1191 18.7397 25.3605L14.821 44.0581C16.7607 45.1628 18.4106 46.7119 19.6352 48.5783C20.8597 50.4446 21.624 52.5748 21.8652 54.794Z" fill="white"/>
<path d="M29.6181 25.1307L29.4319 26.0244L80.027 36.5687L80.2133 35.675L29.6181 25.1307Z" fill="white"/>
<path d="M24.9024 47.7176L24.7162 48.6113L75.3113 59.1557L75.4976 58.262L24.9024 47.7176Z" fill="white"/>
<path d="M26.0978 41.2051L23.6285 38.5508L20.334 40.0815L22.1016 36.9067L19.6323 34.2524L23.1944 34.9506L24.9558 31.7812L25.3899 35.3814L28.952 36.0796L25.6636 37.6049L26.0978 41.2051Z" fill="white"/>
<path d="M77.0183 51.8237L80.3421 50.3759L82.7497 53.0899L82.3974 49.4776L85.7212 48.0299L82.182 47.2463L81.8294 43.6398L79.9898 46.7636L76.4506 45.98L78.8578 48.6998L77.0183 51.8237Z" fill="white"/>
<path d="M32.8251 42.2L34.3676 34.0663L37.1933 34.6013C37.7317 34.6778 38.2533 34.8445 38.7363 35.0943C39.1504 35.3554 39.4687 35.7435 39.6436 36.2006C39.8366 36.6952 39.8764 37.2364 39.7579 37.7539C39.6849 38.2107 39.5 38.6424 39.2196 39.0103C38.9506 39.3658 38.5747 39.6257 38.1471 39.7519C38.2278 39.9302 38.2991 40.1126 38.3609 40.2983L39.3978 43.4394L37.1842 43.019L36.2606 40.0068L35.3563 39.8444L34.8387 42.5786L32.8251 42.2ZM35.6514 38.138L36.515 38.3036C36.7905 38.3715 37.0816 38.33 37.3272 38.188C37.4398 38.1076 37.5344 38.0045 37.6048 37.8854C37.6753 37.7663 37.7201 37.6338 37.7365 37.4964C37.7942 37.3256 37.7954 37.1406 37.7396 36.9691C37.6839 36.7976 37.5743 36.6486 37.4272 36.5443C37.2027 36.4123 36.9546 36.3255 36.6967 36.2889L36.0273 36.1648L35.6514 38.138Z" fill="white"/>
<path d="M39.4657 43.4618L43.7639 35.8701L45.8517 36.265L47.073 44.9067L45.0252 44.5201L44.8516 42.7199L42.3177 42.2384L41.5078 43.8479L39.4657 43.4618ZM43.1148 40.7381L44.7163 41.0438L44.5356 39.3531L44.473 37.8959C44.2399 38.4598 44.0376 38.9042 43.8777 39.2297L43.1148 40.7381Z" fill="white"/>
<path d="M47.9423 45.0724L49.4837 36.9559L54.4603 37.8957L54.1356 39.6117L51.1499 39.0433L50.8253 40.7593L53.3019 41.2313L52.9772 42.9473L50.5006 42.4753L49.9307 45.484L47.9423 45.0724Z" fill="white"/>
<path d="M54.0971 46.2384L55.6384 38.1219L60.6089 39.0671L60.29 40.7835L57.3339 40.2054L57.0093 41.9214L59.4804 42.3873L59.1558 44.1033L56.6576 43.6067L56.0877 46.6154L54.0971 46.2384Z" fill="white"/>
<path d="M60.2518 47.4037L61.792 39.3046L63.7764 39.687L62.5601 46.0817L65.8776 46.712L65.5529 48.4281L60.2518 47.4037Z" fill="white"/>
<path d="M66.572 48.6094L68.1137 40.4872L73.2041 41.4574L72.8794 43.1735L69.7792 42.586L69.499 44.0618L71.9755 44.5338L71.6509 46.2498L69.1743 45.7778L68.8861 47.2877L72.1409 47.9025L71.8162 49.6185L66.572 48.6094Z" fill="white"/>
</g>
<defs>
<linearGradient id="paint0_linear" x1="0.252684" y1="58.9268" x2="91.2928" y2="85.2308" gradientUnits="userSpaceOnUse">
<stop stop-color="white" stop-opacity="0.35"/>
<stop offset="0.995036" stop-color="#FEB052"/>
</linearGradient>
<linearGradient id="paint1_linear" x1="24.4773" y1="3.79785" x2="22.0225" y2="98.4551" gradientUnits="userSpaceOnUse">
<stop stop-color="white" stop-opacity="0.35"/>
<stop offset="0.995036" stop-color="#FEB052"/>
</linearGradient>
<linearGradient id="paint2_linear" x1="59.0747" y1="31.3079" x2="53.7077" y2="98.1612" gradientUnits="userSpaceOnUse">
<stop stop-color="#FFC531"/>
<stop offset="1" stop-color="#F99669"/>
</linearGradient>
<linearGradient id="paint3_linear" x1="20.7527" y1="33.9346" x2="15.1779" y2="87.5146" gradientUnits="userSpaceOnUse">
<stop stop-color="#985ADD"/>
<stop offset="1" stop-color="#F36580"/>
</linearGradient>
<linearGradient id="paint4_linear" x1="54.2093" y1="15.0791" x2="50.7268" y2="69.1916" gradientUnits="userSpaceOnUse">
<stop stop-color="#FFC85A"/>
<stop offset="1" stop-color="#FFBF41"/>
</linearGradient>
<linearGradient id="paint5_linear" x1="16.3159" y1="17.2314" x2="12.7606" y2="60.9107" gradientUnits="userSpaceOnUse">
<stop stop-color="#FEB65A"/>
<stop offset="1" stop-color="#F36580"/>
</linearGradient>
<clipPath id="clip0">
<rect width="104" height="104" fill="white"/>
</clipPath>
</defs>
</svg>
