<svg width="151" height="117" viewBox="0 0 151 117" fill="none" xmlns="http://www.w3.org/2000/svg">
<path d="M88.134 20.9586L82.6365 11.6961L93.4067 11.5664L88.134 20.9586Z" fill="#FFE86A"/>
<path d="M74.4273 75.0299L70.0833 67.7109L78.5938 67.6084L74.4273 75.0299Z" fill="#FFE86A"/>
<path d="M133.427 11.0299L129.083 3.71089L137.594 3.6084L133.427 11.0299Z" fill="#FFE86A"/>
<path d="M55.6813 109.334L69.116 100.353L70.1763 116.479L55.6813 109.334Z" fill="#FFE86A"/>
<path d="M135 69.5528L144.322 59.5L144.322 74.1475L135 69.5528Z" fill="#FFE86A"/>
<path opacity="0.7" d="M97.7394 31.5614L96.6098 26.4913L91.6541 24.9344L87.828 28.4477L88.9575 33.5179L93.9132 35.0748L97.7394 31.5614Z" fill="#FFF4BB"/>
<path opacity="0.8" d="M48.4762 7.60541L47 4.49166L42 4.49166L38.5648 4.4917L39.6944 9.56187L44.6501 11.1188L48.4762 7.60541Z" fill="#FFF4BB"/>
<path d="M62.106 84.1926L60.7263 77.9998L54.6733 76.0981L49.9999 80.3894L51.3796 86.5823L57.4326 88.4839L62.106 84.1926Z" fill="#FFF4BB"/>
<path d="M125.295 112.181L129.35 108.942L128.573 103.81L123.74 101.917L119.684 105.157L120.461 110.289L125.295 112.181Z" fill="#FFF4BB"/>
<rect x="102" y="21.9971" width="10" height="10" transform="rotate(-29.9816 102 21.9971)" fill="#FFED89"/>
<path d="M14.7742 67.214L11.5465 91.2103L30.6806 105.923L53.0425 96.6391L56.2702 72.6428L37.136 57.9302L14.7742 67.214Z" fill="#FFED89"/>
<path d="M33.9083 81.9266L14.7742 67.214L11.5464 91.2103L33.9083 81.9266Z" fill="#FFE86A"/>
<path d="M11.5464 91.2104L30.6806 105.923L33.9082 81.9267L11.5464 91.2104Z" fill="#EFCC10"/>
<path d="M37.136 57.9303L33.9083 81.9266L56.2701 72.6428L37.136 57.9303Z" fill="#FFE86A"/>
<path d="M33.9083 81.9266L30.6806 105.923L53.0425 96.6392L33.9083 81.9266Z" fill="#DAB800"/>
<path d="M53.0424 96.6391L56.2701 72.6428L33.9082 81.9265L53.0424 96.6391Z" fill="#EFCC10"/>
<path d="M46.5284 76.6872L35.7298 68.384L23.1096 73.6234L21.288 87.1661L32.0866 95.4692L44.7068 90.2299L46.5284 76.6872Z" fill="#FFF4BB"/>
<g clip-path="url(#clip0)">
<path d="M105.919 60.4684L92.2484 73.0216L96.2844 91.1375L113.991 96.7002L127.662 84.147L123.626 66.0311L105.919 60.4684Z" fill="#FFED89"/>
<path d="M109.955 78.5843L105.919 60.4684L92.2484 73.0216L109.955 78.5843Z" fill="#FFE86A"/>
<path d="M92.2484 73.0217L96.2843 91.1376L109.955 78.5845L92.2484 73.0217Z" fill="#EFCC10"/>
<path d="M123.626 66.0311L109.955 78.5843L127.662 84.147L123.626 66.0311Z" fill="#FFE86A"/>
<path d="M109.955 78.5844L96.2843 91.1375L113.991 96.7003L109.955 78.5844Z" fill="#DAB800"/>
<path d="M113.991 96.7004L127.662 84.1472L109.955 78.5845L113.991 96.7004Z" fill="#EFCC10"/>
<path d="M119.948 81.7238L117.671 71.4999L107.677 68.3604L99.9621 75.445L102.24 85.6689L112.233 88.8083L119.948 81.7238Z" fill="#FFF4BB"/>
</g>
<g clip-path="url(#clip1)">
<path d="M66.7768 20.0695L56.3803 29.616L59.4496 43.3928L72.9153 47.6231L83.3118 38.0767L80.2426 24.2998L66.7768 20.0695Z" fill="#FFED89"/>
<path d="M69.8461 33.8463L66.7768 20.0695L56.3803 29.616L69.8461 33.8463Z" fill="#FFE86A"/>
<path d="M56.3804 29.616L59.4496 43.3928L69.8461 33.8463L56.3804 29.616Z" fill="#EFCC10"/>
<path d="M80.2425 24.2997L69.846 33.8462L83.3118 38.0765L80.2425 24.2997Z" fill="#FFE86A"/>
<path d="M69.846 33.8463L59.4495 43.3928L72.9153 47.6232L69.846 33.8463Z" fill="#DAB800"/>
<path d="M72.9153 47.6233L83.3118 38.0768L69.8461 33.8464L72.9153 47.6233Z" fill="#EFCC10"/>
<path d="M77.4456 36.2338L75.7134 28.4587L68.1138 26.0712L62.2465 31.4589L63.9786 39.234L71.5782 41.6215L77.4456 36.2338Z" fill="#FFF4BB"/>
</g>
<defs>
<clipPath id="clip0">
<rect width="37.1201" height="37.1201" fill="white" transform="translate(87.8035 64.5044) rotate(-12.5594)"/>
</clipPath>
<clipPath id="clip1">
<rect width="28.2292" height="28.2292" fill="white" transform="translate(53 23.1387) rotate(-12.5594)"/>
</clipPath>
</defs>
</svg>
