<svg width="98" height="98" viewBox="0 0 98 98" fill="none" xmlns="http://www.w3.org/2000/svg">
<path d="M17.8276 20.6072C17.825 18.2911 19.5128 15.848 22.8174 13.9401C28.8544 10.4548 37.9864 10.0762 43.2144 13.0947C45.5576 14.4475 46.7151 16.2532 46.7397 18.1478H46.7407V21.0229V21.1511V24.0262L46.7371 24.0264C46.7376 24.0456 46.7357 24.0649 46.7359 24.0841L46.7407 24.0837V26.8667V27.087V29.8701L46.7371 29.8703C46.7376 29.8894 46.7357 29.9087 46.7359 29.9279L46.7407 29.9275V32.9308L46.7371 32.9312C46.7384 32.9772 46.7346 33.0237 46.7344 33.0698L46.7407 33.0692V36.0726L46.7371 36.0728C46.8023 38.4257 45.1143 40.9228 41.75 42.865C35.713 46.3503 26.581 46.7289 21.353 43.7105C18.9286 42.3107 17.7855 40.4252 17.8416 38.4589L17.8437 35.5271C17.8426 35.4572 17.8397 35.3874 17.8416 35.3173L17.843 32.3855C17.843 32.3425 17.8405 32.2996 17.8416 32.2565L17.8407 29.3249L17.8428 26.5417C17.8428 26.4986 17.8403 26.4558 17.8414 26.4125L17.8236 23.5389H17.8232V20.6073L17.8276 20.6072Z" fill="#DCA700"/>
<path d="M21.353 31.6641C26.5811 34.6826 35.7131 34.304 41.75 30.8187C45.087 28.8922 46.7724 26.42 46.736 24.0839L46.7408 24.0835V27.0869L46.7371 27.087C46.8024 29.44 45.1144 31.9371 41.75 33.8793C35.7131 37.3646 26.5811 37.7432 21.353 34.7247C18.9287 33.325 17.7856 31.4394 17.8417 29.4731L17.843 26.5421C17.84 28.4615 18.9821 30.2952 21.353 31.6641Z" fill="#CC8200"/>
<path d="M21.353 37.5081C26.5811 40.5265 35.7131 40.1479 41.75 36.6626C45.087 34.7361 46.7724 32.2639 46.736 29.928L46.7408 29.9276V32.931L46.7371 32.9314C46.8024 35.2843 45.1144 37.7814 41.75 39.7238C35.7131 43.2091 26.5811 43.5877 21.353 40.5692C18.9287 39.1695 17.7856 37.2839 17.8417 35.3178L17.843 32.3868C17.84 34.3056 18.9821 36.1393 21.353 37.5081Z" fill="#CC8200"/>
<path d="M22.8176 13.9401C16.7806 17.4254 16.125 22.6979 21.3531 25.7164C26.5812 28.7348 35.7134 28.3562 41.7501 24.8709C47.7869 21.3856 48.4427 16.1131 43.2146 13.0947C37.9865 10.0762 28.8545 10.4548 22.8176 13.9401Z" fill="#DCA700"/>
<path d="M46.7399 18.1478C46.7704 20.4805 45.0814 22.9477 41.7502 24.871C35.7132 28.3563 26.5812 28.7349 21.3531 25.7164C18.987 24.3502 17.8301 22.522 17.8278 20.6072L17.8236 20.6076V23.5392C17.8236 23.5392 17.9134 26.7558 21.3531 28.7891C26.5498 31.8613 35.7132 31.4289 41.7502 27.9436C45.1143 26.0012 46.8023 23.5041 46.7371 21.1512L46.7409 21.151V18.1478H46.7399Z" fill="#CC8200"/>
<path d="M24.4988 14.9109C19.5341 17.7772 18.9949 22.1133 23.2945 24.5957C27.5941 27.078 35.1043 26.7666 40.069 23.9003C45.0336 21.034 45.5728 16.6981 41.2733 14.2155C36.9737 11.7332 29.4635 12.0444 24.4988 14.9109Z" fill="#FFD800"/>
<path d="M98 36.6721V49.3106L32.6667 86.943L0 68.1056V55.5321L65.3333 17.8119L98 36.6721Z" fill="#E5AC91"/>
<path d="M98 36.672V49.3106L32.6667 86.9429V74.4144L98 36.672Z" fill="#FFE6C6"/>
<path d="M32.6643 76.9251L97.9989 39.1907V41.7094L32.6643 79.4556L0.0450439 60.6228V58.1041L32.6643 76.9251Z" fill="#FFD6A0"/>
<path d="M32.6776 81.9418L98 44.2279V46.7466L32.6776 84.472L0 65.6308V63.1147L32.6776 81.9418Z" fill="#FFD6A0"/>
<path d="M97.9999 39.1907V41.7094L32.6653 79.4556V76.9251L97.9999 39.1907Z" fill="white"/>
<path d="M97.9999 44.2279V46.7466L32.6775 84.472V81.9418L97.9999 44.2279Z" fill="white"/>
<path d="M11.9658 62.4488L0 55.5321L65.3333 17.8119L98 36.6721L32.6667 74.4146L11.9658 62.4488Z" fill="white"/>
<path d="M6.24951 55.5408L32.7017 70.7833L91.7784 36.6722L65.3368 21.4188L6.24951 55.5408Z" fill="#FFE6C6"/>
<path d="M85.612 36.6721L65.3585 24.9788L12.5365 55.5408L32.736 67.1777L85.612 36.6721Z" fill="white"/>
<path d="M43.5557 30.3855L76.2223 49.253V61.855L54.4898 74.3662V61.8077L21.7963 42.9483L43.5557 30.3855Z" fill="#E5AC91"/>
<path d="M43.5557 30.3855L76.2223 49.253L54.4898 61.8077L21.7963 42.9483L43.5557 30.3855Z" fill="#FFD6A0"/>
<path d="M54.4897 61.8074V74.3659L76.2222 61.8547V49.2527L54.4897 61.8074Z" fill="#E5AC91"/>
<path d="M24.7155 41.2627L40.6634 32.0551L73.3198 50.921L57.3981 60.1231L24.7155 41.2627Z" fill="#FFE6C6"/>
<path d="M73.3199 50.9209V63.5265L57.397 72.6981L57.3981 60.1229L73.3199 50.9209Z" fill="#FFCBA1"/>
<path d="M62.8614 26.7565C64.7309 27.8358 67.5588 27.953 69.1779 27.0183C70.7968 26.0837 70.5939 24.4508 68.7244 23.3715C66.855 22.2921 64.0271 22.175 62.408 23.1096C60.7889 24.0445 60.992 25.6772 62.8614 26.7565Z" fill="#FFE6C6"/>
<path d="M64.7054 36.1763C65.7882 36.8015 67.426 36.8694 68.3637 36.3279C69.3014 35.7866 69.1839 34.8409 68.1011 34.2158C67.0183 33.5906 65.3805 33.5227 64.4428 34.0642C63.5051 34.6055 63.6226 35.551 64.7054 36.1763Z" fill="#FFE6C6"/>
<path d="M28.4447 57.0679C29.5275 57.6931 31.1654 57.761 32.1031 57.2195C33.0408 56.6782 32.9232 55.7325 31.8404 55.1074C30.7577 54.4822 29.1198 54.4143 28.1821 54.9558C27.2442 55.4971 27.3619 56.4428 28.4447 57.0679Z" fill="#FFE6C6"/>
<path d="M9.82641 57.4185C11.6959 58.4979 14.5237 58.615 16.1428 57.6804C17.7617 56.7457 17.5587 55.1129 15.6894 54.0337C13.8199 52.9544 10.9921 52.8372 9.37297 53.7719C7.75386 54.7065 7.95694 56.3392 9.82641 57.4185Z" fill="#FFE6C6"/>
<path d="M82.4861 38.111C84.3555 39.1904 87.1834 39.3075 88.8025 38.3729C90.4214 37.4382 90.2185 35.8054 88.349 34.7262C86.4796 33.6469 83.6517 33.5297 82.0326 34.4644C80.4135 35.399 80.6166 37.0317 82.4861 38.111Z" fill="#FFE6C6"/>
<path d="M29.3523 68.7822C31.2218 69.8615 34.0498 69.9787 35.6687 69.044C37.2877 68.1094 37.0848 66.4767 35.2153 65.3974C33.3458 64.318 30.518 64.2009 28.8989 65.1355C27.28 66.0702 27.4829 67.7028 29.3523 68.7822Z" fill="#FFE6C6"/>
<path d="M66.4034 51.2715L39.9464 36.0081L37.1198 37.6392L63.5767 52.9352L66.4034 51.2715Z" fill="#E6C190"/>
<path d="M57.5681 52.7815L37.3621 41.1118L34.5516 42.7434L54.7576 54.3929L57.5681 52.7815Z" fill="#E6C190"/>
</svg>
