<svg width="23" height="12" viewBox="0 0 23 12" fill="none" xmlns="http://www.w3.org/2000/svg">
<path d="M-6.19881e-05 5.66407C-6.20489e-05 6.02505 0.258525 6.31701 0.578231 6.31701L20.2636 6.31702L16.8033 10.224C16.5776 10.4788 16.5776 10.8876 16.8033 11.1424C17.029 11.3972 17.391 11.3972 17.6167 11.1424L22.0596 6.12591C22.2853 5.87111 22.2853 5.46236 22.0596 5.20755L17.6167 0.191073C17.5038 0.0636703 17.3581 -3.14022e-05 17.2076 -3.14295e-05C17.0572 -3.14568e-05 16.9114 0.0636701 16.7986 0.191072C16.5729 0.445878 16.5729 0.854629 16.7986 1.10943L20.2589 5.01645L0.568826 5.01644C0.258523 5.01644 -6.19274e-05 5.3031 -6.19881e-05 5.66407Z" fill="url(#paint0_linear)"/>
<defs>
<linearGradient id="paint0_linear" x1="22.2289" y1="11.3335" x2="22.3378" y2="0.218964" gradientUnits="userSpaceOnUse">
<stop stop-color="#FEB65A"/>
<stop offset="1" stop-color="#F36580"/>
</linearGradient>
</defs>
</svg>
