<svg width="84" height="56" viewBox="0 0 84 56" fill="none" xmlns="http://www.w3.org/2000/svg">
<path d="M83.955 38.5693C83.7458 33.7565 82.9088 28.4206 81.6533 23.3986C80.3978 18.5858 78.8284 14.0869 76.9451 10.6343C69.6213 -2.23469 61.6698 -0.246807 52.1488 2.26421C49.1147 2.99659 45.8713 3.83359 42.5233 4.14747H41.477C38.129 3.83359 34.8856 2.99659 31.8515 2.26421C22.3305 -0.142181 14.379 -2.23469 7.05519 10.7389C5.17193 14.1915 3.49792 18.6904 2.34704 23.5032C1.09153 28.5252 0.254523 33.8611 0.0452714 38.6739C-0.16398 44.0098 0.359148 47.881 1.51003 50.6013C2.66091 53.1123 4.33492 54.6816 6.53206 55.3094C8.51995 55.8325 10.8217 55.6233 13.2281 54.577C17.3085 52.903 22.0167 49.3457 26.6202 45.0561C29.8636 41.9173 35.9319 40.3479 42.0002 40.3479C48.0684 40.3479 54.1367 41.9173 57.3801 45.0561C61.9837 49.3457 66.6918 52.903 70.7722 54.577C73.1786 55.5187 75.4804 55.8325 77.4683 55.3094C79.5608 54.6816 81.3394 53.2169 82.4903 50.4966C83.6412 47.881 84.1643 44.0098 83.955 38.5693ZM78.933 49.0319C78.3053 50.4966 77.4683 51.3336 76.422 51.6475C75.2711 51.9614 73.8064 51.7521 72.1323 51.1244C68.4705 49.6596 64.1808 46.4162 59.9958 42.4405C56.02 38.4647 49.0101 36.4768 42.0002 36.4768C34.9902 36.4768 27.9803 38.4647 23.8999 42.2312C19.6103 46.207 15.3206 49.555 11.7633 50.9151C10.0893 51.5429 8.62457 51.8568 7.47369 51.4383C6.42744 51.1244 5.59043 50.2874 4.96268 48.8226C4.12567 46.8347 3.70717 43.5913 3.91642 38.7786C4.12567 34.2797 4.85805 29.153 6.11356 24.3402C7.26444 19.8413 8.7292 15.6563 10.5078 12.5175C16.2622 2.15958 22.9583 3.83359 30.9098 5.92611C34.1532 6.76311 37.5013 7.60012 41.1632 7.91399C41.2678 7.91399 41.2678 7.91399 41.3724 7.91399H42.5233C42.6279 7.91399 42.6279 7.91399 42.7325 7.91399C46.4991 7.60012 49.8471 6.76311 53.0905 5.92611C61.042 3.93822 67.7381 2.15958 73.4925 12.5175C75.2711 15.6563 76.7359 19.7367 77.8868 24.3402C79.0376 29.153 79.8746 34.175 80.0839 38.7786C80.2931 43.5913 79.8746 46.8347 78.933 49.0319Z" fill="white"/>
</svg>
