<svg width="325" height="308" viewBox="0 0 325 308" fill="none" xmlns="http://www.w3.org/2000/svg">
<path d="M70.405 41.6205C73.4469 41.6205 75.9128 39.1534 75.9128 36.11C75.9128 33.0667 73.4469 30.5996 70.405 30.5996C67.3631 30.5996 64.8972 33.0667 64.8972 36.11C64.8972 39.1534 67.3631 41.6205 70.405 41.6205Z" fill="#FBB040"/>
<path d="M232.376 37.5238C235.418 37.5238 237.884 35.0567 237.884 32.0134C237.884 28.97 235.418 26.5029 232.376 26.5029C229.334 26.5029 226.868 28.97 226.868 32.0134C226.868 35.0567 229.334 37.5238 232.376 37.5238Z" fill="#FBB040"/>
<path d="M93.9986 174C95.6546 174 96.9972 172.657 96.9972 171C96.9972 169.343 95.6546 168 93.9986 168C92.3425 168 91 169.343 91 171C91 172.657 92.3425 174 93.9986 174Z" fill="#FBF173"/>
<g opacity="0.33">
<path opacity="0.33" d="M16.6815 145.913C16.7412 143.927 17.4305 142.011 18.6499 140.443C19.8692 138.874 21.5555 137.734 23.4649 137.188L24.5625 140.995C23.4534 141.308 22.4723 141.965 21.7612 142.872C21.0502 143.779 20.646 144.89 20.6072 146.042C20.5718 146.947 20.7693 147.846 21.1807 148.654L17.6407 150.434C16.9458 149.032 16.6159 147.477 16.6815 145.913Z" fill="#F69281"/>
</g>
<g opacity="0.33">
<path opacity="0.33" d="M252.469 13.0986C251.955 11.1826 252.061 9.15303 252.772 7.30105C253.482 5.44907 254.761 3.86988 256.424 2.79004L258.57 6.12399C257.609 6.74378 256.869 7.65168 256.455 8.71783C256.041 9.78397 255.975 10.9537 256.266 12.0598C256.487 12.9406 256.934 13.7486 257.561 14.4045L254.674 17.1251C253.618 15.9857 252.86 14.6023 252.469 13.0986Z" fill="#F69281"/>
</g>
<g opacity="0.33">
<path opacity="0.33" d="M186.445 32.2401C186.86 31.3372 187.551 30.5893 188.418 30.1041C189.285 29.6188 190.284 29.421 191.27 29.5393L191.033 31.5179C190.638 31.4726 190.237 31.5142 189.86 31.6399C189.482 31.7656 189.137 31.9724 188.848 32.2457C188.559 32.519 188.333 32.8523 188.186 33.2222C188.039 33.592 187.974 33.9896 187.997 34.3869L186.019 34.5254C185.968 33.7401 186.115 32.9545 186.445 32.2401Z" fill="#F69281"/>
</g>
<g opacity="0.33">
<path opacity="0.33" d="M301.07 126.413C301.667 127.206 301.996 128.168 302.01 129.161C302.024 130.153 301.723 131.124 301.149 131.934L299.528 130.796C299.864 130.331 300.046 129.772 300.046 129.198C300.046 128.624 299.864 128.065 299.528 127.6C299.261 127.234 298.903 126.944 298.489 126.76L299.31 124.959C300.011 125.285 300.618 125.786 301.07 126.413Z" fill="#F69281"/>
</g>
<g opacity="0.33">
<path opacity="0.33" d="M286.267 37.0108C286.862 37.8065 287.19 38.7698 287.204 39.7631C287.218 40.7564 286.918 41.7287 286.347 42.5411L284.725 41.3935C284.954 41.0672 285.109 40.6944 285.178 40.3016C285.248 39.9088 285.23 39.5055 285.126 39.1204C285.022 38.7353 284.835 38.3777 284.578 38.0729C284.321 37.7682 283.999 37.5238 283.637 37.3571L284.468 35.5566C285.176 35.8888 285.794 36.3878 286.267 37.0108Z" fill="#F69281"/>
</g>
<g opacity="0.46">
<path opacity="0.46" d="M261.794 253.993C262.685 255.187 263.177 256.633 263.198 258.124C263.219 259.614 262.769 261.074 261.912 262.293L259.48 260.572C259.823 260.082 260.054 259.523 260.158 258.934C260.261 258.345 260.234 257.74 260.079 257.163C259.923 256.585 259.643 256.049 259.257 255.592C258.872 255.135 258.391 254.768 257.848 254.517L259.094 251.816C260.161 252.306 261.089 253.054 261.794 253.993Z" fill="#F69281"/>
</g>
<path d="M66.6474 269.991C65.6587 269.898 64.7249 269.493 63.9805 268.835C63.2361 268.178 62.7193 267.301 62.5042 266.331L64.4817 265.896C64.6035 266.457 64.9014 266.965 65.3317 267.346C65.7621 267.727 66.3027 267.96 66.8748 268.013C67.3229 268.062 67.7761 267.994 68.19 267.815L68.9711 269.635C68.2388 269.947 67.4396 270.07 66.6474 269.991Z" fill="#F69281"/>
<path d="M108.757 105.13C107.945 103.741 107.591 102.131 107.748 100.535C107.904 98.9401 108.562 97.4409 109.626 96.2559L112.015 98.4113C111.397 99.094 111.013 99.96 110.921 100.882C110.829 101.805 111.033 102.736 111.502 103.539C111.864 104.176 112.382 104.709 113.005 105.089L111.326 107.77C110.266 107.118 109.382 106.21 108.757 105.13Z" fill="#F69281"/>
<path d="M54.1857 14.5962C52.6037 13.8165 51.3275 12.5272 50.5438 10.9173C49.7602 9.30732 49.5105 7.46124 49.8311 5.64941L53.3143 6.1153C53.1393 7.16149 53.2914 8.22419 53.7485 9.14974C54.2055 10.0753 54.944 10.8157 55.8569 11.2639C56.5703 11.6233 57.3691 11.7853 58.177 11.7343L58.1825 15.3264C56.7981 15.4316 55.4241 15.1805 54.1857 14.5962Z" fill="#F69281"/>
<path d="M100.215 146.003C101.207 145.969 102.184 146.254 103.004 146.814C103.824 147.375 104.444 148.182 104.773 149.119L102.905 149.782C102.714 149.241 102.356 148.775 101.883 148.452C101.411 148.128 100.847 147.963 100.274 147.981C99.8211 147.988 99.3778 148.114 98.9888 148.347L98 146.626C98.6759 146.239 99.4367 146.025 100.215 146.003Z" fill="#FBF173"/>
<path d="M19.1933 51.5524C20.1816 51.5265 21.1529 51.814 21.9681 52.3737C22.7833 52.9334 23.4007 53.7367 23.732 54.6687L21.8631 55.3315C21.6711 54.7918 21.3131 54.3269 20.8406 54.0034C20.368 53.6799 19.8052 53.5146 19.2328 53.531C18.7799 53.5398 18.337 53.6659 17.9473 53.897L16.9585 52.1855C17.6377 51.7883 18.4067 51.5704 19.1933 51.5524Z" fill="#FBF173"/>
<path d="M35.7957 167.985C34.8192 167.807 33.9246 167.323 33.2418 166.603C32.559 165.882 32.1235 164.963 31.9985 163.978L33.9762 163.721C34.0524 164.29 34.3068 164.821 34.7029 165.237C35.099 165.652 35.6165 165.932 36.1813 166.036C36.6258 166.123 37.0853 166.096 37.5162 165.957L38.1293 167.836C37.3763 168.081 36.5736 168.132 35.7957 167.985Z" fill="#FBF173"/>
<path d="M48.779 188.226C51.1054 188.226 52.9915 186.339 52.9915 184.011C52.9915 181.684 51.1054 179.797 48.779 179.797C46.4525 179.797 44.5667 181.684 44.5667 184.011C44.5667 186.339 46.4525 188.226 48.779 188.226Z" fill="#FBB040"/>
<path d="M258.61 149.929C260.936 149.929 262.822 148.042 262.822 145.714C262.822 143.387 260.936 141.5 258.61 141.5C256.283 141.5 254.397 143.387 254.397 145.714C254.397 148.042 256.283 149.929 258.61 149.929Z" fill="#FBB040"/>
<path opacity="0.56" d="M213.825 84.7934C216.933 84.7934 219.452 82.2732 219.452 79.1643C219.452 76.0554 216.933 73.5352 213.825 73.5352C210.718 73.5352 208.199 76.0554 208.199 79.1643C208.199 82.2732 210.718 84.7934 213.825 84.7934Z" fill="#FBB040"/>
<path d="M38.1939 90.3909C39.9579 90.3909 41.3879 88.9603 41.3879 87.1955C41.3879 85.4307 39.9579 84 38.1939 84C36.43 84 35 85.4307 35 87.1955C35 88.9603 36.43 90.3909 38.1939 90.3909Z" fill="#FBB040" fill-opacity="0.4"/>
<path d="M101.194 48.3909C102.958 48.3909 104.388 46.9602 104.388 45.1954C104.388 43.4306 102.958 42 101.194 42C99.43 42 98 43.4306 98 45.1954C98 46.9602 99.43 48.3909 101.194 48.3909Z" fill="#FBF173"/>
<path d="M239.194 228.391C240.958 228.391 242.388 226.96 242.388 225.195C242.388 223.431 240.958 222 239.194 222C237.43 222 236 223.431 236 225.195C236 226.96 237.43 228.391 239.194 228.391Z" fill="#FBF173"/>
<path opacity="0.24" d="M90.8343 213.036C92.5983 213.036 94.0283 211.606 94.0283 209.841C94.0283 208.076 92.5983 206.646 90.8343 206.646C89.0704 206.646 87.6404 208.076 87.6404 209.841C87.6404 211.606 89.0704 213.036 90.8343 213.036Z" fill="#FBB040"/>
<path opacity="0.33" d="M283.044 112.928C284.808 112.928 286.238 111.497 286.238 109.733C286.238 107.968 284.808 106.537 283.044 106.537C281.28 106.537 279.85 107.968 279.85 109.733C279.85 111.497 281.28 112.928 283.044 112.928Z" fill="#FBB040"/>
<path d="M236.796 73.0686C238.56 73.0686 239.99 71.638 239.99 69.8732C239.99 68.1084 238.56 66.6777 236.796 66.6777C235.032 66.6777 233.602 68.1084 233.602 69.8732C233.602 71.638 235.032 73.0686 236.796 73.0686Z" fill="#FBF173"/>
<path opacity="0.64" d="M303.73 187.205C305.494 187.205 306.924 185.775 306.924 184.01C306.924 182.245 305.494 180.814 303.73 180.814C301.966 180.814 300.536 182.245 300.536 184.01C300.536 185.775 301.966 187.205 303.73 187.205Z" fill="#FBB040"/>
<path d="M273.066 22.2102C274.83 22.2102 276.26 20.7796 276.26 19.0148C276.26 17.25 274.83 15.8193 273.066 15.8193C271.303 15.8193 269.873 17.25 269.873 19.0148C269.873 20.7796 271.303 22.2102 273.066 22.2102Z" fill="#FBB040"/>
<path d="M158.016 14.998L159.103 17.1942C159.128 17.247 159.165 17.2928 159.212 17.3273C159.258 17.3619 159.313 17.3842 159.37 17.3921L161.803 17.7483C161.87 17.7569 161.933 17.7844 161.985 17.8276C162.037 17.8708 162.075 17.9278 162.096 17.9922C162.117 18.0565 162.119 18.1254 162.102 18.1908C162.085 18.2562 162.05 18.3155 162.001 18.3616L160.24 20.0731C160.201 20.1167 160.171 20.1687 160.154 20.2251C160.137 20.2816 160.133 20.3412 160.142 20.3996L160.557 22.8135C160.569 22.8812 160.561 22.951 160.536 23.0147C160.51 23.0784 160.467 23.1336 160.411 23.1739C160.355 23.2142 160.289 23.2379 160.221 23.2424C160.152 23.2469 160.083 23.232 160.023 23.1993L157.857 22.0616C157.806 22.0321 157.748 22.0166 157.689 22.0166C157.63 22.0166 157.572 22.0321 157.521 22.0616L155.346 23.1993C155.286 23.2293 155.218 23.242 155.151 23.2362C155.084 23.2304 155.02 23.2062 154.966 23.1664C154.912 23.1265 154.87 23.0725 154.844 23.0102C154.819 22.948 154.811 22.8799 154.822 22.8135L155.237 20.3996C155.246 20.3404 155.241 20.28 155.222 20.2232C155.203 20.1664 155.171 20.1149 155.128 20.0731L153.378 18.3616C153.329 18.3155 153.293 18.2562 153.277 18.1908C153.26 18.1254 153.262 18.0565 153.282 17.9922C153.303 17.9278 153.342 17.8708 153.394 17.8276C153.446 17.7844 153.509 17.7569 153.576 17.7483L156.008 17.3921C156.066 17.3842 156.12 17.3619 156.167 17.3273C156.214 17.2928 156.251 17.247 156.275 17.1942L157.363 14.998C157.391 14.9344 157.436 14.8804 157.494 14.8424C157.552 14.8044 157.62 14.7842 157.689 14.7842C157.759 14.7842 157.826 14.8044 157.884 14.8424C157.942 14.8804 157.988 14.9344 158.016 14.998Z" fill="#F69281"/>
<path d="M212.75 128.214L213.838 130.41C213.862 130.463 213.9 130.509 213.946 130.543C213.993 130.578 214.048 130.6 214.105 130.608L216.538 130.964C216.605 130.973 216.668 131 216.72 131.043C216.772 131.087 216.81 131.144 216.831 131.208C216.852 131.272 216.854 131.341 216.837 131.407C216.82 131.472 216.785 131.531 216.735 131.577L214.975 133.289C214.936 133.333 214.906 133.384 214.889 133.441C214.872 133.497 214.868 133.557 214.876 133.615L215.292 136.029C215.304 136.097 215.296 136.167 215.27 136.231C215.245 136.294 215.201 136.349 215.146 136.39C215.09 136.43 215.024 136.454 214.955 136.458C214.887 136.463 214.818 136.448 214.758 136.415L212.592 135.277C212.541 135.248 212.483 135.232 212.424 135.232C212.365 135.232 212.307 135.248 212.256 135.277L210.081 136.415C210.02 136.445 209.953 136.458 209.886 136.452C209.819 136.446 209.755 136.422 209.701 136.382C209.647 136.342 209.605 136.288 209.579 136.226C209.554 136.164 209.546 136.096 209.557 136.029L209.972 133.615C209.981 133.556 209.976 133.496 209.957 133.439C209.938 133.382 209.906 133.331 209.863 133.289L208.113 131.577C208.064 131.531 208.028 131.472 208.011 131.407C207.994 131.341 207.996 131.272 208.017 131.208C208.038 131.144 208.077 131.087 208.128 131.043C208.18 131 208.244 130.973 208.311 130.964L210.743 130.608C210.801 130.6 210.855 130.578 210.902 130.543C210.949 130.509 210.986 130.463 211.01 130.41L212.098 128.214C212.126 128.15 212.171 128.096 212.229 128.058C212.287 128.02 212.355 128 212.424 128C212.493 128 212.561 128.02 212.619 128.058C212.677 128.096 212.723 128.15 212.75 128.214Z" fill="#F69281"/>
<path d="M235.98 168.254L237.579 171.382C237.612 171.459 237.666 171.525 237.735 171.575C237.804 171.624 237.886 171.655 237.971 171.664L241.547 172.171C241.646 172.186 241.738 172.228 241.813 172.291C241.889 172.354 241.945 172.436 241.975 172.528C242.005 172.62 242.008 172.718 241.984 172.812C241.96 172.906 241.909 172.991 241.838 173.059L239.25 175.496C239.191 175.555 239.147 175.627 239.122 175.705C239.097 175.783 239.091 175.866 239.105 175.947L239.716 179.4C239.73 179.495 239.717 179.592 239.677 179.681C239.638 179.77 239.574 179.846 239.493 179.901C239.412 179.957 239.316 179.989 239.217 179.995C239.117 180.001 239.018 179.98 238.931 179.935L235.747 178.315C235.672 178.273 235.587 178.251 235.5 178.251C235.413 178.251 235.328 178.273 235.253 178.315L232.055 179.935C231.968 179.982 231.869 180.005 231.77 179.999C231.67 179.994 231.575 179.961 231.494 179.905C231.413 179.849 231.35 179.771 231.313 179.682C231.276 179.592 231.266 179.495 231.284 179.4L231.895 175.947C231.91 175.865 231.903 175.781 231.875 175.702C231.847 175.623 231.799 175.552 231.735 175.496L229.162 173.129C229.091 173.062 229.04 172.976 229.016 172.883C228.992 172.789 228.995 172.691 229.025 172.598C229.055 172.506 229.111 172.424 229.187 172.361C229.262 172.298 229.354 172.257 229.453 172.241L233.029 171.734C233.114 171.726 233.196 171.695 233.265 171.645C233.334 171.596 233.388 171.529 233.421 171.452L235.02 168.324C235.058 168.234 235.121 168.157 235.202 168.1C235.282 168.043 235.378 168.009 235.478 168.001C235.577 167.994 235.677 168.014 235.766 168.058C235.854 168.103 235.928 168.171 235.98 168.254Z" fill="#FBF173"/>
<path opacity="0.33" d="M74.2417 86.5343L76.4369 90.4916C76.4881 90.5887 76.563 90.6714 76.6546 90.7319C76.7462 90.7924 76.8516 90.8289 76.961 90.8378L81.4701 91.283C81.5967 91.294 81.7175 91.3407 81.8187 91.4176C81.9198 91.4945 81.9971 91.5985 82.0416 91.7176C82.0861 91.8366 82.096 91.9659 82.0701 92.0903C82.0442 92.2147 81.9836 92.3293 81.8953 92.4207L78.8003 95.7349C78.7231 95.8128 78.6672 95.9091 78.6378 96.0147C78.6084 96.1204 78.6064 96.2318 78.6322 96.3383L79.621 100.77C79.6547 100.899 79.6495 101.035 79.6062 101.16C79.5628 101.286 79.4832 101.396 79.3774 101.477C79.2716 101.557 79.1443 101.604 79.0117 101.612C78.8791 101.621 78.747 101.589 78.6322 101.522L74.5285 99.5437C74.4302 99.4949 74.3219 99.4695 74.2121 99.4695C74.1023 99.4695 73.994 99.4949 73.8956 99.5437L69.9403 101.839C69.8326 101.897 69.7109 101.925 69.5885 101.919C69.4661 101.914 69.3476 101.874 69.2458 101.806C69.144 101.738 69.0628 101.643 69.0109 101.532C68.959 101.421 68.9385 101.298 68.9515 101.176L69.5151 96.6648C69.5303 96.5571 69.5184 96.4473 69.4804 96.3453C69.4424 96.2434 69.3796 96.1526 69.2976 96.0811L65.9059 93.1132C65.8269 93.0264 65.7721 92.9204 65.7468 92.8058C65.7215 92.6912 65.7266 92.572 65.7616 92.46C65.7966 92.348 65.8602 92.2471 65.9462 92.1673C66.0323 92.0875 66.1377 92.0316 66.252 92.0052L70.7017 91.1544C70.8096 91.1325 70.9108 91.0852 70.9968 91.0164C71.0828 90.9476 71.1511 90.8592 71.1961 90.7587L73.0156 86.6036C73.0617 86.4821 73.1421 86.3766 73.2469 86.2998C73.3517 86.2231 73.4765 86.1783 73.6062 86.171C73.7359 86.1637 73.8649 86.1941 73.9777 86.2586C74.0905 86.323 74.1822 86.4188 74.2417 86.5343Z" fill="#FBF173"/>
<path opacity="0.33" d="M313.401 26.9385L315.586 30.8957C315.639 30.9917 315.714 31.0735 315.805 31.1338C315.897 31.1942 316.001 31.2313 316.11 31.242L320.629 31.6872C320.754 31.7017 320.872 31.7504 320.971 31.8279C321.07 31.9053 321.145 32.0085 321.189 32.1261C321.233 32.2437 321.244 32.3711 321.22 32.4944C321.196 32.6177 321.139 32.732 321.054 32.8249L317.95 36.139C317.875 36.2184 317.82 36.3148 317.791 36.42C317.762 36.5251 317.758 36.6358 317.781 36.7425L318.77 41.1746C318.804 41.3032 318.799 41.4389 318.755 41.5646C318.712 41.6903 318.632 41.8003 318.527 41.8807C318.421 41.9612 318.294 42.0084 318.161 42.0166C318.028 42.0247 317.896 41.9934 317.781 41.9264L313.668 39.9973C313.571 39.9486 313.465 39.9232 313.356 39.9232C313.248 39.9232 313.142 39.9486 313.045 39.9973L309.09 42.2925C308.982 42.3509 308.86 42.3787 308.738 42.3729C308.615 42.3672 308.497 42.3281 308.395 42.2598C308.293 42.1916 308.212 42.0968 308.16 41.9858C308.108 41.8747 308.088 41.7516 308.101 41.6297L308.664 37.1184C308.677 37.0271 308.67 36.9341 308.644 36.8456C308.619 36.757 308.575 36.6747 308.516 36.604L305.134 33.6361C305.039 33.5531 304.97 33.4451 304.933 33.3244C304.897 33.2037 304.895 33.0751 304.928 32.9534C304.961 32.8317 305.027 32.7217 305.12 32.636C305.212 32.5503 305.327 32.4923 305.451 32.4687L309.91 31.608C310.016 31.588 310.116 31.5425 310.2 31.4752C310.285 31.408 310.352 31.3211 310.395 31.2222L312.224 27.0671C312.27 26.9546 312.345 26.8566 312.442 26.7834C312.539 26.7102 312.654 26.6646 312.774 26.6514C312.895 26.6383 313.017 26.658 313.127 26.7085C313.237 26.7591 313.332 26.8385 313.401 26.9385Z" fill="#FBB040"/>
<path d="M20.5974 199.076L22.1104 201.817C22.147 201.882 22.1983 201.937 22.2601 201.978C22.3219 202.019 22.3926 202.045 22.4663 202.054L25.5812 202.361C25.6679 202.369 25.7507 202.401 25.8201 202.454C25.8896 202.506 25.9428 202.577 25.9737 202.659C26.0046 202.74 26.012 202.829 25.9951 202.914C25.9781 203 25.9375 203.079 25.8778 203.142L23.7321 205.428C23.6819 205.483 23.6458 205.55 23.6268 205.622C23.6079 205.695 23.6067 205.77 23.6233 205.843L24.2858 208.91C24.3074 208.995 24.3038 209.085 24.2755 209.168C24.2472 209.252 24.1954 209.325 24.1263 209.379C24.0573 209.434 23.974 209.467 23.8865 209.475C23.7989 209.483 23.711 209.465 23.6332 209.425L20.7656 208.099C20.6988 208.063 20.624 208.043 20.548 208.043C20.472 208.043 20.3972 208.063 20.3305 208.099L17.6705 209.731C17.5946 209.773 17.5085 209.794 17.4218 209.79C17.335 209.787 17.2509 209.76 17.1785 209.712C17.1061 209.664 17.0482 209.597 17.0112 209.518C16.9741 209.44 16.9594 209.353 16.9684 209.266L17.364 206.16C17.3736 206.084 17.3641 206.008 17.3365 205.937C17.3089 205.866 17.2639 205.803 17.2057 205.754L14.8325 203.647C14.7692 203.588 14.7231 203.513 14.6992 203.43C14.6753 203.347 14.6745 203.259 14.6969 203.176C14.7193 203.092 14.764 203.017 14.8262 202.957C14.8885 202.897 14.9659 202.855 15.0501 202.836L18.1254 202.252C18.2001 202.238 18.27 202.205 18.3288 202.157C18.3875 202.108 18.4332 202.046 18.4616 201.975L19.7273 199.106C19.7574 199.016 19.8142 198.938 19.8901 198.881C19.966 198.825 20.0574 198.793 20.1521 198.789C20.2467 198.786 20.3401 198.812 20.4197 198.863C20.4993 198.914 20.5613 198.989 20.5974 199.076Z" fill="#FBF173"/>
<path d="M21.3251 22.279L23.4725 26.0608C23.5229 26.1542 23.5971 26.2334 23.688 26.2908C23.779 26.3482 23.8835 26.3818 23.9917 26.3885L28.4128 26.8117C28.5348 26.8248 28.6505 26.8708 28.7472 26.9444C28.8438 27.018 28.9172 27.1163 28.9595 27.2284C29.0018 27.3405 29.0112 27.4618 28.9865 27.5787C28.9618 27.6956 28.9041 27.8035 28.8198 27.8903L25.7881 31.085C25.7133 31.1623 25.6588 31.2561 25.6295 31.3583C25.6002 31.4606 25.5969 31.5683 25.6198 31.6721L26.5742 35.8908C26.5988 36.0074 26.5896 36.1283 26.5476 36.2401C26.5055 36.3519 26.4324 36.4501 26.3363 36.5238C26.2401 36.5975 26.1249 36.6437 26.0033 36.6573C25.8817 36.6708 25.7587 36.6513 25.6479 36.6007L21.6199 34.7303C21.5277 34.6801 21.4238 34.6537 21.3181 34.6537C21.2125 34.6537 21.1086 34.6801 21.0164 34.7303L17.1708 36.9147C17.064 36.9744 16.9422 37.0038 16.8191 36.9997C16.6961 36.9955 16.5767 36.9579 16.4744 36.8911C16.3722 36.8243 16.2912 36.731 16.2407 36.6218C16.1901 36.5126 16.1719 36.3918 16.1883 36.273L16.7356 31.9861C16.7448 31.8888 16.732 31.7907 16.6981 31.6987C16.6641 31.6067 16.61 31.523 16.5392 31.4536L13.2129 28.5866C13.123 28.5046 13.0579 28.4001 13.0248 28.2846C12.9917 28.1691 12.9917 28.047 13.025 27.9315C13.0583 27.8161 13.1236 27.7117 13.2136 27.6298C13.3037 27.5479 13.4151 27.4916 13.5357 27.4671L17.9427 26.6615C18.0469 26.642 18.1446 26.5982 18.2277 26.534C18.3108 26.4699 18.3767 26.3872 18.4199 26.2929L20.2023 22.3336C20.2565 22.2374 20.3351 22.1563 20.4306 22.098C20.5261 22.0398 20.6354 22.0063 20.748 22.0008C20.8607 21.9954 20.9727 22.0181 21.0738 22.0668C21.1748 22.1155 21.2614 22.1885 21.3251 22.279Z" fill="#FBF173"/>
<path d="M296.986 80.4495L298.855 83.8528C298.899 83.9352 298.963 84.0055 299.04 84.0573C299.118 84.1091 299.207 84.1408 299.3 84.1495L303.167 84.5354C303.279 84.541 303.387 84.5795 303.477 84.6459C303.568 84.7124 303.637 84.804 303.676 84.9093C303.715 85.0146 303.722 85.1291 303.696 85.2385C303.671 85.3479 303.614 85.4474 303.532 85.5247L300.873 88.3541C300.81 88.4227 300.765 88.5051 300.741 88.5946C300.717 88.684 300.715 88.7779 300.734 88.8685L301.565 92.6674C301.589 92.773 301.582 92.8832 301.547 92.9853C301.511 93.0874 301.447 93.1773 301.362 93.2445C301.277 93.3118 301.175 93.3537 301.067 93.3653C300.96 93.377 300.851 93.358 300.754 93.3105L297.244 91.6683C297.16 91.6224 297.067 91.5983 296.972 91.5983C296.876 91.5983 296.783 91.6224 296.7 91.6683L293.347 93.6469C293.255 93.7012 293.15 93.7286 293.043 93.726C292.936 93.7235 292.832 93.691 292.742 93.6324C292.653 93.5737 292.581 93.4912 292.536 93.3941C292.491 93.297 292.474 93.1892 292.487 93.083L292.972 89.2247C292.982 89.1318 292.97 89.0378 292.937 88.9503C292.905 88.8627 292.852 88.7839 292.784 88.7201L289.887 86.138C289.807 86.0671 289.75 85.9757 289.719 85.8738C289.689 85.772 289.688 85.6637 289.716 85.5612C289.743 85.4586 289.799 85.3657 289.876 85.2929C289.954 85.2201 290.05 85.1702 290.154 85.1487L293.97 84.4167C294.063 84.402 294.15 84.3632 294.223 84.3042C294.296 84.2451 294.352 84.1679 294.386 84.0803L295.948 80.5287C295.989 80.4289 296.057 80.3426 296.145 80.2792C296.232 80.2158 296.335 80.1779 296.443 80.1697C296.551 80.1615 296.658 80.1833 296.754 80.2327C296.85 80.2821 296.931 80.3572 296.986 80.4495Z" fill="#FBF173"/>
<path d="M291.123 212.918L292.359 215.154C292.387 215.208 292.428 215.254 292.478 215.288C292.528 215.323 292.585 215.345 292.645 215.352L295.187 215.609C295.258 215.614 295.326 215.639 295.383 215.681C295.441 215.724 295.485 215.781 295.511 215.848C295.537 215.914 295.543 215.986 295.53 216.056C295.516 216.126 295.483 216.191 295.434 216.242L293.684 218.102C293.642 218.149 293.611 218.204 293.594 218.264C293.577 218.324 293.574 218.387 293.585 218.449L294.139 220.942C294.152 221.011 294.146 221.082 294.121 221.148C294.097 221.214 294.055 221.272 294 221.316C293.945 221.359 293.879 221.387 293.809 221.396C293.74 221.405 293.669 221.395 293.605 221.367L291.291 220.279C291.235 220.252 291.174 220.239 291.113 220.239C291.051 220.239 290.99 220.252 290.935 220.279L288.739 221.604C288.679 221.641 288.609 221.659 288.538 221.657C288.467 221.655 288.398 221.633 288.339 221.594C288.281 221.555 288.234 221.499 288.205 221.435C288.176 221.37 288.166 221.299 288.176 221.229L288.492 218.696C288.501 218.636 288.495 218.575 288.474 218.518C288.453 218.461 288.419 218.41 288.374 218.369L286.455 216.658C286.402 216.612 286.363 216.551 286.343 216.483C286.322 216.416 286.321 216.344 286.34 216.276C286.358 216.208 286.396 216.146 286.448 216.098C286.499 216.05 286.564 216.018 286.633 216.005L289.145 215.52C289.204 215.507 289.26 215.481 289.308 215.443C289.356 215.405 289.395 215.357 289.422 215.303L290.411 212.958C290.436 212.886 290.482 212.823 290.543 212.777C290.604 212.731 290.677 212.704 290.753 212.7C290.83 212.696 290.905 212.714 290.971 212.753C291.037 212.792 291.09 212.849 291.123 212.918Z" fill="#FBB040"/>
<path opacity="0.21" d="M92.7681 125.566C105.508 89.7346 124.766 54.1586 172.619 67.5375C220.472 80.9163 262.175 115.037 251.923 151.707C238.034 201.384 188.424 220.227 145.916 212.014C103.407 203.8 80.0281 161.398 92.7681 125.566Z" fill="url(#paint0_linear)"/>
<path opacity="0.5" d="M238.633 145.461C236.01 183.429 227.035 222.907 177.309 222.907C127.583 222.907 78.1938 201.259 78.1938 163.152C78.1938 111.531 120.931 80.0012 164.114 76.4629C207.297 72.9246 241.257 107.493 238.633 145.461Z" fill="url(#paint1_linear)"/>
<path fill-rule="evenodd" clip-rule="evenodd" d="M125.392 219.855L125.732 220.986L230.921 189.473L230.581 188.342C229.391 184.353 229.832 180.056 231.807 176.392C233.783 172.729 237.132 169.999 241.118 168.802L242.249 168.462L228.452 122.38L227.322 122.72C223.337 123.919 219.039 123.487 215.372 121.518C211.706 119.55 208.971 116.206 207.769 112.222L207.438 111.092L102.243 142.555L102.583 143.696C103.774 147.678 103.339 151.97 101.373 155.632C99.4081 159.295 96.0722 162.03 92.0955 163.239L90.9546 163.579L104.715 209.618L105.855 209.278C107.833 208.687 109.907 208.492 111.96 208.704C114.012 208.916 116.003 209.531 117.818 210.514C119.633 211.496 121.236 212.827 122.535 214.43C123.835 216.033 124.806 217.877 125.392 219.855Z" fill="url(#paint2_linear)"/>
<path fill-rule="evenodd" clip-rule="evenodd" d="M130.111 211.425L221.998 183.91L222.031 183.621C222.072 179.791 223.042 176.028 224.86 172.656C226.677 169.284 229.286 166.404 232.464 164.264L232.697 164.102L222.89 131.312L222.601 131.289C218.77 131.249 215.007 130.278 211.635 128.461C208.263 126.643 205.383 124.034 203.243 120.857L203.082 120.613L111.186 148.127L111.163 148.417C111.123 152.246 110.153 156.008 108.336 159.378C106.518 162.749 103.908 165.627 100.731 167.764L100.487 167.935L110.304 200.726L110.593 200.749C114.424 200.788 118.188 201.758 121.56 203.575C124.932 205.393 127.812 208.003 129.95 211.181L130.111 211.425Z" fill="url(#paint3_linear)"/>
<path d="M203.475 133.293L117.794 158.95L118.248 160.464L203.929 134.807L203.475 133.293Z" fill="white"/>
<path d="M214.933 171.564L129.242 197.224L129.695 198.737L215.386 173.077L214.933 171.564Z" fill="white"/>
<path d="M125.765 185.344L119.807 183.331L116.062 188.367L116.134 182.093L110.186 180.08L116.175 178.214L116.258 171.93L119.879 177.056L125.878 175.18L122.133 180.227L125.765 185.344Z" fill="white"/>
<path d="M211.997 159.522L215.866 154.576L221.763 156.725L218.258 151.518L222.126 146.571L216.088 148.304L212.574 143.096L212.361 149.369L206.323 151.101L212.22 153.25L211.997 159.522Z" fill="white"/>
<path d="M135.897 182.968L131.627 169.303L136.38 167.838C137.263 167.514 138.197 167.344 139.138 167.338C139.987 167.387 140.798 167.705 141.453 168.246C142.143 168.851 142.64 169.644 142.885 170.528C143.124 171.291 143.176 172.1 143.037 172.887C142.912 173.648 142.551 174.349 142.003 174.891C142.272 175.098 142.529 175.319 142.773 175.555L146.909 179.508L143.185 180.664L139.377 176.857L137.813 177.344L139.24 181.943L135.897 182.968ZM136.921 174.463L138.371 174.018C138.851 173.899 139.264 173.597 139.522 173.177C139.635 172.968 139.704 172.738 139.723 172.501C139.742 172.264 139.711 172.026 139.633 171.801C139.582 171.493 139.433 171.209 139.209 170.993C138.984 170.776 138.695 170.637 138.385 170.598C137.937 170.576 137.488 170.642 137.065 170.793L135.934 171.143L136.921 174.463Z" fill="white"/>
<path d="M147.072 179.479L147.475 164.463L150.994 163.371L159.864 175.59L156.428 176.659L154.701 174.052L150.441 175.376L150.502 178.49L147.072 179.479ZM150.439 172.406L153.135 171.569L151.543 169.154L150.263 166.974C150.372 167.986 150.432 168.864 150.442 169.497L150.439 172.406Z" fill="white"/>
<path d="M161.339 175.087L157.109 161.425L165.479 158.887L166.347 161.695L161.323 163.298L162.207 166.158L166.324 164.863L167.207 167.733L163.09 169.028L164.69 174.092L161.339 175.087Z" fill="white"/>
<path d="M171.699 171.875L167.468 158.222L175.833 155.623L176.716 158.493L171.692 160.096L172.575 162.966L176.692 161.671L177.586 164.532L173.469 165.827L175.069 170.891L171.699 171.875Z" fill="white"/>
<path d="M182.049 168.675L177.819 155.013L181.162 153.977L184.509 164.769L190.085 163.05L190.969 165.91L182.049 168.675Z" fill="white"/>
<path d="M192.697 165.375L188.458 151.702L197.018 149.049L197.912 151.909L192.698 153.497L193.502 155.979L197.668 154.699L198.562 157.559L194.395 158.85L195.191 161.432L200.674 159.735L201.558 162.595L192.697 165.375Z" fill="white"/>
<path d="M224.259 163.737L233.584 118.963C231.414 118.513 229.354 117.639 227.522 116.391C225.69 115.144 224.122 113.548 222.908 111.694C221.693 109.84 220.856 107.765 220.445 105.587C220.033 103.409 220.055 101.172 220.509 99.0025L115.342 77.043C114.894 79.2165 114.021 81.2803 112.774 83.1162C111.527 84.9521 109.93 86.5241 108.075 87.7422C106.22 88.9603 104.143 89.8006 101.962 90.215C99.7818 90.6294 97.5412 90.6098 95.3685 90.1573L86.0344 134.92C90.411 135.844 94.2423 138.467 96.6877 142.212C99.133 145.958 99.9927 150.521 99.0782 154.899L204.238 176.808C204.693 174.634 205.571 172.571 206.824 170.737C208.076 168.903 209.678 167.334 211.538 166.12C213.397 164.906 215.478 164.071 217.661 163.662C219.844 163.253 222.086 163.278 224.259 163.737Z" fill="url(#paint4_linear)"/>
<path d="M106.462 149.16C106.083 145.288 104.774 141.565 102.645 138.308C100.517 135.052 97.6323 132.358 94.2378 130.457L101.097 97.5194C104.972 97.1387 108.696 95.8264 111.953 93.6943C115.21 91.5622 117.903 88.6738 119.802 85.2754L213.136 104.73C213.515 108.602 214.825 112.324 216.953 115.581C219.082 118.838 221.966 121.532 225.36 123.433L218.49 156.37C214.617 156.756 210.895 158.076 207.644 160.216C204.393 162.355 201.709 165.252 199.822 168.657L106.462 149.16Z" fill="url(#paint5_linear)"/>
<path d="M200.027 169.062L106.09 149.489L106.059 149.196C105.698 145.384 104.416 141.716 102.324 138.509C100.231 135.302 97.3905 132.652 94.0465 130.786L93.7847 130.649L100.791 97.1501L101.08 97.1687C104.892 96.7923 108.556 95.4958 111.756 93.3908C114.957 91.2858 117.599 88.4351 119.454 85.0838L119.62 84.834L213.557 104.407L213.539 104.697C213.908 108.508 215.197 112.173 217.295 115.376C219.393 118.58 222.237 121.226 225.582 123.088L225.844 123.225L218.858 156.736L218.565 156.767C214.753 157.133 211.087 158.421 207.883 160.519C204.679 162.617 202.033 165.463 200.173 168.811L200.027 169.062ZM106.844 148.836L199.623 168.174C201.536 164.822 204.217 161.971 207.445 159.855C210.673 157.739 214.356 156.419 218.193 156.002L224.936 123.628C221.585 121.715 218.735 119.034 216.621 115.806C214.507 112.578 213.188 108.895 212.774 105.058L120.004 85.7205C118.091 89.072 115.41 91.9225 112.182 94.0383C108.954 96.1541 105.271 97.4751 101.434 97.893L94.6519 130.254C98.009 132.166 100.865 134.847 102.984 138.078C105.103 141.308 106.426 144.995 106.844 148.836Z" fill="white"/>
<path d="M120.262 97.4941L119.94 99.0409L207.508 117.291L207.831 115.744L120.262 97.4941Z" fill="white"/>
<path d="M112.1 136.588L111.778 138.135L199.347 156.385L199.669 154.838L112.1 136.588Z" fill="white"/>
<path d="M114.169 125.317L109.896 120.723L104.194 123.372L107.253 117.878L102.979 113.284L109.144 114.492L112.193 109.006L112.944 115.238L119.109 116.446L113.418 119.086L114.169 125.317Z" fill="white"/>
<path d="M202.301 143.694L208.054 141.188L212.221 145.885L211.611 139.633L217.364 137.127L211.238 135.771L210.628 129.529L207.444 134.936L201.318 133.58L205.485 138.287L202.301 143.694Z" fill="white"/>
<path d="M125.813 127.038L128.482 112.961L133.373 113.887C134.305 114.019 135.208 114.308 136.044 114.74C136.76 115.192 137.311 115.864 137.614 116.655C137.948 117.511 138.017 118.447 137.812 119.343C137.686 120.134 137.365 120.881 136.88 121.518C136.415 122.133 135.764 122.583 135.024 122.801C135.164 123.11 135.287 123.425 135.394 123.747L137.189 129.183L133.357 128.456L131.759 123.242L130.194 122.961L129.298 127.694L125.813 127.038ZM130.704 120.008L132.199 120.295C132.676 120.412 133.18 120.34 133.605 120.094C133.8 119.955 133.963 119.777 134.085 119.571C134.207 119.365 134.285 119.135 134.313 118.897C134.413 118.602 134.415 118.282 134.319 117.985C134.222 117.688 134.033 117.43 133.778 117.25C133.389 117.021 132.96 116.871 132.514 116.808L131.355 116.593L130.704 120.008Z" fill="white"/>
<path d="M137.306 129.219L144.745 116.08L148.359 116.763L150.473 131.72L146.928 131.051L146.628 127.935L142.242 127.102L140.841 129.888L137.306 129.219ZM143.622 124.505L146.394 125.034L146.081 122.108L145.973 119.586C145.569 120.562 145.219 121.331 144.942 121.894L143.622 124.505Z" fill="white"/>
<path d="M151.977 132.008L154.645 117.961L163.258 119.587L162.696 122.557L157.529 121.573L156.967 124.543L161.253 125.36L160.691 128.33L156.405 127.513L155.418 132.721L151.977 132.008Z" fill="white"/>
<path d="M162.63 134.027L165.297 119.979L173.9 121.615L173.348 124.586L168.232 123.585L167.67 126.555L171.947 127.362L171.385 130.332L167.061 129.472L166.075 134.68L162.63 134.027Z" fill="white"/>
<path d="M173.282 136.045L175.948 122.027L179.382 122.689L177.277 133.757L183.019 134.848L182.457 137.818L173.282 136.045Z" fill="white"/>
<path d="M184.221 138.132L186.889 124.074L195.7 125.753L195.138 128.723L189.772 127.707L189.287 130.261L193.573 131.078L193.011 134.048L188.725 133.231L188.226 135.844L193.859 136.908L193.297 139.878L184.221 138.132Z" fill="white"/>
<defs>
<linearGradient id="paint0_linear" x1="228.532" y1="235.371" x2="209.441" y2="57.188" gradientUnits="userSpaceOnUse">
<stop stop-color="white" stop-opacity="0.35"/>
<stop offset="0.995036" stop-color="#FEB052"/>
</linearGradient>
<linearGradient id="paint1_linear" x1="78.1938" y1="76.2129" x2="147.799" y2="244.56" gradientUnits="userSpaceOnUse">
<stop stop-color="white" stop-opacity="0.35"/>
<stop offset="0.995036" stop-color="#FEB052"/>
</linearGradient>
<linearGradient id="paint2_linear" x1="171.245" y1="108.186" x2="161.956" y2="223.894" gradientUnits="userSpaceOnUse">
<stop stop-color="#FFC531"/>
<stop offset="1" stop-color="#F99669"/>
</linearGradient>
<linearGradient id="paint3_linear" x1="104.918" y1="112.732" x2="96.1227" y2="206.971" gradientUnits="userSpaceOnUse">
<stop stop-color="#985ADD"/>
<stop offset="1" stop-color="#F36580"/>
</linearGradient>
<linearGradient id="paint4_linear" x1="162.824" y1="80.0987" x2="156.796" y2="173.755" gradientUnits="userSpaceOnUse">
<stop stop-color="#FFC85A"/>
<stop offset="1" stop-color="#FFBF41"/>
</linearGradient>
<linearGradient id="paint5_linear" x1="97.239" y1="83.8233" x2="91.1759" y2="159.612" gradientUnits="userSpaceOnUse">
<stop stop-color="#FEB65A"/>
<stop offset="1" stop-color="#F36580"/>
</linearGradient>
</defs>
</svg>
