<svg width="312" height="133" viewBox="0 0 312 133" fill="none" xmlns="http://www.w3.org/2000/svg">
<path d="M302.381 34.0885V34.0911C302.383 36.4072 303.282 38.6328 304.891 40.2967C306.157 41.607 307.785 42.488 309.549 42.8385V46.5134C307.794 46.8714 306.177 47.7556 304.919 49.0647C303.323 50.7266 302.433 52.9438 302.433 55.2498C302.433 57.5559 303.323 59.7731 304.919 61.435C306.177 62.7441 307.794 63.6283 309.549 63.9863V67.6684C307.794 68.0264 306.177 68.9106 304.919 70.2197C303.323 71.8816 302.433 74.0988 302.433 76.4049C302.433 78.7109 303.323 80.9281 304.919 82.59C306.177 83.8991 307.794 84.7833 309.549 85.1413V88.7934C307.794 89.1514 306.177 90.0356 304.919 91.3447C303.323 93.0066 302.433 95.2238 302.433 97.5299C302.433 99.8359 303.323 102.053 304.919 103.715C306.177 105.024 307.794 105.908 309.549 106.266V109.948C307.794 110.306 306.177 111.191 304.919 112.5C303.323 114.162 302.433 116.379 302.433 118.685C302.433 120.991 303.323 123.208 304.919 124.87C306.177 126.179 307.794 127.063 309.549 127.421V130.99H1.5V127.634C3.39139 127.36 5.15671 126.48 6.52269 125.109C8.19064 123.435 9.12668 121.165 9.12668 118.8C9.12668 116.435 8.19064 114.165 6.52269 112.491C5.1567 111.12 3.39139 110.24 1.5 109.966V106.449C3.39139 106.175 5.1567 105.295 6.52269 103.924C8.19064 102.25 9.12668 99.9802 9.12668 97.6149C9.12668 95.2496 8.19064 92.98 6.52269 91.3058C5.1567 89.9347 3.39139 89.0548 1.5 88.7811V85.3037C2.2444 85.2193 2.97694 85.0407 3.67986 84.771C4.79738 84.3421 5.81692 83.6917 6.6777 82.8588C7.53847 82.026 8.22281 81.0278 8.69012 79.9241C9.15743 78.8204 9.3982 77.6337 9.3982 76.4349C9.3982 75.236 9.15743 74.0493 8.69012 72.9456C8.22281 71.842 7.53847 70.8438 6.6777 70.0109C5.81692 69.1781 4.79738 68.5276 3.67986 68.0988C2.97694 67.829 2.2444 67.6505 1.5 67.5661V64.1287C2.2444 64.0443 2.97693 63.8657 3.67986 63.596C4.79739 63.1671 5.81693 62.5167 6.6777 61.6838C7.53847 60.8509 8.22281 59.8528 8.69012 58.7491C9.15742 57.6454 9.3982 56.4587 9.3982 55.2598C9.3982 54.061 9.15743 52.8743 8.69012 51.7706C8.22281 50.6669 7.53847 49.6688 6.6777 48.8359C5.81692 48.003 4.79738 47.3526 3.67986 46.9237C2.97693 46.654 2.2444 46.4754 1.5 46.391V42.9636C2.23208 42.8577 2.94975 42.6603 3.63602 42.375C4.71591 41.926 5.69675 41.268 6.52269 40.439C7.34862 39.6099 8.00348 38.626 8.45016 37.5436C8.89684 36.4611 9.12668 35.3011 9.12668 34.1298C9.12668 32.9585 8.89684 31.7986 8.45016 30.7161C8.00348 29.6337 7.34862 28.6498 6.52269 27.8207C5.69675 26.9917 4.71591 26.3337 3.63603 25.8847C2.94975 25.5994 2.23208 25.402 1.5 25.2961V21.7786C3.39139 21.5049 5.15671 20.6251 6.52269 19.2539C8.19064 17.5797 9.12668 15.3101 9.12668 12.9448C9.12668 10.5795 8.19064 8.30992 6.52269 6.63568C5.15671 5.26454 3.39139 4.38473 1.5 4.11098V2.40625H309.549V4.19336C307.794 4.55133 306.177 5.43551 304.919 6.74463C303.323 8.40654 302.433 10.6238 302.433 12.9298C302.433 15.2358 303.323 17.453 304.919 19.1149C306.177 20.4241 307.794 21.3082 309.549 21.6662V25.3497C307.786 25.6983 306.159 26.5774 304.892 27.8859C303.283 29.5482 302.383 31.773 302.381 34.0885Z" stroke="white" stroke-width="3"/>
<line y1="-1.5" x2="131.004" y2="-1.5" transform="matrix(0.00763337 0.999971 -1 0 246.024 1)" stroke="white" stroke-width="3"/>
</svg>
