<svg width="23" height="12" viewBox="0 0 23 12" fill="none" xmlns="http://www.w3.org/2000/svg">
<path d="M22.2289 5.86327C22.2289 5.50229 21.9704 5.21033 21.6507 5.21033H1.96525L5.42559 1.30331C5.65127 1.04851 5.65127 0.639757 5.42559 0.384952C5.19992 0.130146 4.8379 0.130146 4.61222 0.384952L0.169256 5.40143C-0.0564186 5.65624 -0.0564186 6.06499 0.169256 6.31979L4.61222 11.3363C4.72506 11.4637 4.87081 11.5274 5.02126 11.5274C5.17171 11.5274 5.31746 11.4637 5.43029 11.3363C5.65597 11.0815 5.65597 10.6727 5.43029 10.4179L1.96995 6.5109H21.6601C21.9704 6.5109 22.2289 6.22424 22.2289 5.86327Z" fill="white"/>
</svg>
