<svg width="18" height="18" viewBox="0 0 18 18" fill="none" xmlns="http://www.w3.org/2000/svg">
<g clip-path="url(#clip0)">
<path d="M11.1446 9.74577L9.33775 11.4822C9.23474 11.5852 9.09981 11.6368 8.96492 11.6368C8.83002 11.6368 8.69506 11.5852 8.59209 11.4822L6.85551 9.7457L0.904053 15.6968C1.11035 15.7955 1.33848 15.8555 1.58208 15.8555H16.418C16.6615 15.8555 16.8895 15.7956 17.0958 15.6969L11.1446 9.74577Z" fill="#333333"/>
<path d="M0.158555 3.04877C0.0598711 3.25503 0 3.48302 0 3.72654V14.2734C0 14.5168 0.0598008 14.7448 0.158414 14.951L6.10977 8.99998L0.158555 3.04877Z" fill="#333333"/>
<path d="M17.8417 3.04904L11.8903 9.00008L17.8415 14.9512C17.9402 14.745 18 14.517 18 14.2734V3.72657C18 3.48319 17.9403 3.25523 17.8417 3.04904Z" fill="#333333"/>
<path d="M16.418 2.14453H1.58201C1.33849 2.14453 1.1105 2.2044 0.904236 2.30309L8.96483 10.3637L10.7715 8.62741C10.7715 8.62741 10.7716 8.62724 10.7717 8.62717C10.7717 8.6271 10.7718 8.62703 10.7718 8.62703L17.096 2.30323C16.8897 2.20447 16.6616 2.14453 16.418 2.14453Z" fill="#333333"/>
</g>
<defs>
<clipPath id="clip0">
<rect width="18" height="18" fill="white"/>
</clipPath>
</defs>
</svg>
