<svg width="325" height="308" viewBox="0 0 325 308" fill="none" xmlns="http://www.w3.org/2000/svg">
<g clip-path="url(#clip0)">
<path d="M70.405 41.6205C73.4469 41.6205 75.9128 39.1534 75.9128 36.11C75.9128 33.0667 73.4469 30.5996 70.405 30.5996C67.3631 30.5996 64.8972 33.0667 64.8972 36.11C64.8972 39.1534 67.3631 41.6205 70.405 41.6205Z" fill="#FBB040"/>
<path d="M232.376 37.5238C235.418 37.5238 237.884 35.0567 237.884 32.0134C237.884 28.97 235.418 26.5029 232.376 26.5029C229.334 26.5029 226.868 28.97 226.868 32.0134C226.868 35.0567 229.334 37.5238 232.376 37.5238Z" fill="#FBB040"/>
<path d="M93.9986 174C95.6546 174 96.9972 172.657 96.9972 171C96.9972 169.343 95.6546 168 93.9986 168C92.3425 168 91 169.343 91 171C91 172.657 92.3425 174 93.9986 174Z" fill="#FBF173"/>
<g opacity="0.33">
<path opacity="0.33" d="M16.6815 145.912C16.7412 143.926 17.4305 142.01 18.6499 140.442C19.8692 138.873 21.5555 137.733 23.4649 137.187L24.5625 140.995C23.4534 141.308 22.4723 141.965 21.7612 142.872C21.0502 143.779 20.646 144.889 20.6072 146.041C20.5718 146.946 20.7693 147.845 21.1807 148.653L17.6407 150.433C16.9458 149.031 16.6159 147.476 16.6815 145.912Z" fill="#F69281"/>
</g>
<g opacity="0.33">
<path opacity="0.33" d="M252.469 13.0986C251.955 11.1826 252.061 9.15303 252.772 7.30105C253.482 5.44907 254.761 3.86988 256.424 2.79004L258.57 6.12399C257.609 6.74378 256.869 7.65168 256.455 8.71783C256.041 9.78397 255.975 10.9537 256.266 12.0598C256.487 12.9406 256.934 13.7486 257.561 14.4045L254.674 17.1251C253.618 15.9857 252.86 14.6023 252.469 13.0986Z" fill="#F69281"/>
</g>
<g opacity="0.33">
<path opacity="0.33" d="M186.445 32.241C186.86 31.3381 187.551 30.5902 188.418 30.105C189.285 29.6197 190.284 29.4219 191.27 29.5402L191.033 31.5188C190.638 31.4735 190.237 31.5151 189.86 31.6408C189.482 31.7665 189.137 31.9733 188.848 32.2466C188.559 32.5199 188.333 32.8532 188.186 33.2231C188.039 33.5929 187.974 33.9905 187.997 34.3878L186.019 34.5263C185.968 33.741 186.115 32.9554 186.445 32.241Z" fill="#F69281"/>
</g>
<g opacity="0.33">
<path opacity="0.33" d="M301.07 126.413C301.667 127.206 301.996 128.168 302.01 129.161C302.024 130.153 301.723 131.124 301.149 131.934L299.528 130.796C299.864 130.331 300.046 129.772 300.046 129.198C300.046 128.624 299.864 128.065 299.528 127.6C299.261 127.234 298.903 126.944 298.489 126.76L299.31 124.959C300.011 125.285 300.618 125.786 301.07 126.413Z" fill="#F69281"/>
</g>
<g opacity="0.33">
<path opacity="0.33" d="M286.267 37.0099C286.862 37.8056 287.19 38.7689 287.204 39.7622C287.218 40.7555 286.918 41.7278 286.347 42.5402L284.725 41.3926C284.954 41.0663 285.109 40.6935 285.178 40.3007C285.248 39.9079 285.23 39.5046 285.126 39.1195C285.022 38.7344 284.835 38.3768 284.578 38.072C284.321 37.7673 283.999 37.5229 283.637 37.3562L284.468 35.5557C285.176 35.8879 285.794 36.3869 286.267 37.0099Z" fill="#F69281"/>
</g>
<g opacity="0.46">
<path opacity="0.46" d="M261.794 253.994C262.685 255.188 263.177 256.634 263.198 258.125C263.219 259.615 262.769 261.075 261.912 262.294L259.48 260.573C259.823 260.083 260.054 259.524 260.158 258.935C260.261 258.346 260.234 257.741 260.079 257.164C259.923 256.586 259.643 256.05 259.257 255.593C258.872 255.136 258.391 254.769 257.848 254.518L259.094 251.817C260.161 252.307 261.089 253.055 261.794 253.994Z" fill="#F69281"/>
</g>
<path d="M66.6474 269.991C65.6587 269.898 64.725 269.493 63.9806 268.835C63.2362 268.178 62.7193 267.301 62.5042 266.331L64.4818 265.896C64.6036 266.457 64.9014 266.965 65.3317 267.346C65.7621 267.727 66.3027 267.96 66.8748 268.013C67.3229 268.062 67.7761 267.994 68.19 267.815L68.9711 269.635C68.2388 269.947 67.4396 270.07 66.6474 269.991Z" fill="#F69281"/>
<path d="M108.757 105.13C107.945 103.741 107.591 102.131 107.748 100.535C107.904 98.9397 108.562 97.4405 109.626 96.2555L112.015 98.4109C111.397 99.0936 111.013 99.9596 110.921 100.882C110.829 101.805 111.033 102.736 111.502 103.539C111.864 104.176 112.382 104.709 113.005 105.089L111.326 107.77C110.266 107.118 109.382 106.21 108.757 105.13Z" fill="#F69281"/>
<path d="M54.1857 14.5959C52.6037 13.8162 51.3275 12.5269 50.5438 10.917C49.7602 9.30699 49.5105 7.46091 49.8311 5.64908L53.3143 6.11497C53.1393 7.16116 53.2914 8.22386 53.7485 9.14941C54.2055 10.075 54.944 10.8154 55.8569 11.2636C56.5703 11.623 57.3691 11.785 58.177 11.734L58.1825 15.3261C56.7981 15.4313 55.4241 15.1802 54.1857 14.5959Z" fill="#F69281"/>
<path d="M100.215 146.003C101.207 145.969 102.184 146.254 103.004 146.814C103.824 147.375 104.444 148.182 104.773 149.119L102.905 149.782C102.714 149.241 102.356 148.775 101.883 148.452C101.411 148.128 100.847 147.963 100.274 147.981C99.8211 147.988 99.3778 148.114 98.9888 148.347L98 146.626C98.6759 146.239 99.4367 146.025 100.215 146.003Z" fill="#FBF173"/>
<path d="M19.1933 51.5524C20.1816 51.5265 21.1529 51.814 21.9681 52.3737C22.7833 52.9334 23.4007 53.7367 23.732 54.6687L21.8631 55.3315C21.6711 54.7918 21.3131 54.3269 20.8406 54.0034C20.368 53.6799 19.8052 53.5146 19.2328 53.531C18.7799 53.5398 18.337 53.6659 17.9473 53.897L16.9585 52.1855C17.6377 51.7883 18.4067 51.5704 19.1933 51.5524Z" fill="#FBF173"/>
<path d="M35.7957 167.984C34.8192 167.806 33.9246 167.322 33.2418 166.602C32.559 165.881 32.1235 164.962 31.9985 163.977L33.9762 163.72C34.0524 164.289 34.3068 164.82 34.7029 165.236C35.099 165.651 35.6165 165.931 36.1813 166.035C36.6258 166.122 37.0853 166.095 37.5162 165.956L38.1293 167.835C37.3763 168.08 36.5736 168.131 35.7957 167.984Z" fill="#FBF173"/>
<path d="M48.7791 188.225C51.1055 188.225 52.9915 186.338 52.9915 184.01C52.9915 181.683 51.1055 179.796 48.7791 179.796C46.4526 179.796 44.5667 181.683 44.5667 184.01C44.5667 186.338 46.4526 188.225 48.7791 188.225Z" fill="#FBB040"/>
<path d="M258.61 149.929C260.936 149.929 262.822 148.042 262.822 145.714C262.822 143.387 260.936 141.5 258.61 141.5C256.283 141.5 254.397 143.387 254.397 145.714C254.397 148.042 256.283 149.929 258.61 149.929Z" fill="#FBB040"/>
<path opacity="0.56" d="M213.825 84.7934C216.933 84.7934 219.452 82.2732 219.452 79.1643C219.452 76.0554 216.933 73.5352 213.825 73.5352C210.718 73.5352 208.199 76.0554 208.199 79.1643C208.199 82.2732 210.718 84.7934 213.825 84.7934Z" fill="#FBB040"/>
<path d="M38.1939 90.3909C39.9579 90.3909 41.3879 88.9603 41.3879 87.1955C41.3879 85.4307 39.9579 84 38.1939 84C36.43 84 35 85.4307 35 87.1955C35 88.9603 36.43 90.3909 38.1939 90.3909Z" fill="#FBB040" fill-opacity="0.4"/>
<path d="M101.194 48.3909C102.958 48.3909 104.388 46.9602 104.388 45.1954C104.388 43.4306 102.958 42 101.194 42C99.43 42 98 43.4306 98 45.1954C98 46.9602 99.43 48.3909 101.194 48.3909Z" fill="#FBF173"/>
<path d="M239.194 228.391C240.958 228.391 242.388 226.96 242.388 225.195C242.388 223.431 240.958 222 239.194 222C237.43 222 236 223.431 236 225.195C236 226.96 237.43 228.391 239.194 228.391Z" fill="#FBF173"/>
<path opacity="0.24" d="M90.8343 213.036C92.5983 213.036 94.0283 211.606 94.0283 209.841C94.0283 208.076 92.5983 206.646 90.8343 206.646C89.0704 206.646 87.6404 208.076 87.6404 209.841C87.6404 211.606 89.0704 213.036 90.8343 213.036Z" fill="#FBB040"/>
<path opacity="0.33" d="M283.044 112.929C284.808 112.929 286.238 111.498 286.238 109.734C286.238 107.969 284.808 106.538 283.044 106.538C281.28 106.538 279.85 107.969 279.85 109.734C279.85 111.498 281.28 112.929 283.044 112.929Z" fill="#FBB040"/>
<path d="M236.796 73.0696C238.56 73.0696 239.99 71.639 239.99 69.8742C239.99 68.1094 238.56 66.6787 236.796 66.6787C235.032 66.6787 233.602 68.1094 233.602 69.8742C233.602 71.639 235.032 73.0696 236.796 73.0696Z" fill="#FBF173"/>
<path opacity="0.64" d="M303.73 187.206C305.494 187.206 306.924 185.776 306.924 184.011C306.924 182.246 305.494 180.815 303.73 180.815C301.966 180.815 300.536 182.246 300.536 184.011C300.536 185.776 301.966 187.206 303.73 187.206Z" fill="#FBB040"/>
<path d="M273.066 22.2102C274.83 22.2102 276.26 20.7796 276.26 19.0148C276.26 17.25 274.83 15.8193 273.066 15.8193C271.303 15.8193 269.873 17.25 269.873 19.0148C269.873 20.7796 271.303 22.2102 273.066 22.2102Z" fill="#FBB040"/>
<path d="M158.016 14.998L159.103 17.1942C159.128 17.247 159.165 17.2928 159.212 17.3273C159.258 17.3619 159.313 17.3842 159.37 17.3921L161.803 17.7483C161.87 17.7569 161.933 17.7844 161.985 17.8276C162.037 17.8708 162.075 17.9278 162.096 17.9922C162.117 18.0565 162.119 18.1254 162.102 18.1908C162.085 18.2562 162.05 18.3155 162.001 18.3616L160.24 20.0731C160.201 20.1167 160.171 20.1687 160.154 20.2251C160.137 20.2816 160.133 20.3412 160.142 20.3996L160.557 22.8135C160.569 22.8812 160.561 22.951 160.536 23.0147C160.51 23.0784 160.467 23.1336 160.411 23.1739C160.355 23.2142 160.289 23.2379 160.221 23.2424C160.152 23.2469 160.083 23.232 160.023 23.1993L157.857 22.0616C157.806 22.0321 157.748 22.0166 157.689 22.0166C157.63 22.0166 157.572 22.0321 157.521 22.0616L155.346 23.1993C155.286 23.2293 155.218 23.242 155.151 23.2362C155.084 23.2304 155.02 23.2062 154.966 23.1664C154.912 23.1265 154.87 23.0725 154.844 23.0102C154.819 22.948 154.811 22.8799 154.822 22.8135L155.237 20.3996C155.246 20.3404 155.241 20.28 155.222 20.2232C155.203 20.1664 155.171 20.1149 155.128 20.0731L153.378 18.3616C153.329 18.3155 153.293 18.2562 153.277 18.1908C153.26 18.1254 153.262 18.0565 153.282 17.9922C153.303 17.9278 153.342 17.8708 153.394 17.8276C153.446 17.7844 153.509 17.7569 153.576 17.7483L156.008 17.3921C156.066 17.3842 156.12 17.3619 156.167 17.3273C156.214 17.2928 156.251 17.247 156.275 17.1942L157.363 14.998C157.391 14.9344 157.436 14.8804 157.494 14.8424C157.552 14.8044 157.62 14.7842 157.689 14.7842C157.759 14.7842 157.826 14.8044 157.884 14.8424C157.942 14.8804 157.988 14.9344 158.016 14.998Z" fill="#F69281"/>
<path d="M212.75 128.214L213.838 130.41C213.862 130.463 213.9 130.509 213.946 130.543C213.993 130.578 214.048 130.6 214.105 130.608L216.538 130.964C216.605 130.973 216.668 131 216.72 131.043C216.772 131.087 216.81 131.144 216.831 131.208C216.852 131.272 216.854 131.341 216.837 131.407C216.82 131.472 216.785 131.531 216.735 131.577L214.975 133.289C214.936 133.333 214.906 133.384 214.889 133.441C214.872 133.497 214.868 133.557 214.876 133.615L215.292 136.029C215.304 136.097 215.296 136.167 215.27 136.231C215.245 136.294 215.201 136.349 215.146 136.39C215.09 136.43 215.024 136.454 214.955 136.458C214.887 136.463 214.818 136.448 214.758 136.415L212.592 135.277C212.541 135.248 212.483 135.232 212.424 135.232C212.365 135.232 212.307 135.248 212.256 135.277L210.081 136.415C210.02 136.445 209.953 136.458 209.886 136.452C209.819 136.446 209.755 136.422 209.701 136.382C209.647 136.342 209.605 136.288 209.579 136.226C209.554 136.164 209.546 136.096 209.557 136.029L209.972 133.615C209.981 133.556 209.976 133.496 209.957 133.439C209.938 133.382 209.906 133.331 209.863 133.289L208.113 131.577C208.064 131.531 208.028 131.472 208.011 131.407C207.994 131.341 207.996 131.272 208.017 131.208C208.038 131.144 208.077 131.087 208.128 131.043C208.18 131 208.244 130.973 208.311 130.964L210.743 130.608C210.801 130.6 210.855 130.578 210.902 130.543C210.949 130.509 210.986 130.463 211.01 130.41L212.098 128.214C212.126 128.15 212.171 128.096 212.229 128.058C212.287 128.02 212.355 128 212.424 128C212.493 128 212.561 128.02 212.619 128.058C212.677 128.096 212.723 128.15 212.75 128.214Z" fill="#F69281"/>
<path d="M235.98 168.254L237.579 171.382C237.612 171.459 237.666 171.525 237.735 171.575C237.804 171.624 237.886 171.655 237.971 171.664L241.547 172.171C241.646 172.186 241.738 172.228 241.813 172.291C241.889 172.354 241.945 172.436 241.975 172.528C242.005 172.62 242.008 172.718 241.984 172.812C241.96 172.906 241.909 172.991 241.838 173.059L239.25 175.496C239.191 175.555 239.147 175.627 239.122 175.705C239.097 175.783 239.091 175.866 239.105 175.947L239.716 179.4C239.73 179.495 239.717 179.592 239.677 179.681C239.638 179.77 239.574 179.846 239.493 179.901C239.412 179.957 239.316 179.989 239.217 179.995C239.117 180.001 239.018 179.98 238.931 179.935L235.747 178.315C235.672 178.273 235.587 178.251 235.5 178.251C235.413 178.251 235.328 178.273 235.253 178.315L232.055 179.935C231.968 179.982 231.869 180.005 231.77 179.999C231.67 179.994 231.575 179.961 231.494 179.905C231.413 179.849 231.35 179.771 231.313 179.682C231.276 179.592 231.266 179.495 231.284 179.4L231.895 175.947C231.91 175.865 231.903 175.781 231.875 175.702C231.847 175.623 231.799 175.552 231.735 175.496L229.162 173.129C229.091 173.062 229.04 172.976 229.016 172.883C228.992 172.789 228.995 172.691 229.025 172.598C229.055 172.506 229.111 172.424 229.187 172.361C229.262 172.298 229.354 172.257 229.453 172.241L233.029 171.734C233.114 171.726 233.196 171.695 233.265 171.645C233.334 171.596 233.388 171.529 233.421 171.452L235.02 168.324C235.058 168.234 235.121 168.157 235.202 168.1C235.282 168.043 235.378 168.009 235.478 168.001C235.577 167.994 235.677 168.014 235.766 168.058C235.854 168.103 235.928 168.171 235.98 168.254Z" fill="#FBF173"/>
<path opacity="0.33" d="M74.2417 86.5343L76.4369 90.4916C76.4881 90.5887 76.563 90.6714 76.6546 90.7319C76.7462 90.7924 76.8516 90.8289 76.961 90.8378L81.4701 91.283C81.5967 91.294 81.7175 91.3407 81.8187 91.4176C81.9198 91.4945 81.9971 91.5985 82.0416 91.7176C82.0861 91.8366 82.096 91.9659 82.0701 92.0903C82.0442 92.2147 81.9836 92.3293 81.8953 92.4207L78.8003 95.7349C78.7231 95.8128 78.6672 95.9091 78.6378 96.0147C78.6084 96.1204 78.6064 96.2318 78.6322 96.3383L79.621 100.77C79.6547 100.899 79.6495 101.035 79.6062 101.16C79.5628 101.286 79.4832 101.396 79.3774 101.477C79.2716 101.557 79.1443 101.604 79.0117 101.612C78.8791 101.621 78.747 101.589 78.6322 101.522L74.5285 99.5437C74.4302 99.4949 74.3219 99.4695 74.2121 99.4695C74.1023 99.4695 73.994 99.4949 73.8956 99.5437L69.9403 101.839C69.8326 101.897 69.7109 101.925 69.5885 101.919C69.4661 101.914 69.3476 101.874 69.2458 101.806C69.144 101.738 69.0628 101.643 69.0109 101.532C68.959 101.421 68.9385 101.298 68.9515 101.176L69.5151 96.6648C69.5303 96.5571 69.5184 96.4473 69.4804 96.3453C69.4424 96.2434 69.3796 96.1526 69.2976 96.0811L65.9059 93.1132C65.8269 93.0264 65.7721 92.9204 65.7468 92.8058C65.7215 92.6912 65.7266 92.572 65.7616 92.46C65.7966 92.348 65.8602 92.2471 65.9462 92.1673C66.0323 92.0875 66.1377 92.0316 66.252 92.0052L70.7017 91.1544C70.8096 91.1325 70.9108 91.0852 70.9968 91.0164C71.0828 90.9476 71.1511 90.8592 71.1961 90.7587L73.0156 86.6036C73.0617 86.4821 73.1421 86.3766 73.2469 86.2998C73.3517 86.2231 73.4765 86.1783 73.6062 86.171C73.7359 86.1637 73.8649 86.1941 73.9777 86.2586C74.0905 86.323 74.1822 86.4188 74.2417 86.5343Z" fill="#FBF173"/>
<path opacity="0.33" d="M313.401 26.9385L315.586 30.8957C315.639 30.9917 315.714 31.0735 315.805 31.1338C315.897 31.1942 316.001 31.2313 316.11 31.242L320.629 31.6872C320.754 31.7017 320.872 31.7504 320.971 31.8279C321.07 31.9053 321.145 32.0085 321.189 32.1261C321.233 32.2437 321.244 32.3711 321.22 32.4944C321.196 32.6177 321.139 32.732 321.054 32.8249L317.95 36.139C317.875 36.2184 317.82 36.3148 317.791 36.42C317.762 36.5251 317.758 36.6358 317.781 36.7425L318.77 41.1746C318.804 41.3032 318.799 41.4389 318.755 41.5646C318.712 41.6903 318.632 41.8003 318.527 41.8807C318.421 41.9612 318.294 42.0084 318.161 42.0166C318.028 42.0247 317.896 41.9934 317.781 41.9264L313.668 39.9973C313.571 39.9486 313.465 39.9232 313.356 39.9232C313.248 39.9232 313.142 39.9486 313.045 39.9973L309.09 42.2925C308.982 42.3509 308.86 42.3787 308.738 42.3729C308.615 42.3672 308.497 42.3281 308.395 42.2598C308.293 42.1916 308.212 42.0968 308.16 41.9858C308.108 41.8747 308.088 41.7516 308.101 41.6297L308.664 37.1184C308.677 37.0271 308.67 36.9341 308.644 36.8456C308.619 36.757 308.575 36.6747 308.516 36.604L305.134 33.6361C305.039 33.5531 304.97 33.4451 304.933 33.3244C304.897 33.2037 304.895 33.0751 304.928 32.9534C304.961 32.8317 305.027 32.7217 305.12 32.636C305.212 32.5503 305.327 32.4923 305.451 32.4687L309.91 31.608C310.016 31.588 310.116 31.5425 310.2 31.4752C310.285 31.408 310.352 31.3211 310.395 31.2222L312.224 27.0671C312.27 26.9546 312.345 26.8566 312.442 26.7834C312.539 26.7102 312.654 26.6646 312.774 26.6514C312.895 26.6383 313.017 26.658 313.127 26.7085C313.237 26.7591 313.332 26.8385 313.401 26.9385Z" fill="#FBB040"/>
<path d="M20.5974 199.077L22.1104 201.818C22.147 201.883 22.1983 201.938 22.2601 201.979C22.3219 202.02 22.3926 202.046 22.4663 202.055L25.5812 202.362C25.6679 202.37 25.7507 202.402 25.8201 202.455C25.8896 202.507 25.9428 202.578 25.9737 202.66C26.0046 202.741 26.012 202.83 25.9951 202.915C25.9781 203.001 25.9375 203.08 25.8778 203.143L23.7321 205.429C23.6819 205.484 23.6458 205.551 23.6268 205.623C23.6079 205.696 23.6067 205.771 23.6233 205.844L24.2858 208.911C24.3074 208.996 24.3038 209.086 24.2755 209.169C24.2472 209.253 24.1954 209.326 24.1263 209.38C24.0573 209.435 23.974 209.468 23.8865 209.476C23.7989 209.484 23.711 209.466 23.6332 209.426L20.7656 208.1C20.6988 208.064 20.624 208.044 20.548 208.044C20.472 208.044 20.3972 208.064 20.3305 208.1L17.6705 209.732C17.5946 209.774 17.5085 209.795 17.4218 209.791C17.335 209.788 17.2509 209.761 17.1785 209.713C17.1061 209.665 17.0482 209.598 17.0112 209.519C16.9741 209.441 16.9594 209.354 16.9684 209.267L17.364 206.161C17.3736 206.085 17.3641 206.009 17.3365 205.938C17.3089 205.867 17.2639 205.804 17.2057 205.755L14.8325 203.648C14.7692 203.589 14.7231 203.514 14.6992 203.431C14.6753 203.348 14.6745 203.26 14.6969 203.177C14.7193 203.093 14.764 203.018 14.8262 202.958C14.8885 202.898 14.9659 202.856 15.0501 202.837L18.1254 202.253C18.2001 202.239 18.27 202.206 18.3288 202.158C18.3875 202.109 18.4332 202.047 18.4616 201.976L19.7273 199.107C19.7574 199.017 19.8142 198.939 19.8901 198.882C19.966 198.826 20.0574 198.794 20.1521 198.79C20.2467 198.787 20.3401 198.813 20.4197 198.864C20.4993 198.915 20.5613 198.99 20.5974 199.077Z" fill="#FBF173"/>
<path d="M21.325 22.2789L23.4724 26.0607C23.5228 26.1541 23.597 26.2333 23.6879 26.2907C23.7789 26.3481 23.8835 26.3817 23.9917 26.3884L28.4127 26.8116C28.5347 26.8247 28.6504 26.8707 28.7471 26.9443C28.8437 27.0179 28.9172 27.1162 28.9595 27.2283C29.0018 27.3404 29.0111 27.4617 28.9864 27.5786C28.9617 27.6955 28.904 27.8034 28.8197 27.8902L25.7881 31.0849C25.7133 31.1622 25.6588 31.256 25.6295 31.3582C25.6002 31.4605 25.5968 31.5682 25.6197 31.672L26.5741 35.8907C26.5987 36.0073 26.5895 36.1282 26.5475 36.24C26.5054 36.3518 26.4323 36.45 26.3362 36.5237C26.24 36.5974 26.1248 36.6436 26.0032 36.6572C25.8816 36.6707 25.7586 36.6512 25.6478 36.6006L21.6198 34.7302C21.5276 34.68 21.4237 34.6536 21.318 34.6536C21.2124 34.6536 21.1085 34.68 21.0163 34.7302L17.1707 36.9146C17.0639 36.9743 16.9421 37.0037 16.819 36.9996C16.696 36.9954 16.5766 36.9578 16.4743 36.891C16.3721 36.8242 16.2911 36.7309 16.2406 36.6217C16.19 36.5125 16.1719 36.3917 16.1883 36.2729L16.7356 31.986C16.7448 31.8887 16.732 31.7906 16.6981 31.6986C16.6641 31.6066 16.6099 31.5229 16.5391 31.4535L13.2128 28.5865C13.1229 28.5045 13.0578 28.4 13.0247 28.2845C12.9916 28.169 12.9917 28.0469 13.025 27.9314C13.0583 27.816 13.1235 27.7116 13.2135 27.6297C13.3036 27.5478 13.415 27.4915 13.5356 27.467L17.9426 26.6614C18.0468 26.6419 18.1445 26.5981 18.2276 26.5339C18.3107 26.4698 18.3766 26.3871 18.4198 26.2928L20.2022 22.3335C20.2564 22.2373 20.335 22.1562 20.4305 22.0979C20.526 22.0397 20.6353 22.0062 20.7479 22.0007C20.8606 21.9953 20.9727 22.018 21.0738 22.0667C21.1748 22.1154 21.2613 22.1884 21.325 22.2789Z" fill="#FBF173"/>
<path d="M296.986 80.4504L298.855 83.8537C298.899 83.9361 298.963 84.0064 299.04 84.0582C299.118 84.11 299.207 84.1417 299.3 84.1504L303.167 84.5363C303.279 84.5419 303.387 84.5804 303.477 84.6468C303.568 84.7133 303.637 84.8049 303.676 84.9102C303.715 85.0155 303.722 85.13 303.696 85.2394C303.671 85.3488 303.614 85.4483 303.532 85.5256L300.873 88.355C300.81 88.4236 300.765 88.506 300.741 88.5955C300.717 88.6849 300.715 88.7788 300.734 88.8694L301.565 92.6683C301.589 92.7739 301.582 92.8841 301.547 92.9862C301.511 93.0883 301.447 93.1782 301.362 93.2454C301.277 93.3127 301.175 93.3546 301.067 93.3662C300.96 93.3779 300.851 93.3589 300.754 93.3114L297.244 91.6692C297.16 91.6233 297.067 91.5992 296.972 91.5992C296.876 91.5992 296.783 91.6233 296.7 91.6692L293.347 93.6478C293.255 93.7021 293.15 93.7295 293.043 93.7269C292.936 93.7244 292.832 93.6919 292.742 93.6333C292.653 93.5746 292.581 93.4921 292.536 93.395C292.491 93.2979 292.474 93.1901 292.487 93.0839L292.972 89.2256C292.982 89.1327 292.97 89.0387 292.937 88.9512C292.905 88.8636 292.852 88.7848 292.784 88.721L289.887 86.1389C289.807 86.068 289.75 85.9766 289.719 85.8747C289.689 85.7729 289.688 85.6646 289.716 85.5621C289.743 85.4595 289.799 85.3666 289.876 85.2938C289.954 85.221 290.05 85.1711 290.154 85.1496L293.97 84.4176C294.063 84.4029 294.15 84.3641 294.223 84.3051C294.296 84.246 294.352 84.1688 294.386 84.0812L295.948 80.5296C295.989 80.4298 296.057 80.3435 296.145 80.2801C296.232 80.2167 296.335 80.1788 296.443 80.1706C296.551 80.1624 296.658 80.1842 296.754 80.2336C296.85 80.283 296.931 80.3581 296.986 80.4504Z" fill="#FBF173"/>
<path d="M291.123 212.918L292.359 215.154C292.387 215.208 292.428 215.254 292.478 215.288C292.528 215.323 292.585 215.345 292.645 215.352L295.187 215.609C295.258 215.614 295.326 215.639 295.383 215.681C295.441 215.724 295.485 215.781 295.511 215.848C295.537 215.914 295.543 215.986 295.53 216.056C295.516 216.126 295.483 216.191 295.434 216.242L293.684 218.102C293.642 218.149 293.611 218.204 293.594 218.264C293.577 218.324 293.574 218.387 293.585 218.449L294.139 220.942C294.152 221.011 294.146 221.082 294.121 221.148C294.097 221.214 294.055 221.272 294 221.316C293.945 221.359 293.879 221.387 293.809 221.396C293.74 221.405 293.669 221.395 293.605 221.367L291.291 220.279C291.235 220.252 291.174 220.239 291.113 220.239C291.051 220.239 290.99 220.252 290.935 220.279L288.739 221.604C288.679 221.641 288.609 221.659 288.538 221.657C288.467 221.655 288.398 221.633 288.339 221.594C288.281 221.555 288.234 221.499 288.205 221.435C288.176 221.37 288.166 221.299 288.176 221.229L288.492 218.696C288.501 218.636 288.495 218.575 288.474 218.518C288.453 218.461 288.419 218.41 288.374 218.369L286.455 216.658C286.402 216.612 286.363 216.551 286.343 216.483C286.322 216.416 286.321 216.344 286.34 216.276C286.358 216.208 286.396 216.146 286.448 216.098C286.499 216.05 286.564 216.018 286.633 216.005L289.145 215.52C289.204 215.507 289.26 215.481 289.308 215.443C289.356 215.405 289.395 215.357 289.422 215.303L290.411 212.958C290.436 212.886 290.482 212.823 290.543 212.777C290.604 212.731 290.677 212.704 290.753 212.7C290.83 212.696 290.905 212.714 290.971 212.753C291.037 212.792 291.09 212.849 291.123 212.918Z" fill="#FBB040"/>
</g>
<defs>
<clipPath id="clip0">
<rect width="325" height="308" fill="white"/>
</clipPath>
</defs>
</svg>
