<?xml version="1.0" encoding="iso-8859-1"?>
<!-- Generator: Adobe Illustrator 19.0.0, SVG Export Plug-In . SVG Version: 6.00 Build 0)  -->
<svg version="1.1" id="Layer_1" xmlns="http://www.w3.org/2000/svg" xmlns:xlink="http://www.w3.org/1999/xlink" x="0px" y="0px"
	 viewBox="0 0 512.001 512.001" style="enable-background:new 0 0 512.001 512.001;" xml:space="preserve">
<path style="fill:#EB86BF;" d="M512.001,256.006c0,141.395-114.606,255.998-255.996,255.994
	C114.606,512.004,0.001,397.402,0.001,256.006C-0.007,114.61,114.606,0,256.005,0C397.395,0,512.001,114.614,512.001,256.006z"/>
<path style="fill:#D670AD;" d="M512.001,256.005c0-26.591-4.06-52.234-11.582-76.347c-0.454-0.633-82.582-82.766-83.222-83.222
	c-1.281-1.797-3.28-3.045-5.658-3.045h-70.7c-3.907,0-7.07,3.166-7.07,7.07c0,2.375,1.247,4.374,3.044,5.657
	c0.457,0.641,29.459,29.505,29.505,29.566l-72.898,72.898c-0.761,0.761-114.332-110.055-114.972-110.513
	c-0.457-0.641-0.992-1.175-1.632-1.632c-1.281-1.797-3.279-3.045-5.657-3.045h-70.698c-3.908,0-7.07,3.166-7.07,7.07v70.7
	c0,2.375,1.247,4.374,3.045,5.657c0.457,0.641,114.548,114.777,114.753,114.998c-0.948,0.341-1.847,0.845-2.607,1.605
	l-72.898,72.898c-0.06-0.046-0.125-0.083-0.187-0.126c-0.457-0.641-28.738-28.922-29.379-29.379
	c-1.281-1.797-3.279-3.045-5.657-3.045c-3.908,0-7.07,3.166-7.07,7.07v70.7c0,2.375,1.247,4.374,3.045,5.657
	c0.457,0.641,80.965,81.149,81.606,81.606c0.454,0.637,0.988,1.167,1.623,1.623c24.11,7.52,49.749,11.577,76.338,11.577
	C397.395,512.004,512.001,397.401,512.001,256.005z"/>
<g>
	<path style="fill:#F4F6F9;" d="M208.582,293.421L107.531,394.471V340.84c0-3.904-3.163-7.07-7.07-7.07s-7.07,3.166-7.07,7.07v70.7
		c0,3.904,3.163,7.07,7.07,7.07h70.7c3.908,0,7.07-3.166,7.07-7.07s-3.162-7.07-7.07-7.07h-53.632L218.58,303.419
		c2.762-2.762,2.762-7.235,0-9.997C215.818,290.659,211.343,290.659,208.582,293.421z"/>
	<path style="fill:#F4F6F9;" d="M411.539,93.392h-70.7c-3.908,0-7.07,3.166-7.07,7.07c0,3.904,3.163,7.07,7.07,7.07h53.632
		L293.42,208.582c-2.762,2.762-2.762,7.235,0,9.997c1.381,1.381,3.189,2.071,4.998,2.071s3.618-0.69,4.998-2.071l101.051-101.051
		v53.632c0,3.904,3.163,7.07,7.07,7.07c3.908,0,7.07-3.166,7.07-7.07v-70.699C418.609,96.557,415.447,93.392,411.539,93.392z"/>
	<path style="fill:#F4F6F9;" d="M117.529,107.532h53.632c3.908,0,7.07-3.166,7.07-7.07s-3.162-7.07-7.07-7.07h-70.699
		c-3.908,0-7.07,3.166-7.07,7.07v70.7c0,3.904,3.163,7.07,7.07,7.07c3.907,0,7.07-3.166,7.07-7.07V117.53L208.583,218.58
		c1.381,1.381,3.189,2.071,4.998,2.071s3.618-0.69,4.998-2.071c2.762-2.762,2.762-7.235,0-9.997L117.529,107.532z"/>
	<path style="fill:#F4F6F9;" d="M411.539,333.77c-3.908,0-7.07,3.166-7.07,7.07v53.632L303.418,293.421
		c-2.762-2.762-7.235-2.762-9.997,0c-2.762,2.762-2.762,7.235,0,9.997l101.051,101.051H340.84c-3.908,0-7.07,3.166-7.07,7.07
		c0,3.904,3.163,7.07,7.07,7.07h70.7c3.908,0,7.07-3.166,7.07-7.07v-70.7C418.609,336.934,415.447,333.77,411.539,333.77z"/>
</g>
<g>
</g>
<g>
</g>
<g>
</g>
<g>
</g>
<g>
</g>
<g>
</g>
<g>
</g>
<g>
</g>
<g>
</g>
<g>
</g>
<g>
</g>
<g>
</g>
<g>
</g>
<g>
</g>
<g>
</g>
</svg>
