<svg width="105" height="98" viewBox="0 0 105 98" fill="none" xmlns="http://www.w3.org/2000/svg">
<path d="M52.2317 89.8959L38.2188 97.8289L30.7191 83.5795L14.6425 82.6769L16.0371 66.6354L3 57.1841L12.8465 44.443L6.98788 29.4436L22.1605 24.0481L25.3412 8.26285L41.0211 11.9265L52.2317 0.367188L63.4424 11.9265L79.1223 8.26285L82.303 24.0481L97.4756 29.4436L91.6169 44.443L101.463 57.1841L88.4263 66.6354L89.821 82.6769L73.7443 83.5795L66.2446 97.8289L52.2317 89.8959Z" fill="url(#paint0_linear)"/>
<path d="M34.3316 30.7645C33.4985 30.7645 32.8225 30.0885 32.8225 29.2554V26.0152C32.8225 25.182 33.4985 24.5068 34.3316 24.5068C35.1647 24.5068 35.8407 25.182 35.8407 26.0152V29.2554C35.8407 30.0885 35.1647 30.7645 34.3316 30.7645Z" fill="#333333"/>
<path d="M70.1318 30.7645C69.2986 30.7645 68.6227 30.0885 68.6227 29.2554V26.0152C68.6227 25.182 69.2986 24.5068 70.1318 24.5068C70.9649 24.5068 71.6409 25.182 71.6409 26.0152V29.2554C71.6409 30.0885 70.9649 30.7645 70.1318 30.7645Z" fill="#333333"/>
<path d="M52.2316 32.4932C50.0741 32.4932 48.05 31.5929 46.6774 30.0228C46.1289 29.3949 46.193 28.442 46.8209 27.8935C47.448 27.3449 48.4017 27.409 48.9502 28.0361C49.749 28.9509 50.9453 29.475 52.2316 29.475C53.5187 29.475 54.7143 28.9509 55.5138 28.0361C56.0624 27.409 57.016 27.3449 57.6432 27.8935C58.2703 28.442 58.3344 29.3949 57.7858 30.0228C56.4133 31.5929 54.3892 32.4932 52.2316 32.4932Z" fill="#333333"/>
<path d="M40.1816 51.9097C40.8134 50.9704 41.1824 49.8405 41.1824 48.6259C41.1824 45.374 38.5367 42.7282 35.2848 42.7282H31.8687C31.9364 42.3569 31.9718 41.9743 31.9718 41.5837C31.9718 38.711 29.9259 36.2227 27.1073 35.6678L20.8337 34.4321C17.4096 33.7567 13.8269 34.7603 11.2506 37.1154L5.11036 42.7284H2.61397C1.1704 42.7284 0 43.8988 0 45.3423V71.611C0 73.0545 1.1704 74.2249 2.61397 74.2249H33.5423C36.7942 74.2249 39.4398 71.5793 39.4398 68.3272C39.4398 67.6067 39.31 66.9161 39.0725 66.2773C40.3617 65.1947 41.1825 63.5716 41.1825 61.7601C41.1825 60.5456 40.8134 59.4157 40.1818 58.4765C40.8136 57.5372 41.1825 56.4073 41.1825 55.1927C41.1825 53.9788 40.8134 52.8489 40.1816 51.9097Z" fill="#FFD5C0"/>
<path d="M101.951 42.728H99.4547L93.3147 37.1152C90.7385 34.7603 87.1557 33.7569 83.7317 34.4319L77.458 35.6675C74.6392 36.2227 72.5935 38.7107 72.5935 41.5836C72.5935 41.9742 72.6289 42.3569 72.6965 42.728H69.2803C66.0284 42.728 63.3826 45.3737 63.3826 48.6258C63.3826 49.8404 63.7515 50.9701 64.3833 51.9095C63.7514 52.8486 63.3826 53.9786 63.3826 55.1931C63.3826 56.4077 63.7515 57.5374 64.3833 58.4768C63.7514 59.4159 63.3826 60.546 63.3826 61.7604C63.3826 63.572 64.2034 65.1951 65.4926 66.2777C65.2551 66.9165 65.1253 67.6071 65.1253 68.3276C65.1253 71.5795 67.7709 74.2253 71.023 74.2253H101.951C103.395 74.2253 104.565 73.0549 104.565 71.6113V45.342C104.565 43.8984 103.395 42.728 101.951 42.728Z" fill="#FFDFCF"/>
<path d="M35.285 42.7289H31.8689C31.9366 42.3576 31.972 41.975 31.972 41.5845C31.972 38.7117 29.9261 36.2234 27.1075 35.6685L20.8339 34.4328C20.7532 34.4169 20.6721 34.4065 20.5916 34.3926V74.2257H33.5426C36.7946 74.2257 39.4402 71.58 39.4402 68.3279C39.4402 67.6074 39.3104 66.9169 39.0729 66.2781C40.362 65.1954 41.1829 63.5723 41.1829 61.7608C41.1829 60.5463 40.8138 59.4165 40.1822 58.4772C40.8139 57.5379 41.1829 56.4081 41.1829 55.1935C41.1829 53.979 40.8138 52.8491 40.1822 51.9099C40.8139 50.9706 41.1829 49.8407 41.1829 48.6261C41.1826 45.3745 38.5368 42.7289 35.285 42.7289Z" fill="#FFDFCF"/>
<path d="M101.951 42.7278H99.4546L93.3145 37.115C90.7988 34.8156 87.3238 33.8093 83.9738 34.3913V74.2244H101.951C103.395 74.2244 104.565 73.054 104.565 71.6104V45.3418C104.565 43.8982 103.395 42.7278 101.951 42.7278Z" fill="#FFD5C0"/>
<defs>
<linearGradient id="paint0_linear" x1="3" y1="0.367185" x2="0.221059" y2="94.8512" gradientUnits="userSpaceOnUse">
<stop stop-color="#FEB65A"/>
<stop offset="1" stop-color="#F36580"/>
</linearGradient>
</defs>
</svg>
