<svg width="15" height="16" viewBox="0 0 15 16" fill="none" xmlns="http://www.w3.org/2000/svg">
<path d="M7.5 11.6631C9.35739 11.6631 10.8631 10.1574 10.8631 8.29999C10.8631 6.4426 9.35739 4.93689 7.5 4.93689C5.64261 4.93689 4.1369 6.4426 4.1369 8.29999C4.1369 10.1574 5.64261 11.6631 7.5 11.6631Z" fill="#333333"/>
<path d="M11.0506 0.799988H3.95238C1.77083 0.799988 0 2.57082 0 4.75237V11.8476C0 14.0292 1.77083 15.8 3.95238 15.8H11.0476C13.2292 15.8 15 14.0292 15 11.8506V4.75237C15 2.57082 13.2292 0.799988 11.0506 0.799988ZM7.5 12.8536C4.9881 12.8536 2.94643 10.8119 2.94643 8.29999C2.94643 5.78808 4.9881 3.74642 7.5 3.74642C10.0119 3.74642 12.0536 5.78808 12.0536 8.29999C12.0536 10.8119 10.0119 12.8536 7.5 12.8536ZM12.1131 4.4488C11.6845 4.4488 11.3393 4.10356 11.3393 3.67499C11.3393 3.24642 11.6845 2.90118 12.1131 2.90118C12.5417 2.90118 12.8869 3.24642 12.8869 3.67499C12.8869 4.10356 12.5417 4.4488 12.1131 4.4488Z" fill="#333333"/>
</svg>
