<svg width="220" height="220" viewBox="0 0 220 220" fill="none" xmlns="http://www.w3.org/2000/svg">
<g clip-path="url(#clip0)">
<path d="M146.736 146.735L167.611 115.103L146.736 109.725C144.002 101.521 139.352 93.7724 132.789 87.2094C126.316 80.737 118.66 75.9967 110.273 73.2621L110 73.5358L84.5672 72.533L73.2634 73.2621C64.8772 75.9967 57.2201 80.737 50.7478 87.2094L16.9546 121.003C-5.65217 143.609 -5.65217 180.351 16.9546 202.958C40.1994 226.203 76.9359 225.018 98.9957 202.958L132.789 169.25C139.353 162.687 144.002 154.939 146.736 146.735ZM76.2067 180.168C65.9969 190.378 49.6804 190.104 39.7439 180.168C29.7167 170.141 29.7167 153.732 39.7439 143.705L73.2634 110.272L91.5861 128.412L110 146.461L76.2067 180.168Z" fill="url(#paint0_linear)"/>
<path opacity="0.2" d="M132.789 169.25L98.9962 202.957C76.936 225.017 40.1999 226.202 16.9551 202.957L39.744 180.168C49.6805 190.105 65.997 190.378 76.2068 180.168L110 146.461L91.5866 128.412L132.789 87.209C139.352 93.772 144.002 101.521 146.737 109.725L167.611 115.103L146.737 146.734C144.002 154.939 139.353 162.687 132.789 169.25Z" fill="black"/>
<path d="M178.368 187.482L169.252 178.366C166.732 175.847 166.732 171.769 169.252 169.25C171.771 166.731 175.848 166.731 178.368 169.25L187.483 178.366C190.003 180.885 190.003 184.963 187.483 187.482C184.964 190.001 180.887 190.001 178.368 187.482Z" fill="#FEEDD9"/>
<path d="M41.6322 50.7465L32.5159 41.6307C29.9967 39.1114 29.9967 35.0341 32.5159 32.5153C35.0352 29.9964 39.1125 29.996 41.6313 32.5153L50.7467 41.6307C53.2659 44.1499 53.2659 48.2272 50.7467 50.746C48.2274 53.2649 44.151 53.2653 41.6322 50.7465Z" fill="#FEEDD9"/>
<path d="M190.937 131.684C191.859 128.243 195.393 126.204 198.833 127.126L211.287 130.464C214.728 131.368 216.758 134.919 215.846 138.36C214.924 141.801 211.39 143.839 207.95 142.918L195.496 139.58C192.077 138.665 190.015 135.145 190.937 131.684Z" fill="#FEEDD9"/>
<path d="M4.15483 81.6364C5.07608 78.1955 8.61026 76.157 12.0508 77.0783L24.5048 80.4169C27.9325 81.3158 29.9795 84.8681 29.063 88.3129C28.1417 91.7538 24.6075 93.7923 21.167 92.871L8.71296 89.5323C5.2948 88.6175 3.2323 85.0975 4.15483 81.6364Z" fill="#FEEDD9"/>
<path d="M130.466 211.286L127.127 198.832C126.206 195.391 128.244 191.857 131.685 190.936C135.126 190.014 138.656 192.039 139.581 195.494L142.919 207.948C143.841 211.389 141.802 214.922 138.361 215.844C134.901 216.766 131.381 214.704 130.466 211.286Z" fill="#FEEDD9"/>
<path d="M80.4179 24.5035L77.0792 12.0494C76.158 8.60845 78.1964 5.0747 81.6374 4.15345C85.0783 3.24123 88.6164 5.25732 89.5333 8.71158L92.872 21.1656C93.7932 24.6066 91.7548 28.1403 88.3139 29.0616C84.8532 29.9828 81.3331 27.9208 80.4179 24.5035Z" fill="#FEEDD9"/>
<path d="M203.045 17.0394C180.438 -5.56729 143.701 -5.65882 121.003 17.0394L87.2102 50.7467C80.6472 57.3097 75.998 65.0579 73.263 73.2623C69.2519 85.2953 69.2523 98.2392 73.2634 110.272C75.998 118.476 80.6472 126.225 87.2102 132.788C93.5915 139.169 101.249 143.909 109.726 146.735L110 146.462C120.027 136.434 120.027 120.026 110 109.999C99.9724 99.9717 99.9724 83.5632 110 73.536L143.793 39.8288C148.716 34.9058 155.097 32.3539 162.025 32.3539C162.207 32.1722 163.756 32.2628 164.121 32.445C169.044 32.4446 175.515 35.088 180.256 39.8288C190.283 49.856 190.283 66.264 180.256 76.2916L146.737 109.725C150.748 121.758 150.748 134.702 146.737 146.735C155.031 143.909 162.871 139.169 169.252 132.788L203.045 99.0805C225.652 76.4734 225.651 39.6461 203.045 17.0394Z" fill="url(#paint1_linear)"/>
<path opacity="0.12" d="M110 146.461L109.727 146.734C101.25 143.908 93.5918 139.168 87.2109 132.787L110 109.998C120.027 120.025 120.028 136.433 110 146.461Z" fill="black"/>
<path opacity="0.12" d="M203.045 99.0809L169.251 132.788C162.871 139.169 155.031 143.91 146.736 146.735C150.747 134.702 150.747 121.758 146.736 109.725L180.255 76.292C190.283 66.2644 190.282 49.8563 180.255 39.8291L203.044 17.0398C225.651 39.6461 225.652 76.4733 203.045 99.0809Z" fill="black"/>
</g>
<defs>
<linearGradient id="paint0_linear" x1="27" y1="42" x2="-3.59891" y2="209.415" gradientUnits="userSpaceOnUse">
<stop stop-color="#985ADD"/>
<stop offset="1" stop-color="#F36580"/>
</linearGradient>
<linearGradient id="paint1_linear" x1="199.5" y1="-57.5" x2="125.383" y2="-40.5216" gradientUnits="userSpaceOnUse">
<stop offset="0.0785723" stop-color="#FF687B"/>
<stop offset="0.984375" stop-color="#FEB052"/>
</linearGradient>
<clipPath id="clip0">
<rect width="220" height="220" fill="white"/>
</clipPath>
</defs>
</svg>
