<svg width="26" height="26" viewBox="0 0 26 26" fill="none" xmlns="http://www.w3.org/2000/svg">
<g clip-path="url(#clip0)">
<path d="M12.9769 20.6465C18.6783 20.6465 23.3001 16.0246 23.3001 10.3232C23.3001 4.62187 18.6783 0 12.9769 0C7.27555 0 2.65369 4.62187 2.65369 10.3232C2.65369 16.0246 7.27555 20.6465 12.9769 20.6465Z" fill="#FFD15C"/>
<path d="M4.61398 16.3626L1.06201 22.5197L5.20768 22.2996L7.09115 26L10.377 20.3036C8.02264 19.6945 6.00099 18.2768 4.61398 16.3626Z" fill="#4F4F4F"/>
<path d="M21.3604 16.3319C19.9837 18.2512 17.962 19.674 15.6128 20.2933L18.9089 26L20.7923 22.2996L24.938 22.5197L21.3604 16.3319Z" fill="#4F4F4F"/>
<path d="M12.9769 17.8059C17.1095 17.8059 20.4596 14.4558 20.4596 10.3232C20.4596 6.19066 17.1095 2.84055 12.9769 2.84055C8.84437 2.84055 5.49426 6.19066 5.49426 10.3232C5.49426 14.4558 8.84437 17.8059 12.9769 17.8059Z" fill="#FBB52C"/>
<path d="M18.1053 9.51457C18.3356 9.28937 18.2077 8.89528 17.8903 8.84922L14.9372 8.41929C14.8092 8.39882 14.7018 8.32205 14.6455 8.20433L13.325 5.52756C13.1817 5.23583 12.7671 5.23583 12.6238 5.52756L11.3085 8.20433C11.2522 8.31693 11.1396 8.39882 11.0167 8.41929L8.06357 8.84922C7.74625 8.89528 7.6183 9.28937 7.84861 9.51457L9.98286 11.5976C10.075 11.6898 10.1159 11.8177 10.0955 11.9406L9.59388 14.8784C9.53759 15.1957 9.87538 15.4413 10.162 15.2878L12.8029 13.9008C12.9155 13.8394 13.0537 13.8394 13.1663 13.9008L15.8073 15.2878C16.0939 15.4362 16.4266 15.1957 16.3754 14.8784L15.8687 11.9406C15.8482 11.8126 15.8892 11.6846 15.9813 11.5976L18.1053 9.51457Z" fill="white"/>
</g>
<defs>
<clipPath id="clip0">
<rect width="26" height="26" fill="white"/>
</clipPath>
</defs>
</svg>
