<svg width="320" height="455" viewBox="0 0 320 455" fill="none" xmlns="http://www.w3.org/2000/svg">
<g clip-path="url(#clip0)">
<path d="M65.405 32.6205C68.4469 32.6205 70.9128 30.1534 70.9128 27.11C70.9128 24.0667 68.4469 21.5996 65.405 21.5996C62.3631 21.5996 59.8972 24.0667 59.8972 27.11C59.8972 30.1534 62.3631 32.6205 65.405 32.6205Z" fill="#FBB040"/>
<path d="M227.376 28.5238C230.418 28.5238 232.884 26.0567 232.884 23.0134C232.884 19.97 230.418 17.5029 227.376 17.5029C224.334 17.5029 221.868 19.97 221.868 23.0134C221.868 26.0567 224.334 28.5238 227.376 28.5238Z" fill="#FBB040"/>
<path d="M81.6219 104.513C83.9483 104.513 85.8343 102.626 85.8343 100.298C85.8343 97.9709 83.9483 96.084 81.6219 96.084C79.2954 96.084 77.4094 97.9709 77.4094 100.298C77.4094 102.626 79.2954 104.513 81.6219 104.513Z" fill="#FBF173"/>
<g opacity="0.33">
<path opacity="0.33" d="M11.6817 136.912C11.7413 134.926 12.4306 133.01 13.65 131.442C14.8693 129.873 16.5556 128.733 18.465 128.187L19.5627 131.995C18.4535 132.308 17.4724 132.965 16.7614 133.872C16.0503 134.779 15.6461 135.889 15.6073 137.041C15.5719 137.946 15.7694 138.845 16.1808 139.653L12.6408 141.433C11.9459 140.031 11.616 138.476 11.6817 136.912Z" fill="#F69281"/>
</g>
<g opacity="0.33">
<path opacity="0.33" d="M247.469 4.09859C246.955 2.1826 247.061 0.15303 247.772 -1.69895C248.482 -3.55093 249.761 -5.13012 251.424 -6.20996L253.57 -2.87601C252.609 -2.25622 251.869 -1.34832 251.455 -0.282175C251.041 0.783973 250.975 1.95375 251.266 3.05982C251.487 3.94057 251.934 4.7486 252.561 5.40447L249.674 8.12505C248.618 6.98568 247.86 5.60233 247.469 4.09859V4.09859Z" fill="#F69281"/>
</g>
<g opacity="0.33">
<path opacity="0.33" d="M181.445 23.241C181.86 22.3381 182.551 21.5902 183.418 21.105C184.285 20.6197 185.284 20.4219 186.27 20.5402L186.033 22.5188C185.638 22.4735 185.237 22.5151 184.86 22.6408C184.482 22.7665 184.137 22.9733 183.848 23.2466C183.559 23.5199 183.333 23.8532 183.186 24.2231C183.039 24.5929 182.974 24.9905 182.997 25.3878L181.019 25.5263C180.968 24.741 181.115 23.9554 181.445 23.241V23.241Z" fill="#F69281"/>
</g>
<g opacity="0.33">
<path opacity="0.33" d="M296.07 117.413C296.667 118.206 296.996 119.168 297.01 120.161C297.024 121.153 296.723 122.124 296.149 122.934L294.528 121.796C294.865 121.331 295.046 120.772 295.046 120.198C295.046 119.624 294.865 119.065 294.528 118.6C294.261 118.234 293.903 117.944 293.489 117.76L294.31 115.959C295.012 116.285 295.618 116.786 296.07 117.413V117.413Z" fill="#F69281"/>
</g>
<g opacity="0.33">
<path opacity="0.33" d="M281.267 28.0099C281.862 28.8056 282.19 29.7689 282.204 30.7622C282.218 31.7555 281.918 32.7278 281.346 33.5402L279.725 32.3926C279.954 32.0663 280.109 31.6935 280.178 31.3007C280.248 30.9079 280.23 30.5046 280.126 30.1195C280.022 29.7344 279.835 29.3768 279.578 29.072C279.32 28.7673 278.999 28.5229 278.637 28.3562L279.468 26.5557C280.176 26.8879 280.794 27.3869 281.267 28.0099Z" fill="#F69281"/>
</g>
<g opacity="0.46">
<path opacity="0.46" d="M256.794 244.994C257.685 246.188 258.177 247.634 258.198 249.125C258.219 250.615 257.769 252.075 256.912 253.294L254.48 251.573C254.823 251.083 255.054 250.524 255.158 249.935C255.261 249.346 255.234 248.741 255.079 248.164C254.923 247.586 254.643 247.05 254.257 246.593C253.872 246.136 253.391 245.769 252.848 245.518L254.094 242.817C255.161 243.307 256.089 244.055 256.794 244.994V244.994Z" fill="#F69281"/>
</g>
<path d="M275.512 293.47C275.962 292.578 276.683 291.852 277.571 291.396C278.46 290.941 279.471 290.78 280.457 290.938L280.15 292.916C279.584 292.826 279.004 292.918 278.494 293.179C277.983 293.441 277.57 293.858 277.312 294.37C277.107 294.775 277.005 295.223 277.015 295.676L275.038 295.736C275.006 294.953 275.169 294.174 275.512 293.47Z" fill="#F69281"/>
<path d="M61.6474 260.991C60.6587 260.898 59.725 260.493 58.9806 259.835C58.2362 259.178 57.7193 258.301 57.5042 257.331L59.4818 256.896C59.6036 257.457 59.9014 257.965 60.3317 258.346C60.7621 258.727 61.3027 258.96 61.8748 259.013C62.3229 259.062 62.7761 258.994 63.19 258.815L63.9711 260.635C63.2388 260.947 62.4396 261.07 61.6474 260.991V260.991Z" fill="#F69281"/>
<path d="M103.757 96.1297C102.945 94.7405 102.591 93.1312 102.748 91.5355C102.904 89.9397 103.562 88.4405 104.626 87.2555L107.015 89.4109C106.397 90.0936 106.013 90.9596 105.921 91.8823C105.829 92.8049 106.033 93.736 106.502 94.5393C106.864 95.1756 107.382 95.7093 108.005 96.0894L106.326 98.7696C105.266 98.118 104.382 97.2103 103.757 96.1297V96.1297Z" fill="#F69281"/>
<path d="M49.1857 5.59592C47.6037 4.81618 46.3275 3.52692 45.5438 1.91695C44.7602 0.306986 44.5105 -1.53909 44.8311 -3.35092L48.3143 -2.88503C48.1393 -1.83884 48.2914 -0.776137 48.7485 0.149411C49.2055 1.07496 49.944 1.81537 50.8569 2.26358C51.5703 2.62304 52.3691 2.78499 53.177 2.73395L53.1825 6.32611C51.7981 6.43126 50.4241 6.18024 49.1857 5.59592Z" fill="#F69281"/>
<path d="M95.215 137.003C96.2073 136.969 97.1844 137.254 98.0042 137.814C98.824 138.375 99.4438 139.182 99.7735 140.119L97.9046 140.782C97.7139 140.241 97.3562 139.775 96.8834 139.452C96.4105 139.128 95.847 138.963 95.2743 138.981C94.8211 138.988 94.3778 139.114 93.9888 139.347L93 137.626C93.6759 137.239 94.4367 137.025 95.215 137.003Z" fill="#FBF173"/>
<path d="M14.1933 42.5524C15.1816 42.5265 16.1529 42.814 16.9681 43.3737C17.7833 43.9334 18.4007 44.7367 18.732 45.6687L16.8631 46.3315C16.6711 45.7918 16.3131 45.3269 15.8406 45.0034C15.368 44.6799 14.8052 44.5146 14.2328 44.531C13.7799 44.5398 13.337 44.6659 12.9473 44.897L11.9585 43.1855C12.6377 42.7883 13.4067 42.5704 14.1933 42.5524V42.5524Z" fill="#FBF173"/>
<path d="M30.7958 158.984C29.8193 158.806 28.9247 158.322 28.2419 157.602C27.5591 156.881 27.1236 155.962 26.9987 154.977L28.9763 154.72C29.0525 155.289 29.3069 155.82 29.703 156.236C30.0991 156.651 30.6167 156.931 31.1814 157.035C31.6259 157.122 32.0854 157.095 32.5164 156.956L33.1294 158.835C32.3764 159.08 31.5738 159.131 30.7958 158.984Z" fill="#FBF173"/>
<path d="M43.7792 179.225C46.1057 179.225 47.9916 177.338 47.9916 175.01C47.9916 172.683 46.1057 170.796 43.7792 170.796C41.4527 170.796 39.5668 172.683 39.5668 175.01C39.5668 177.338 41.4527 179.225 43.7792 179.225Z" fill="#FBB040"/>
<path d="M253.61 140.929C255.936 140.929 257.822 139.042 257.822 136.714C257.822 134.387 255.936 132.5 253.61 132.5C251.283 132.5 249.397 134.387 249.397 136.714C249.397 139.042 251.283 140.929 253.61 140.929Z" fill="#FBB040"/>
<path opacity="0.56" d="M208.825 75.7934C211.933 75.7934 214.452 73.2732 214.452 70.1643C214.452 67.0554 211.933 64.5352 208.825 64.5352C205.718 64.5352 203.199 67.0554 203.199 70.1643C203.199 73.2732 205.718 75.7934 208.825 75.7934Z" fill="#FBB040"/>
<path d="M33.1939 81.3909C34.9579 81.3909 36.3879 79.9603 36.3879 78.1955C36.3879 76.4307 34.9579 75 33.1939 75C31.43 75 30 76.4307 30 78.1955C30 79.9603 31.43 81.3909 33.1939 81.3909Z" fill="#FBB040" fill-opacity="0.4"/>
<path d="M96.1939 39.3909C97.9579 39.3909 99.3879 37.9602 99.3879 36.1954C99.3879 34.4306 97.9579 33 96.1939 33C94.43 33 93 34.4306 93 36.1954C93 37.9602 94.43 39.3909 96.1939 39.3909Z" fill="#FBF173"/>
<path d="M224.182 284.428C225.946 284.428 227.376 282.997 227.376 281.232C227.376 279.468 225.946 278.037 224.182 278.037C222.418 278.037 220.988 279.468 220.988 281.232C220.988 282.997 222.418 284.428 224.182 284.428Z" fill="#FBF173"/>
<path opacity="0.24" d="M85.8343 204.036C87.5983 204.036 89.0283 202.606 89.0283 200.841C89.0283 199.076 87.5983 197.646 85.8343 197.646C84.0704 197.646 82.6404 199.076 82.6404 200.841C82.6404 202.606 84.0704 204.036 85.8343 204.036Z" fill="#FBB040"/>
<path opacity="0.33" d="M278.044 103.929C279.808 103.929 281.238 102.498 281.238 100.734C281.238 98.9687 279.808 97.5381 278.044 97.5381C276.28 97.5381 274.85 98.9687 274.85 100.734C274.85 102.498 276.28 103.929 278.044 103.929Z" fill="#FBB040"/>
<path d="M231.796 64.0696C233.56 64.0696 234.99 62.639 234.99 60.8742C234.99 59.1094 233.56 57.6787 231.796 57.6787C230.032 57.6787 228.602 59.1094 228.602 60.8742C228.602 62.639 230.032 64.0696 231.796 64.0696Z" fill="#FBF173"/>
<path opacity="0.64" d="M298.73 178.206C300.494 178.206 301.924 176.776 301.924 175.011C301.924 173.246 300.494 171.815 298.73 171.815C296.966 171.815 295.536 173.246 295.536 175.011C295.536 176.776 296.966 178.206 298.73 178.206Z" fill="#FBB040"/>
<path d="M268.066 13.2102C269.83 13.2102 271.26 11.7796 271.26 10.0148C271.26 8.24999 269.83 6.81934 268.066 6.81934C266.303 6.81934 264.873 8.24999 264.873 10.0148C264.873 11.7796 266.303 13.2102 268.066 13.2102Z" fill="#FBB040"/>
<path d="M153.016 5.99799L154.103 8.19425C154.128 8.24698 154.165 8.29275 154.212 8.32733C154.258 8.3619 154.313 8.38418 154.37 8.39211L156.803 8.74826C156.87 8.75687 156.933 8.78438 156.985 8.82757C157.037 8.87076 157.075 8.92785 157.096 8.99216C157.117 9.05648 157.119 9.12537 157.102 9.19079C157.085 9.25621 157.05 9.31546 157.001 9.36162L155.24 11.0731C155.201 11.1167 155.171 11.1687 155.154 11.2251C155.137 11.2816 155.133 11.3412 155.142 11.3996L155.557 13.8135C155.569 13.8812 155.561 13.951 155.536 14.0147C155.51 14.0784 155.467 14.1336 155.411 14.1739C155.355 14.2142 155.289 14.2379 155.221 14.2424C155.152 14.2469 155.083 14.232 155.023 14.1993L152.857 13.0616C152.806 13.0321 152.748 13.0166 152.689 13.0166C152.63 13.0166 152.572 13.0321 152.521 13.0616L150.346 14.1993C150.286 14.2293 150.218 14.242 150.151 14.2362C150.084 14.2304 150.02 14.2062 149.966 14.1664C149.912 14.1265 149.87 14.0725 149.844 14.0102C149.819 13.948 149.811 13.8799 149.822 13.8135L150.237 11.3996C150.246 11.3404 150.241 11.28 150.222 11.2232C150.203 11.1664 150.171 11.1149 150.128 11.0731L148.378 9.36162C148.329 9.31546 148.293 9.25621 148.277 9.19079C148.26 9.12537 148.262 9.05648 148.282 8.99216C148.303 8.92785 148.342 8.87076 148.394 8.82757C148.446 8.78438 148.509 8.75687 148.576 8.74826L151.008 8.39211C151.066 8.38418 151.12 8.3619 151.167 8.32733C151.214 8.29275 151.251 8.24698 151.275 8.19425L152.363 5.99799C152.391 5.93445 152.436 5.88037 152.494 5.84239C152.552 5.80441 152.62 5.78418 152.689 5.78418C152.759 5.78418 152.826 5.80441 152.884 5.84239C152.942 5.88037 152.988 5.93445 153.016 5.99799V5.99799Z" fill="#F69281"/>
<path d="M207.75 119.214L208.838 121.41C208.862 121.463 208.9 121.509 208.946 121.543C208.993 121.578 209.048 121.6 209.105 121.608L211.538 121.964C211.605 121.973 211.668 122 211.72 122.043C211.772 122.087 211.81 122.144 211.831 122.208C211.852 122.272 211.854 122.341 211.837 122.407C211.82 122.472 211.785 122.531 211.735 122.577L209.975 124.289C209.936 124.333 209.906 124.384 209.889 124.441C209.872 124.497 209.868 124.557 209.876 124.615L210.292 127.029C210.304 127.097 210.296 127.167 210.27 127.231C210.245 127.294 210.201 127.349 210.146 127.39C210.09 127.43 210.024 127.454 209.955 127.458C209.887 127.463 209.818 127.448 209.758 127.415L207.592 126.277C207.541 126.248 207.483 126.232 207.424 126.232C207.365 126.232 207.307 126.248 207.256 126.277L205.081 127.415C205.02 127.445 204.953 127.458 204.886 127.452C204.819 127.446 204.755 127.422 204.701 127.382C204.647 127.342 204.605 127.288 204.579 127.226C204.554 127.164 204.546 127.096 204.557 127.029L204.972 124.615C204.981 124.556 204.976 124.496 204.957 124.439C204.938 124.382 204.906 124.331 204.863 124.289L203.113 122.577C203.064 122.531 203.028 122.472 203.011 122.407C202.994 122.341 202.996 122.272 203.017 122.208C203.038 122.144 203.077 122.087 203.128 122.043C203.18 122 203.244 121.973 203.311 121.964L205.743 121.608C205.801 121.6 205.855 121.578 205.902 121.543C205.949 121.509 205.986 121.463 206.01 121.41L207.098 119.214C207.126 119.15 207.171 119.096 207.229 119.058C207.287 119.02 207.355 119 207.424 119C207.493 119 207.561 119.02 207.619 119.058C207.677 119.096 207.723 119.15 207.75 119.214V119.214Z" fill="#F69281"/>
<path d="M230.98 159.254L232.579 162.382C232.612 162.459 232.666 162.525 232.735 162.575C232.804 162.624 232.886 162.655 232.971 162.664L236.547 163.171C236.646 163.186 236.738 163.228 236.813 163.291C236.889 163.354 236.945 163.436 236.975 163.528C237.005 163.62 237.008 163.718 236.984 163.812C236.96 163.906 236.909 163.991 236.838 164.059L234.25 166.496C234.191 166.555 234.147 166.627 234.122 166.705C234.097 166.783 234.091 166.866 234.105 166.947L234.716 170.4C234.73 170.495 234.717 170.592 234.677 170.681C234.638 170.77 234.574 170.846 234.493 170.901C234.412 170.957 234.316 170.989 234.217 170.995C234.117 171.001 234.018 170.98 233.931 170.935L230.747 169.315C230.672 169.273 230.587 169.251 230.5 169.251C230.413 169.251 230.328 169.273 230.253 169.315L227.055 170.935C226.968 170.982 226.869 171.005 226.77 170.999C226.67 170.994 226.575 170.961 226.494 170.905C226.413 170.849 226.35 170.771 226.313 170.682C226.276 170.592 226.266 170.495 226.284 170.4L226.895 166.947C226.91 166.865 226.903 166.781 226.875 166.702C226.847 166.623 226.799 166.552 226.735 166.496L224.162 164.129C224.091 164.062 224.04 163.976 224.016 163.883C223.992 163.789 223.995 163.691 224.025 163.598C224.055 163.506 224.111 163.424 224.187 163.361C224.262 163.298 224.354 163.257 224.453 163.241L228.029 162.734C228.114 162.726 228.196 162.695 228.265 162.645C228.334 162.596 228.388 162.529 228.421 162.452L230.02 159.324C230.058 159.234 230.121 159.157 230.202 159.1C230.282 159.043 230.378 159.009 230.478 159.001C230.577 158.994 230.677 159.014 230.766 159.058C230.854 159.103 230.928 159.171 230.98 159.254V159.254Z" fill="#FBF173"/>
<path opacity="0.33" d="M69.2416 77.5343L71.4368 81.4916C71.488 81.5887 71.5629 81.6714 71.6545 81.7319C71.7461 81.7924 71.8515 81.8289 71.9609 81.8378L76.47 82.283C76.5966 82.294 76.7174 82.3407 76.8186 82.4176C76.9197 82.4945 76.997 82.5985 77.0415 82.7176C77.086 82.8366 77.0959 82.9659 77.07 83.0903C77.0441 83.2147 76.9835 83.3293 76.8952 83.4207L73.8001 86.7349C73.723 86.8128 73.6671 86.9091 73.6377 87.0147C73.6082 87.1204 73.6063 87.2318 73.632 87.3383L74.6209 91.7704C74.6546 91.899 74.6494 92.0347 74.606 92.1604C74.5627 92.2861 74.4831 92.3961 74.3773 92.4766C74.2715 92.557 74.1442 92.6043 74.0116 92.6124C73.8789 92.6206 73.7469 92.5892 73.632 92.5223L69.5284 90.5437C69.43 90.4949 69.3217 90.4695 69.2119 90.4695C69.1022 90.4695 68.9939 90.4949 68.8955 90.5437L64.9402 92.8389C64.8324 92.8973 64.7108 92.9251 64.5884 92.9193C64.466 92.9136 64.3475 92.8744 64.2457 92.8062C64.1439 92.738 64.0627 92.6432 64.0108 92.5321C63.9589 92.4211 63.9384 92.2979 63.9514 92.176L64.515 87.6648C64.5302 87.5571 64.5183 87.4473 64.4803 87.3453C64.4423 87.2434 64.3794 87.1526 64.2974 87.0811L60.9057 84.1132C60.8268 84.0264 60.772 83.9204 60.7467 83.8058C60.7214 83.6912 60.7265 83.572 60.7614 83.46C60.7964 83.348 60.8601 83.2471 60.9461 83.1673C61.0322 83.0875 61.1375 83.0316 61.2518 83.0052L65.7016 82.1544C65.8095 82.1325 65.9107 82.0852 65.9967 82.0164C66.0827 81.9476 66.151 81.8592 66.196 81.7587L68.0155 77.6036C68.0616 77.4821 68.142 77.3766 68.2468 77.2998C68.3516 77.2231 68.4764 77.1783 68.6061 77.171C68.7358 77.1637 68.8648 77.1941 68.9776 77.2586C69.0904 77.323 69.1821 77.4188 69.2416 77.5343V77.5343Z" fill="#FBF173"/>
<path opacity="0.33" d="M308.401 17.9385L310.586 21.8957C310.639 21.9917 310.714 22.0735 310.805 22.1338C310.897 22.1942 311.001 22.2313 311.11 22.242L315.629 22.6872C315.754 22.7017 315.872 22.7504 315.971 22.8279C316.07 22.9053 316.145 23.0085 316.189 23.1261C316.233 23.2437 316.244 23.3711 316.22 23.4944C316.196 23.6177 316.139 23.732 316.054 23.8249L312.95 27.139C312.875 27.2184 312.82 27.3148 312.791 27.42C312.762 27.5251 312.758 27.6358 312.781 27.7425L313.77 32.1746C313.804 32.3032 313.799 32.4389 313.755 32.5646C313.712 32.6903 313.632 32.8003 313.527 32.8807C313.421 32.9612 313.294 33.0084 313.161 33.0166C313.028 33.0247 312.896 32.9934 312.781 32.9264L308.668 30.9973C308.571 30.9486 308.465 30.9232 308.356 30.9232C308.248 30.9232 308.142 30.9486 308.045 30.9973L304.09 33.2925C303.982 33.3509 303.86 33.3787 303.738 33.3729C303.615 33.3672 303.497 33.3281 303.395 33.2598C303.293 33.1916 303.212 33.0968 303.16 32.9858C303.108 32.8747 303.088 32.7516 303.101 32.6297L303.664 28.1184C303.677 28.0271 303.67 27.9341 303.644 27.8456C303.619 27.757 303.575 27.6747 303.516 27.604L300.134 24.6361C300.039 24.5531 299.97 24.4451 299.933 24.3244C299.897 24.2037 299.895 24.0751 299.928 23.9534C299.961 23.8317 300.027 23.7217 300.12 23.636C300.212 23.5503 300.327 23.4923 300.451 23.4687L304.91 22.608C305.016 22.588 305.116 22.5425 305.2 22.4752C305.285 22.408 305.352 22.3211 305.395 22.2222L307.224 18.0671C307.27 17.9546 307.345 17.8566 307.442 17.7834C307.539 17.7102 307.654 17.6646 307.774 17.6514C307.895 17.6383 308.017 17.658 308.127 17.7085C308.237 17.7591 308.332 17.8385 308.401 17.9385V17.9385Z" fill="#FBB040"/>
<path d="M15.5974 190.077L17.1104 192.818C17.147 192.883 17.1983 192.938 17.2601 192.979C17.3219 193.02 17.3926 193.046 17.4663 193.055L20.5812 193.362C20.6679 193.37 20.7507 193.402 20.8201 193.455C20.8896 193.507 20.9428 193.578 20.9737 193.66C21.0046 193.741 21.012 193.83 20.9951 193.915C20.9781 194.001 20.9375 194.08 20.8778 194.143L18.7321 196.429C18.6819 196.484 18.6458 196.551 18.6268 196.623C18.6079 196.696 18.6067 196.771 18.6233 196.844L19.2858 199.911C19.3074 199.996 19.3038 200.086 19.2755 200.169C19.2472 200.253 19.1954 200.326 19.1263 200.38C19.0573 200.435 18.974 200.468 18.8865 200.476C18.7989 200.484 18.711 200.466 18.6332 200.426L15.7656 199.1C15.6988 199.064 15.624 199.044 15.548 199.044C15.472 199.044 15.3972 199.064 15.3305 199.1L12.6705 200.732C12.5946 200.774 12.5085 200.795 12.4218 200.791C12.335 200.788 12.2509 200.761 12.1785 200.713C12.1061 200.665 12.0482 200.598 12.0112 200.519C11.9741 200.441 11.9594 200.354 11.9684 200.267L12.364 197.161C12.3736 197.085 12.3641 197.009 12.3365 196.938C12.3089 196.867 12.2639 196.804 12.2057 196.755L9.83255 194.648C9.76922 194.589 9.72312 194.514 9.69921 194.431C9.6753 194.348 9.67449 194.26 9.69688 194.177C9.71926 194.093 9.76398 194.018 9.82622 193.958C9.88846 193.898 9.96587 193.856 10.0501 193.837L13.1254 193.253C13.2001 193.239 13.27 193.206 13.3288 193.158C13.3875 193.109 13.4332 193.047 13.4616 192.976L14.7273 190.107C14.7574 190.017 14.8142 189.939 14.8901 189.882C14.966 189.826 15.0574 189.794 15.1521 189.79C15.2467 189.787 15.3401 189.813 15.4197 189.864C15.4993 189.915 15.5613 189.99 15.5974 190.077V190.077Z" fill="#FBF173"/>
<path d="M16.325 13.2789L18.4724 17.0607C18.5228 17.1541 18.597 17.2333 18.6879 17.2907C18.7789 17.3481 18.8835 17.3817 18.9917 17.3884L23.4127 17.8116C23.5347 17.8247 23.6504 17.8707 23.7471 17.9443C23.8437 18.0179 23.9172 18.1162 23.9595 18.2283C24.0018 18.3404 24.0111 18.4617 23.9864 18.5786C23.9617 18.6955 23.904 18.8034 23.8197 18.8902L20.7881 22.0849C20.7133 22.1622 20.6588 22.256 20.6295 22.3582C20.6002 22.4605 20.5968 22.5682 20.6197 22.672L21.5741 26.8907C21.5987 27.0073 21.5895 27.1282 21.5475 27.24C21.5054 27.3518 21.4323 27.45 21.3362 27.5237C21.24 27.5974 21.1248 27.6436 21.0032 27.6572C20.8816 27.6707 20.7586 27.6512 20.6478 27.6006L16.6198 25.7302C16.5276 25.68 16.4237 25.6536 16.318 25.6536C16.2124 25.6536 16.1085 25.68 16.0163 25.7302L12.1707 27.9146C12.0639 27.9743 11.9421 28.0037 11.819 27.9996C11.696 27.9954 11.5766 27.9578 11.4743 27.891C11.3721 27.8242 11.2911 27.7309 11.2406 27.6217C11.19 27.5125 11.1719 27.3917 11.1883 27.2729L11.7356 22.986C11.7448 22.8887 11.732 22.7906 11.6981 22.6986C11.6641 22.6066 11.6099 22.5229 11.5391 22.4535L8.21285 19.5865C8.12292 19.5045 8.05784 19.4 8.02471 19.2845C7.99159 19.169 7.99167 19.0469 8.02496 18.9314C8.05826 18.816 8.12348 18.7116 8.21352 18.6297C8.30357 18.5478 8.41499 18.4915 8.53565 18.467L12.9426 17.6614C13.0468 17.6419 13.1445 17.5981 13.2276 17.5339C13.3107 17.4698 13.3766 17.3871 13.4198 17.2928L15.2022 13.3335C15.2564 13.2373 15.335 13.1562 15.4305 13.0979C15.526 13.0397 15.6353 13.0062 15.7479 13.0007C15.8606 12.9953 15.9727 13.018 16.0738 13.0667C16.1748 13.1154 16.2613 13.1884 16.325 13.2789Z" fill="#FBF173"/>
<path d="M291.986 71.4504L293.855 74.8537C293.899 74.9361 293.963 75.0064 294.04 75.0582C294.118 75.11 294.207 75.1417 294.3 75.1504L298.167 75.5363C298.279 75.5419 298.387 75.5804 298.477 75.6468C298.568 75.7133 298.637 75.8049 298.676 75.9102C298.715 76.0155 298.722 76.13 298.696 76.2394C298.671 76.3488 298.614 76.4483 298.532 76.5256L295.873 79.355C295.81 79.4236 295.765 79.506 295.741 79.5955C295.717 79.6849 295.715 79.7788 295.734 79.8694L296.565 83.6683C296.589 83.7739 296.582 83.8841 296.547 83.9862C296.511 84.0883 296.447 84.1782 296.362 84.2454C296.277 84.3127 296.175 84.3546 296.067 84.3662C295.96 84.3779 295.851 84.3589 295.754 84.3114L292.244 82.6692C292.16 82.6233 292.067 82.5992 291.972 82.5992C291.876 82.5992 291.783 82.6233 291.7 82.6692L288.347 84.6478C288.255 84.7021 288.15 84.7295 288.043 84.7269C287.936 84.7244 287.832 84.6919 287.742 84.6333C287.653 84.5746 287.581 84.4921 287.536 84.395C287.491 84.2979 287.474 84.1901 287.487 84.0839L287.972 80.2256C287.982 80.1327 287.97 80.0387 287.937 79.9512C287.905 79.8636 287.852 79.7848 287.784 79.721L284.887 77.1389C284.807 77.068 284.75 76.9766 284.719 76.8747C284.689 76.7729 284.688 76.6646 284.716 76.5621C284.743 76.4595 284.799 76.3666 284.876 76.2938C284.954 76.221 285.05 76.1711 285.154 76.1496L288.97 75.4176C289.063 75.4029 289.15 75.3641 289.223 75.3051C289.296 75.246 289.352 75.1688 289.386 75.0812L290.948 71.5296C290.989 71.4298 291.057 71.3435 291.145 71.2801C291.232 71.2167 291.335 71.1788 291.443 71.1706C291.551 71.1624 291.658 71.1842 291.754 71.2336C291.85 71.283 291.931 71.3581 291.986 71.4504V71.4504Z" fill="#FBF173"/>
<path d="M286.123 203.918L287.359 206.154C287.387 206.208 287.428 206.254 287.478 206.288C287.528 206.323 287.585 206.345 287.645 206.352L290.187 206.609C290.258 206.614 290.326 206.639 290.383 206.681C290.441 206.724 290.485 206.781 290.511 206.848C290.537 206.914 290.543 206.986 290.53 207.056C290.516 207.126 290.483 207.191 290.434 207.242L288.684 209.102C288.642 209.149 288.611 209.204 288.594 209.264C288.577 209.324 288.574 209.387 288.585 209.449L289.139 211.942C289.152 212.011 289.146 212.082 289.121 212.148C289.097 212.214 289.055 212.272 289 212.316C288.945 212.359 288.879 212.387 288.809 212.396C288.74 212.405 288.669 212.395 288.605 212.367L286.291 211.279C286.235 211.252 286.174 211.239 286.113 211.239C286.051 211.239 285.99 211.252 285.935 211.279L283.739 212.604C283.679 212.641 283.609 212.659 283.538 212.657C283.467 212.655 283.398 212.633 283.339 212.594C283.281 212.555 283.234 212.499 283.205 212.435C283.176 212.37 283.166 212.299 283.176 212.229L283.492 209.696C283.501 209.636 283.495 209.575 283.474 209.518C283.453 209.461 283.419 209.41 283.374 209.369L281.455 207.658C281.402 207.612 281.363 207.551 281.343 207.483C281.322 207.416 281.321 207.344 281.34 207.276C281.358 207.208 281.396 207.146 281.448 207.098C281.499 207.05 281.564 207.018 281.633 207.005L284.145 206.52C284.204 206.507 284.26 206.481 284.308 206.443C284.356 206.405 284.395 206.357 284.422 206.303L285.411 203.958C285.436 203.886 285.482 203.823 285.543 203.777C285.604 203.731 285.677 203.704 285.753 203.7C285.83 203.696 285.905 203.714 285.971 203.753C286.037 203.792 286.09 203.849 286.123 203.918V203.918Z" fill="#FBB040"/>
<circle cx="158" cy="143" r="78" fill="#FBF173" fill-opacity="0.15"/>
<circle cx="158" cy="143" r="64" fill="#FBF173" fill-opacity="0.25"/>
<ellipse cx="158.5" cy="143" rx="50.5" ry="50" fill="#FBF173" fill-opacity="0.25"/>
<path d="M127.08 126.074L126.895 161.988L157.839 179.992L188.969 162.083L189.154 126.17L158.21 108.165L127.08 126.074Z" fill="#FFEC89"/>
<path d="M158.024 144.079L127.08 126.074L126.895 161.988L158.024 144.079Z" fill="#FEB633"/>
<path d="M126.895 161.987L157.839 179.992L158.024 144.078L126.895 161.987Z" fill="#FD8115"/>
<path d="M158.21 108.165L158.024 144.078L189.154 126.169L158.21 108.165Z" fill="#FEB633"/>
<path d="M158.024 144.078L157.839 179.991L188.969 162.083L158.024 144.078Z" fill="#FF6021"/>
<path d="M188.969 162.082L189.154 126.169L158.024 144.078L188.969 162.082Z" fill="#FD8115"/>
<path d="M175.593 133.972L158.129 123.811L140.56 133.918L140.456 154.186L157.92 164.347L175.488 154.24L175.593 133.972Z" fill="#FEE383"/>
<g clip-path="url(#clip1)">
<path d="M139.772 128.286L141.512 131.549C141.597 131.708 141.753 131.814 141.928 131.832L145.516 132.2C145.958 132.246 146.157 132.795 145.854 133.129L143.389 135.847C143.268 135.98 143.219 136.165 143.257 136.343L144.026 139.983C144.122 140.431 143.678 140.796 143.276 140.601L140.012 139.019C139.852 138.941 139.666 138.95 139.515 139.042L136.402 140.923C136.019 141.154 135.545 140.832 135.6 140.377L136.048 136.68C136.07 136.5 136.004 136.32 135.873 136.199L133.18 133.721C132.848 133.417 132.999 132.852 133.435 132.765L136.977 132.063C137.15 132.029 137.295 131.909 137.366 131.743L138.814 128.331C138.991 127.911 139.559 127.885 139.772 128.286Z" fill="white"/>
</g>
<path d="M146.689 119.198L147.894 121.457C147.952 121.567 148.06 121.641 148.181 121.653L150.665 121.908C150.971 121.939 151.109 122.319 150.899 122.551L149.192 124.433C149.109 124.525 149.075 124.653 149.101 124.776L149.634 127.296C149.7 127.606 149.393 127.859 149.115 127.724L146.855 126.628C146.744 126.575 146.615 126.581 146.51 126.645L144.355 127.947C144.09 128.107 143.762 127.884 143.8 127.569L144.11 125.009C144.126 124.885 144.08 124.76 143.989 124.676L142.125 122.961C141.895 122.75 141.999 122.359 142.301 122.299L144.753 121.813C144.873 121.789 144.974 121.706 145.023 121.591L146.025 119.229C146.148 118.939 146.541 118.92 146.689 119.198Z" fill="white"/>
</g>
<defs>
<clipPath id="clip0">
<rect width="320" height="455" fill="white"/>
</clipPath>
<clipPath id="clip1">
<rect width="13" height="13" fill="white" transform="translate(133 128)"/>
</clipPath>
</defs>
</svg>
