<svg width="15" height="16" viewBox="0 0 15 16" fill="none" xmlns="http://www.w3.org/2000/svg">
<path d="M11.6771 9.94055C10.7898 9.94055 10.0014 10.3718 9.51005 11.0355L5.28023 8.87391C5.35119 8.63283 5.38945 8.37788 5.38945 8.11412C5.38945 7.75689 5.31942 7.41577 5.19262 7.10351L9.62574 4.43998C10.1204 5.02055 10.8565 5.38945 11.6771 5.38945C13.163 5.38945 14.3719 4.1806 14.3719 2.69473C14.3719 1.20885 13.163 0 11.6771 0C10.1913 0 8.98242 1.20885 8.98242 2.69473C8.98242 3.03815 9.04712 3.3667 9.16476 3.66902L4.72056 6.33919C4.22629 5.77576 3.50138 5.41939 2.69473 5.41939C1.20885 5.41939 0 6.62825 0 8.11412C0 9.59999 1.20885 10.8088 2.69473 10.8088C3.59662 10.8088 4.39636 10.3634 4.88575 9.68108L9.10329 11.8364C9.02476 12.0889 8.98242 12.3572 8.98242 12.6353C8.98242 14.1211 10.1913 15.33 11.6771 15.33C13.163 15.33 14.3719 14.1211 14.3719 12.6353C14.3719 11.1494 13.163 9.94055 11.6771 9.94055ZM11.6771 0.898242C12.6677 0.898242 13.4736 1.70415 13.4736 2.69473C13.4736 3.68531 12.6677 4.49121 11.6771 4.49121C10.6866 4.49121 9.88066 3.68531 9.88066 2.69473C9.88066 1.70415 10.6866 0.898242 11.6771 0.898242ZM2.69473 9.91061C1.70414 9.91061 0.898242 9.1047 0.898242 8.11412C0.898242 7.12354 1.70414 6.31764 2.69473 6.31764C3.68531 6.31764 4.49121 7.12354 4.49121 8.11412C4.49121 9.1047 3.68531 9.91061 2.69473 9.91061ZM11.6771 14.4318C10.6866 14.4318 9.88066 13.6259 9.88066 12.6353C9.88066 11.6447 10.6866 10.8388 11.6771 10.8388C12.6677 10.8388 13.4736 11.6447 13.4736 12.6353C13.4736 13.6259 12.6677 14.4318 11.6771 14.4318Z" fill="#828282"/>
</svg>
