<svg width="50" height="50" viewBox="0 0 50 50" fill="none" xmlns="http://www.w3.org/2000/svg">
<path d="M25.147 11.6176H24.8529C23.6274 11.6176 22.647 10.6373 22.647 9.41176V2.20588C22.647 0.980392 23.6274 0 24.8529 0H25.147C26.3725 0 27.3529 0.980392 27.3529 2.20588V9.36274C27.3529 10.5882 26.3725 11.6176 25.147 11.6176Z" fill="white"/>
<path opacity="0.9" d="M18.4313 13.3334L18.1862 13.4804C17.1568 14.0687 15.7843 13.7255 15.147 12.6471L11.5686 6.42161C10.9804 5.3922 11.3235 4.01965 12.4019 3.3824L12.647 3.23534C13.6764 2.6471 15.049 2.99024 15.6862 4.06867L19.2156 10.2942C19.8529 11.3726 19.4607 12.6961 18.4313 13.3334Z" fill="white"/>
<path opacity="0.8" d="M13.4803 18.1861L13.3333 18.4312C12.745 19.4606 11.3725 19.8528 10.2941 19.2646L4.06857 15.6861C3.03916 15.0979 2.647 13.7254 3.23524 12.6469L3.3823 12.4018C3.97053 11.3724 5.34308 10.9803 6.42151 11.5685L12.647 15.1469C13.7254 15.7842 14.0686 17.1077 13.4803 18.1861Z" fill="white"/>
<path opacity="0.7" d="M11.6176 24.8529V25.147C11.6176 26.3725 10.6373 27.3529 9.41176 27.3529H2.20588C0.980392 27.3529 0 26.3725 0 25.147V24.8529C0 23.6274 0.980392 22.647 2.20588 22.647H9.36274C10.5882 22.647 11.6176 23.6274 11.6176 24.8529Z" fill="white"/>
<path opacity="0.6" d="M13.3334 31.5686L13.4804 31.8137C14.0687 32.8431 13.7255 34.2156 12.6471 34.8529L6.42161 38.4313C5.3922 39.0196 4.01965 38.6764 3.3824 37.598L3.23534 37.3529C2.6471 36.3235 2.99024 34.9509 4.06867 34.3137L10.2942 30.7352C11.3726 30.147 12.6961 30.5392 13.3334 31.5686Z" fill="white"/>
<path opacity="0.5" d="M18.1861 36.5195L18.4312 36.6666C19.4606 37.2548 19.8528 38.6274 19.2646 39.7058L15.6861 45.9313C15.0979 46.9607 13.7254 47.3529 12.6469 46.7646L12.4018 46.6176C11.3724 46.0293 10.9803 44.6568 11.5685 43.5783L15.1469 37.3529C15.7842 36.2744 17.1077 35.9313 18.1861 36.5195Z" fill="white"/>
<path opacity="0.4" d="M24.8529 38.3826H25.147C26.3725 38.3826 27.3529 39.363 27.3529 40.5885V47.7453C27.3529 48.9708 26.3725 49.9512 25.147 49.9512H24.8529C23.6274 49.9512 22.647 48.9708 22.647 47.7453V40.5885C22.647 39.412 23.6274 38.3826 24.8529 38.3826Z" fill="white"/>
<path opacity="0.3" d="M31.5686 36.6666L31.8137 36.5195C32.8431 35.9313 34.2156 36.2744 34.8529 37.3529L38.4313 43.5783C39.0196 44.6078 38.6764 45.9803 37.598 46.6176L37.3529 46.7646C36.3235 47.3529 34.9509 47.0097 34.3137 45.9313L30.7352 39.7058C30.147 38.6274 30.5392 37.3038 31.5686 36.6666Z" fill="white"/>
<path opacity="0.2" d="M36.5195 31.8137L36.6666 31.5686C37.2548 30.5392 38.6274 30.147 39.7058 30.7352L45.9313 34.3137C46.9607 34.9019 47.3529 36.2745 46.7646 37.3529L46.6176 37.598C46.0293 38.6274 44.6568 39.0196 43.5783 38.4313L37.3529 34.8529C36.2744 34.2156 35.9313 32.8921 36.5195 31.8137Z" fill="white"/>
<path opacity="0.15" d="M38.3826 25.147V24.8529C38.3826 23.6274 39.363 22.647 40.5885 22.647H47.7453C48.9708 22.647 49.9512 23.6274 49.9512 24.8529V25.147C49.9512 26.3725 48.9708 27.3529 47.7453 27.3529H40.5885C39.412 27.3529 38.3826 26.3725 38.3826 25.147Z" fill="white"/>
<path opacity="0.1" d="M36.6666 18.4313L36.5195 18.1862C35.9313 17.1568 36.2744 15.7843 37.3529 15.147L43.5783 11.5686C44.6078 10.9804 45.9803 11.3235 46.6176 12.4019L46.7646 12.647C47.3529 13.6764 47.0097 15.049 45.9313 15.6862L39.7058 19.2156C38.6274 19.8529 37.3038 19.4607 36.6666 18.4313Z" fill="white"/>
<path opacity="0.05" d="M31.8137 13.4803L31.5686 13.3333C30.5392 12.745 30.147 11.3725 30.7352 10.2941L34.3137 4.06857C34.9019 3.03916 36.2745 2.647 37.3529 3.23524L37.598 3.3823C38.6274 3.97053 39.0196 5.34308 38.4313 6.42151L34.8529 12.647C34.2156 13.7254 32.8921 14.0686 31.8137 13.4803Z" fill="white"/>
</svg>
