<svg width="16" height="16" viewBox="0 0 16 16" fill="none" xmlns="http://www.w3.org/2000/svg">
<path d="M3.08323 15.5138C3.23179 15.6212 3.40587 15.6759 3.58117 15.6759C3.73254 15.6759 3.88257 15.6352 4.01722 15.5552L8.00002 13.1738L11.9828 15.5539C12.2735 15.7285 12.6415 15.7132 12.9175 15.5132C13.1942 15.3133 13.3236 14.9685 13.2481 14.6351L12.2188 10.1011L15.7096 7.04033C15.9662 6.81633 16.0636 6.46097 15.9583 6.13699C15.8529 5.81301 15.5663 5.5829 15.2262 5.55226L10.6081 5.13294L8.78202 0.858778C8.64738 0.545537 8.34073 0.342773 8.00002 0.342773C7.65931 0.342773 7.35266 0.545537 7.21801 0.85951L5.3919 5.13294L0.773091 5.55226C0.433724 5.58363 0.147093 5.81301 0.0417429 6.13699C-0.0636073 6.46158 0.0344184 6.81633 0.291019 7.04033L3.78186 10.1017L2.75253 14.6359C2.67721 14.9685 2.80648 15.3133 3.08323 15.5138Z" fill="url(#paint0_linear)"/>
<defs>
<linearGradient id="paint0_linear" x1="0" y1="0.342773" x2="-0.424977" y2="15.2063" gradientUnits="userSpaceOnUse">
<stop stop-color="#985ADD"/>
<stop offset="1" stop-color="#F36580"/>
</linearGradient>
</defs>
</svg>
