<svg width="16" height="16" viewBox="0 0 16 16" fill="none" xmlns="http://www.w3.org/2000/svg">
<path d="M3.58117 15.6759C3.40587 15.6759 3.23179 15.6212 3.08323 15.5138C2.80648 15.3132 2.67721 14.9685 2.75253 14.6359L3.78186 10.1017L0.291019 7.04033C0.0344184 6.81633 -0.0636073 6.46158 0.0417429 6.13699C0.147093 5.81301 0.433724 5.58363 0.773091 5.55226L5.3919 5.13294L7.21801 0.85951C7.35266 0.545537 7.65931 0.342773 8.00002 0.342773C8.34073 0.342773 8.64738 0.545537 8.78202 0.858778L10.6081 5.13294L15.2262 5.55226C15.5663 5.5829 15.8529 5.81301 15.9583 6.13699C16.0636 6.46097 15.9662 6.81633 15.7096 7.04033L12.2188 10.1011L13.2481 14.6351C13.3236 14.9685 13.1942 15.3132 12.9175 15.5132C12.6415 15.7132 12.2735 15.7285 11.9828 15.5539L8.00002 13.1738L4.01722 15.5552C3.88257 15.6352 3.73254 15.6759 3.58117 15.6759ZM8.00002 12.1485C8.15139 12.1485 8.3013 12.1891 8.43607 12.2691L12.1949 14.5172L11.2234 10.2377C11.1541 9.93311 11.2574 9.61511 11.4928 9.40905L14.7889 6.51835L10.4281 6.12234C10.1141 6.09365 9.84407 5.89626 9.72139 5.60695L8.00002 1.57413L6.27657 5.60756C6.15523 5.89492 5.8852 6.09231 5.57196 6.121L1.21048 6.517L4.50649 9.4077C4.74258 9.61437 4.84586 9.93176 4.77591 10.2371L3.80517 14.5165L7.56397 12.2691C7.69861 12.1891 7.84864 12.1485 8.00002 12.1485ZM5.35662 5.21558C5.35662 5.21558 5.35662 5.21631 5.35589 5.21692L5.35662 5.21558ZM10.6421 5.21363L10.6428 5.21497C10.6428 5.21424 10.6428 5.21424 10.6421 5.21363Z" fill="#828282"/>
</svg>
