<svg width="70" height="67" viewBox="0 0 70 67" fill="none" xmlns="http://www.w3.org/2000/svg">
<g opacity="0.35" clip-path="url(#clip0)">
<path d="M71.8564 45.2061C71.4686 43.9321 70.3618 43.0235 69.0367 42.8913L57.3197 41.7223C57.3346 41.7106 57.3505 41.7006 57.3652 41.6884L70.4934 30.8416C71.7868 29.7728 72.307 28.0451 71.8183 26.4399C71.3295 24.8348 69.935 23.6899 68.2653 23.5234L46.2438 21.3264L39.8953 3.83758C39.2934 2.17915 37.7643 1.10742 36 1.10742C36 1.10742 36 1.10742 35.9999 1.10742C34.2357 1.10742 32.7065 2.17901 32.1046 3.83744L25.7561 21.3263L3.73397 23.5234C2.06443 23.6901 0.669962 24.8348 0.181139 26.4398C-0.307685 28.0449 0.212358 29.7727 1.50558 30.8414L16.75 43.4394L12.2804 63.7181C11.9066 65.4144 12.6038 67.1252 14.0569 68.0769C14.7543 68.5336 15.5424 68.7609 16.3289 68.7609C17.1811 68.7609 18.0315 68.494 18.7625 67.9632L36.9843 54.7293L38.1058 55.656L35.6314 66.8815C35.3348 68.2278 35.8882 69.5855 37.0415 70.3407C38.1942 71.0959 39.6604 71.0603 40.7757 70.2503L50.2456 63.3727L59.7154 70.2582C60.2958 70.6802 60.9712 70.8924 61.6482 70.8923C62.2719 70.8923 62.897 70.7121 63.4501 70.3503C64.6038 69.5954 65.1577 68.2376 64.8613 66.891L62.3866 55.6546L70.8046 48.6993C71.8314 47.8511 72.2441 46.48 71.8564 45.2061ZM51.4868 59.0591C51.117 58.7902 50.6816 58.6558 50.2463 58.6558C49.8114 58.6558 49.3763 58.7901 49.0068 59.0584L40.2789 65.3972L42.5032 55.3051C42.6735 54.5324 42.397 53.7291 41.787 53.225L34.0941 46.8677L45.4049 45.7393C46.212 45.6589 46.9016 45.1225 47.1783 44.36L50.2462 35.9079L53.3143 44.36C53.591 45.1225 54.2806 45.6587 55.0876 45.7393L66.3978 46.8677L58.7058 53.2231C58.0959 53.7272 57.8192 54.5301 57.9893 55.303L60.2139 65.4046L51.4868 59.0591ZM16.443 64.4333L21.1474 43.0883C21.3177 42.3155 21.0412 41.5123 20.4312 41.0083L4.33178 27.7035L27.4956 25.3925C28.3027 25.3119 28.9924 24.7757 29.269 24.0132L36.0001 5.47126L42.7309 24.0132C43.0076 24.7757 43.6972 25.3119 44.5042 25.3925L67.6674 27.7038L55.4272 37.8169L53.3376 32.0603C52.8601 30.7443 51.6466 29.8938 50.2465 29.8936H50.2463C48.8463 29.8936 47.6328 30.744 47.1549 32.0603L43.6655 41.6732L31.4556 42.8915C30.1307 43.0237 29.024 43.9321 28.636 45.2059C28.2481 46.4797 28.6608 47.8509 29.6871 48.6991L33.6262 51.9543L16.443 64.4333Z" fill="white"/>
</g>
<defs>
<clipPath id="clip0">
<rect width="72" height="72" fill="white"/>
</clipPath>
</defs>
</svg>
