<svg width="19" height="16" viewBox="0 0 19 16" fill="none" xmlns="http://www.w3.org/2000/svg">
<path d="M18.1921 2.46185C17.9093 2.5844 17.6186 2.68783 17.3215 2.7718C17.6732 2.38316 17.9413 1.92586 18.105 1.42545C18.1417 1.31328 18.1037 1.1905 18.0093 1.11714C17.9151 1.04373 17.7842 1.03493 17.6804 1.09502C17.0495 1.46062 16.3689 1.72337 15.6552 1.87701C14.9363 1.19062 13.9599 0.799988 12.9505 0.799988C10.8199 0.799988 9.08641 2.49373 9.08641 4.57561C9.08641 4.73958 9.09704 4.90264 9.11805 5.06343C6.4741 4.8366 4.01606 3.56679 2.32813 1.54363C2.26797 1.47152 2.1753 1.43265 2.08043 1.44009C1.98549 1.44735 1.90019 1.49966 1.85223 1.58005C1.50989 2.15405 1.3289 2.81055 1.3289 3.47851C1.3289 4.38827 1.66132 5.25146 2.24852 5.92594C2.06997 5.86551 1.89671 5.79 1.73134 5.7003C1.64256 5.65201 1.53422 5.65275 1.44602 5.70217C1.35776 5.75159 1.30242 5.84248 1.3001 5.94182C1.29969 5.95856 1.29969 5.9753 1.29969 5.99226C1.29969 7.35024 2.04768 8.57285 3.19126 9.23922C3.09301 9.22963 2.99482 9.21573 2.89728 9.19752C2.79671 9.17874 2.6933 9.21318 2.62548 9.28813C2.55754 9.36302 2.53507 9.46741 2.56637 9.56273C2.98966 10.854 4.07946 11.8039 5.39694 12.0935C4.30423 12.7622 3.05463 13.1125 1.74284 13.1125C1.46913 13.1125 1.19384 13.0968 0.924424 13.0656C0.790586 13.0501 0.662612 13.1273 0.617031 13.2517C0.571451 13.3761 0.61976 13.5148 0.733624 13.5861C2.41883 14.6419 4.36741 15.2 6.36859 15.2C10.3027 15.2 12.7637 13.3873 14.1355 11.8666C15.8461 9.97038 16.8271 7.46054 16.8271 4.98065C16.8271 4.87705 16.8255 4.77243 16.8223 4.66815C17.4971 4.17131 18.0782 3.57002 18.551 2.87892C18.6228 2.77396 18.6151 2.63524 18.5318 2.53861C18.4488 2.44193 18.3103 2.41067 18.1921 2.46185Z" fill="#333333"/>
</svg>
