<svg width="30" height="30" viewBox="0 0 30 30" fill="none" xmlns="http://www.w3.org/2000/svg">
<g clip-path="url(#clip0)">
<path d="M22.9109 6.9124V10.2958H22.8464C22.8464 11.4881 19.6564 12.4226 15.8862 12.4226C14.4362 12.4548 12.9539 12.2937 11.5361 11.9392L11.4716 12.0037C10.7627 11.4236 9.95714 10.9725 9.08713 10.6825V10.6181L8.99048 7.0413C9.21603 8.13687 12.2128 9.00689 15.854 9.00689C19.4953 9.00689 22.8464 8.07242 22.8464 6.9124H22.9109Z" fill="#FBB52C"/>
<path d="M22.9109 6.97685C22.9109 8.13687 19.7209 9.07134 15.9185 9.07134C12.1162 9.07134 9.24835 8.20133 9.0228 7.10576C9.0228 7.07356 8.9906 7.00911 8.9906 6.97685C8.9906 5.81683 12.084 4.8501 15.9186 4.8501C19.7531 4.81791 22.9109 5.78457 22.9109 6.97685Z" fill="#FEDB41"/>
<path d="M11.6328 22.1217C12.5028 21.3162 13.1796 20.285 13.5339 19.1572H13.695C14.404 19.2217 15.1129 19.2539 15.8863 19.2539H16.2085V19.9628L16.2729 22.6696H15.9184C14.5006 22.7018 13.115 22.5407 11.7295 22.2185L11.6328 22.1217Z" fill="#F5A200"/>
<path d="M16.2407 16.096V16.2571L16.3051 19.2539H15.9829C15.1773 19.2539 14.4361 19.2217 13.7273 19.1572H13.5662C13.7917 18.4806 13.8884 17.7717 13.8884 17.0627C13.8884 16.5794 13.8239 16.1283 13.7273 15.6772H13.8884C14.565 15.7416 15.2417 15.7738 15.9829 15.7738L16.2729 15.9349C16.2407 15.9993 16.2407 16.0637 16.2407 16.096Z" fill="#FBB52C"/>
<path d="M11.5362 11.9392C12.954 12.2937 14.4362 12.4548 15.8863 12.4226C19.6564 12.4226 22.8465 11.4881 22.8465 10.2958H22.911V14.0982C19.3987 14.0982 16.5308 14.936 16.1763 15.9993L15.8863 15.8382C15.1774 15.8382 14.5008 15.806 13.8563 15.7415H13.6952C13.4052 14.2593 12.6318 12.9381 11.4718 11.9714L11.5362 11.9392Z" fill="#F5A200"/>
<path d="M29.9678 16.1927V16.2571C29.8712 17.3849 26.7455 18.3194 23.0076 18.3194C19.2697 18.3194 16.3696 17.4494 16.144 16.3538V16.1927C16.144 16.1283 16.144 16.0638 16.1762 15.9994C16.5307 14.936 19.3986 14.0982 22.9109 14.0982H23.0075C26.8099 14.0982 29.9678 15.0326 29.9678 16.1927Z" fill="#FFD15C"/>
<path d="M30 19.6083V23.024C30 24.184 26.9066 25.1508 23.1042 25.1508C19.3019 25.1508 16.2729 24.2163 16.2729 23.0563V22.6696L16.2085 19.9629H16.2407C16.7563 20.9618 19.5919 21.7352 23.0075 21.7352C26.4232 21.7352 29.9355 20.7685 29.9355 19.6084H30V19.6083Z" fill="#F5A200"/>
<path d="M16.2407 19.9628L16.2085 19.2539L16.144 16.3538C16.3696 17.4494 19.3664 18.3194 23.0076 18.3194C26.6488 18.3194 29.8712 17.3849 29.9678 16.2571H30V19.6083H29.9355C29.9355 20.7684 26.8099 21.7351 23.0075 21.7351C19.2053 21.735 16.7563 20.9617 16.2407 19.9628Z" fill="#FBB52C"/>
<path d="M9.09665 7.86456L9.06445 7.15564L9 4.25558C9.22555 5.35116 12.2223 6.22117 15.8636 6.22117C19.5048 6.22117 22.7271 5.2867 22.8238 4.15887H22.856V7.5101H22.7915C22.7915 8.67013 19.6658 9.63685 15.8635 9.63685C12.0612 9.63679 9.61227 8.86348 9.09665 7.86456Z" fill="#F5A200"/>
<path d="M22.8238 4.09443V4.15889C22.7271 5.28671 19.6014 6.22118 15.8636 6.22118C12.1257 6.22118 9.22555 5.35117 9 4.2556V4.09449C9 4.03004 9 3.96559 9.0322 3.90114C9.38665 2.83776 12.2545 2 15.7668 2H15.8635C19.6659 1.99994 22.8238 2.93441 22.8238 4.09443Z" fill="#FFD15C"/>
<path d="M13.7596 15.7416C13.4374 14.2593 12.6317 12.906 11.4717 11.907C10.7628 11.2626 9.92496 10.8115 9.02275 10.5537C8.37829 10.3281 7.66937 10.2315 6.99271 10.2315C3.15812 10.1991 0.0324471 13.2604 0.000251644 17.0949C-0.0319438 20.9294 3.02921 24.0551 6.8638 24.0873C8.6361 24.0873 10.3117 23.4428 11.6328 22.2505C12.5351 21.4127 13.2117 20.3494 13.5662 19.1893C13.7917 18.5127 13.8884 17.8359 13.8884 17.127C13.8885 16.676 13.7596 16.1927 13.7596 15.7416Z" fill="#FFD15C"/>
<path d="M10.0539 20.4139C9.92495 20.0917 9.57049 19.8984 9.21603 20.0273C8.05601 20.4784 6.76708 20.1884 5.89706 19.3183C5.73596 19.1894 5.60706 19.0283 5.51041 18.835H8.60383C8.95828 18.835 9.24829 18.545 9.24829 18.1905C9.24829 17.8361 8.95828 17.5461 8.60383 17.5461H5.02705C4.99485 17.3205 4.99485 17.1271 4.99485 16.9016H8.92609C9.28055 16.9016 9.57055 16.6116 9.57055 16.2571C9.57055 15.9027 9.28055 15.6127 8.92609 15.6127H5.3815C5.5426 15.3548 5.70371 15.1293 5.89706 14.936C6.76708 14.066 8.05601 13.8082 9.21603 14.2271C9.53823 14.356 9.92495 14.1949 10.0539 13.8726C10.1828 13.5504 10.0217 13.1637 9.6672 13.0348C8.05607 12.4226 6.21933 12.8092 4.99485 14.0337C4.54374 14.4848 4.18929 15.0326 3.96373 15.6127H3.12591C2.77145 15.6127 2.48145 15.9027 2.48145 16.2571C2.48145 16.6116 2.77145 16.9016 3.12591 16.9016H3.70592C3.70592 17.1271 3.70592 17.3205 3.73812 17.5461H3.12591C2.77145 17.5461 2.48145 17.8361 2.48145 18.1905C2.48145 18.545 2.77145 18.835 3.12591 18.835H4.06038C4.25374 19.3828 4.57594 19.8661 4.99485 20.2528C6.21933 21.4773 8.05607 21.8639 9.6672 21.2517C9.9894 21.1228 10.1828 20.7684 10.0539 20.4139Z" fill="#F5A200"/>
</g>
<defs>
<clipPath id="clip0">
<rect width="30" height="30" fill="white"/>
</clipPath>
</defs>
</svg>
