<svg width="180" height="180" viewBox="0 0 180 180" fill="none" xmlns="http://www.w3.org/2000/svg">
<circle cx="90" cy="90" r="90" fill="#FBF173" fill-opacity="0.2"/>
<circle cx="89.5082" cy="90.4918" r="76.7213" fill="#FBF173" fill-opacity="0.4"/>
<circle cx="89.5082" cy="90.4918" r="62.9508" fill="#FECE23" fill-opacity="0.3"/>
<ellipse cx="90" cy="90.4919" rx="49.6721" ry="49.1803" fill="#FBF173" fill-opacity="0.3"/>
<path d="M139.672 90.4919C139.672 117.654 117.654 139.672 90.4919 139.672C63.33 139.672 41.3115 117.654 41.3115 90.4919C41.3115 63.33 63.33 41.3115 90.4919 41.3115C117.654 41.3115 139.672 63.33 139.672 90.4919Z" fill="#FFC612" fill-opacity="0.7"/>
<path d="M92.6539 139.623C118.812 138.491 139.672 116.93 139.672 90.4926C139.672 90.2502 139.666 90.0093 139.663 89.7684L114.756 64.8608L110.228 69.3889L117.793 76.954L116.457 78.2913L93.3735 55.208L87.6102 61.6114L93.3735 67.3748V77.2842L85.4775 69.3889L82.1636 74.5669L72.91 65.3133L68.8352 69.3889L92.9496 93.5033L59.8037 106.773L92.6539 139.623Z" fill="#FFAA00" fill-opacity="0.6"/>
<path d="M104.523 92.9855C102.362 93.0103 100.623 94.7685 100.623 96.9298V108.542C100.623 108.546 100.62 108.55 100.616 108.55L99.4827 108.629C94.2521 108.993 90.046 113.003 89.2865 118.06L86.8124 118.081C87.5343 112.105 92.1892 107.246 98.1649 106.312C98.1686 106.312 98.1716 106.309 98.1716 106.304V96.7924C98.1716 96.6971 98.1739 96.6026 98.1792 96.5088C98.3052 94.1232 100.431 91.2167 102.821 91.2017C102.859 91.2017 102.84 75.15 102.828 70.1258C102.824 68.4824 101.491 67.1541 99.8474 67.1541H99.8391C98.1927 67.1541 96.8576 68.4884 96.8576 70.1348V92.482H94.8337V67.9961C94.8337 66.3497 93.4995 65.0146 91.853 65.0146H91.6384C89.9919 65.0146 88.6577 66.3497 88.6577 67.9961L88.6569 94.1945H86.633L86.6338 71.7438C86.6338 70.0973 85.2987 68.7623 83.6523 68.7623H83.4384C81.792 68.7623 80.4569 70.0973 80.4569 71.7438V96.3354H78.433V78.7453C78.433 77.0989 77.098 75.7646 75.4523 75.7646C73.8051 75.7646 72.4708 77.0989 72.4708 78.7453L72.4701 118.689H72.5174C72.8498 122.455 75.0486 125.685 78.1831 127.448C78.1854 127.449 78.1869 127.452 78.1869 127.455C78.1869 127.455 78.1876 131.782 78.1891 138.119C82.1214 139.133 86.2435 139.671 90.4917 139.671C94.7489 139.671 98.8793 139.13 102.819 138.113C102.82 132.248 102.82 127.966 102.82 127.966C102.82 127.963 102.822 127.96 102.825 127.959C106.173 126.462 108.513 123.103 108.513 119.205V96.9298C108.513 94.7333 106.719 92.96 104.523 92.9855Z" fill="#FFEEE5"/>
<path d="M98.165 106.312C98.1687 106.312 98.1717 106.309 98.1717 106.304V96.7925C98.1717 96.6971 98.1747 96.6026 98.1792 96.5088C98.3053 94.1232 100.431 91.2167 102.821 91.2017C102.859 91.2017 102.841 75.15 102.829 70.1258C102.824 68.4824 101.491 67.1541 99.8474 67.1541H99.8392C98.1927 67.1541 96.8585 68.4884 96.8577 70.1348V92.482H94.8338L94.8346 67.9961C94.8346 66.3497 93.4995 65.0146 91.8531 65.0146H91.6392C91.2107 65.0146 90.8047 65.107 90.437 65.269V110.394C92.4467 108.269 95.1355 106.786 98.165 106.312Z" fill="#FBE2D6"/>
<path d="M104.523 92.9866C102.362 93.0114 100.623 94.7696 100.623 96.9309V108.543C100.623 108.548 100.62 108.551 100.616 108.551L99.4827 108.63C95.5377 108.905 92.1773 111.253 90.437 114.56V139.672C90.455 139.672 90.473 139.672 90.4918 139.672C94.749 139.672 98.8794 139.131 102.819 138.115C102.82 132.249 102.82 127.967 102.82 127.967C102.82 127.964 102.822 127.961 102.825 127.96C106.173 126.463 108.513 123.104 108.513 119.206V96.9309C108.513 94.7344 106.719 92.9611 104.523 92.9866Z" fill="#FBE3D6"/>
<path d="M87.6101 55.208H93.3734V61.6114H87.6101V55.208Z" fill="white"/>
<path d="M90.437 55.208H93.3735V61.6114H90.437V55.208Z" fill="#E9EDF5"/>
<path d="M106.152 65.3123L110.679 60.7842L114.755 64.8598L110.227 69.3879L106.152 65.3123Z" fill="#E9EDF5"/>
<path d="M64.3062 64.8598L68.3817 60.7842L72.9099 65.3123L68.8343 69.3879L64.3062 64.8598Z" fill="white"/>
<path d="M59.8037 74.2109H121.18V106.772H59.8037V74.2109Z" fill="#FEE599"/>
<path d="M90.437 74.2109H121.18V106.772H90.437V74.2109Z" fill="#FBD973"/>
<path d="M65.8783 79.4824H115.105V101.502H65.8783V79.4824Z" fill="#FAD566"/>
<path d="M90.437 79.4824H115.105V101.502H90.437V79.4824Z" fill="#F0C748"/>
<path d="M96.9748 90.4923C96.9748 85.7976 94.0721 81.9922 90.4918 81.9922C86.9115 81.9922 84.0088 85.7976 84.0088 90.4923C84.0088 95.187 86.9115 98.9925 90.4918 98.9925C94.0721 98.9925 96.9748 95.187 96.9748 90.4923Z" fill="white"/>
<path d="M90.4918 81.9922C90.473 81.9922 90.455 81.9937 90.437 81.9937V98.991C90.455 98.991 90.473 98.9925 90.4918 98.9925C94.0729 98.9925 96.9748 95.187 96.9748 90.4923C96.9748 85.7976 94.0729 81.9922 90.4918 81.9922Z" fill="#FCECBA"/>
<path d="M111.413 90.492C111.413 87.4453 109.53 84.9756 107.205 84.9756C104.881 84.9756 102.998 87.4453 102.998 90.492C102.998 93.5388 104.881 96.0084 107.205 96.0084C109.53 96.0084 111.413 93.5388 111.413 90.492Z" fill="#FCECBA"/>
<path d="M77.9859 90.492C77.9859 87.4453 76.1023 84.9756 73.7782 84.9756C71.4541 84.9756 69.5706 87.4453 69.5706 90.492C69.5706 93.5388 71.4541 96.0084 73.7782 96.0084C76.1023 96.0084 77.9859 93.5388 77.9859 90.492Z" fill="white"/>
<path d="M108.513 119.206V96.9309C108.513 94.7344 106.719 92.9611 104.523 92.9866C102.362 93.0114 100.623 94.7696 100.623 96.9309V108.543L108.513 119.206Z" fill="#FBE2D6"/>
</svg>
