<svg width="5" height="18" viewBox="0 0 5 18" fill="none" xmlns="http://www.w3.org/2000/svg">
<path fill-rule="evenodd" clip-rule="evenodd" d="M2.40015 4.65518C3.50015 4.65518 4.40015 3.72414 4.40015 2.58621C4.40015 1.44828 3.50015 0.517246 2.40015 0.517246C1.30015 0.517246 0.400146 1.44828 0.400146 2.58621C0.400146 3.72414 1.30015 4.65518 2.40015 4.65518ZM2.40015 6.72414C1.30015 6.72414 0.400146 7.65518 0.400146 8.79311C0.400146 9.93104 1.30015 10.8621 2.40015 10.8621C3.50015 10.8621 4.40015 9.93104 4.40015 8.79311C4.40015 7.65518 3.50015 6.72414 2.40015 6.72414ZM2.40015 12.931C1.30015 12.931 0.400146 13.8621 0.400146 15C0.400146 16.1379 1.30015 17.069 2.40015 17.069C3.50015 17.069 4.40015 16.1379 4.40015 15C4.40015 13.8621 3.50015 12.931 2.40015 12.931Z" fill="white"/>
</svg>
