<svg width="100" height="100" viewBox="0 0 100 100" fill="none" xmlns="http://www.w3.org/2000/svg">
<g clip-path="url(#clip0)">
<path opacity="0.21" d="M13.2044 40.7589C20.2822 20.8525 30.9811 1.08802 57.5659 8.52071C84.1508 15.9534 107.32 34.9092 101.624 55.2818C93.9078 82.8798 66.3463 93.3483 42.7308 88.7853C19.1152 84.2223 6.12661 60.6654 13.2044 40.7589Z" fill="url(#paint0_linear)"/>
<path opacity="0.5" d="M94.2406 51.8108C92.7831 72.9041 87.7972 94.8363 60.1716 94.8363C32.546 94.8363 5.10767 82.8097 5.10767 61.6395C5.10767 32.961 28.8508 15.4445 52.8413 13.4787C76.8319 11.513 95.6982 30.7174 94.2406 51.8108Z" fill="url(#paint1_linear)"/>
<path fill-rule="evenodd" clip-rule="evenodd" d="M31.3286 93.1414L31.5178 93.7696L89.9563 76.2621L89.767 75.6338C89.1058 73.4181 89.3508 71.0304 90.4484 68.9952C91.546 66.9599 93.4064 65.4434 95.6211 64.7786L96.2494 64.5894L88.5846 38.9884L87.9563 39.1776C85.7425 39.8435 83.3548 39.6032 81.3179 38.5096C79.2811 37.416 77.7618 35.5585 77.0938 33.3452L76.9101 32.7174L18.4684 50.1968L18.6571 50.8306C19.3187 53.043 19.0771 55.4273 17.9852 57.462C16.8933 59.4967 15.04 61.0162 12.8307 61.688L12.1969 61.8768L19.8414 87.4539L20.4752 87.2651C21.5736 86.9369 22.7261 86.8285 23.8665 86.9463C25.0069 87.0641 26.1128 87.4057 27.121 87.9516C28.1292 88.4974 29.0198 89.2368 29.7418 90.1273C30.4638 91.0179 31.003 92.0421 31.3286 93.1414Z" fill="url(#paint2_linear)"/>
<path fill-rule="evenodd" clip-rule="evenodd" d="M33.9508 88.4581L84.9989 73.1718L85.0173 73.0117C85.0398 70.8837 85.5791 68.7931 86.5887 66.9198C87.5983 65.0464 89.0481 63.4465 90.8131 62.2577L90.943 62.1678L85.4943 43.9511L85.3337 43.9382C83.2058 43.9157 81.1151 43.3764 79.2418 42.3668C77.3685 41.3572 75.7685 39.9075 74.5797 38.1424L74.4903 38.007L23.4366 53.2928L23.4238 53.4534C23.4018 55.5807 22.8628 57.6707 21.8532 59.5432C20.8435 61.4157 19.3936 63.0146 17.6284 64.2019L17.4926 64.2969L22.9467 82.514L23.1073 82.5269C25.2355 82.5485 27.3264 83.0873 29.1999 84.097C31.0734 85.1067 32.6732 86.557 33.8613 88.3227L33.9508 88.4581Z" fill="url(#paint3_linear)"/>
<path d="M74.7084 45.0509L27.1078 59.3047L27.3596 60.1456L74.9602 45.8918L74.7084 45.0509Z" fill="white"/>
<path d="M81.0738 66.3149L33.4679 80.5703L33.7197 81.4112L81.3256 67.1558L81.0738 66.3149Z" fill="white"/>
<path d="M31.5359 73.9676L28.2259 72.8491L26.1453 75.6471L26.1855 72.1614L22.881 71.0434L26.208 70.0063L26.2542 66.5155L28.2661 69.3634L31.599 68.3212L29.518 71.1248L31.5359 73.9676Z" fill="white"/>
<path d="M79.4429 59.6224L81.5919 56.8745L84.868 58.0682L82.921 55.1754L85.07 52.4274L81.7156 53.3899L79.7631 50.4966L79.6449 53.9816L76.2905 54.9441L79.5666 56.1378L79.4429 59.6224Z" fill="white"/>
<path d="M37.1649 72.6488L34.7926 65.0569L37.4329 64.2433C37.924 64.0631 38.4425 63.9689 38.9656 63.9651C39.437 63.9924 39.8874 64.1691 40.2516 64.4696C40.6345 64.8057 40.911 65.2463 41.0471 65.7373C41.1796 66.1613 41.2085 66.6109 41.1314 67.0483C41.0622 67.4706 40.8612 67.8603 40.5571 68.1615C40.7064 68.2763 40.8491 68.3994 40.9846 68.5302L43.2828 70.7267L41.2137 71.3687L39.0984 69.2538L38.2295 69.524L39.0221 72.079L37.1649 72.6488ZM37.7338 67.9237L38.5395 67.6762C38.8057 67.6105 39.0353 67.4428 39.1789 67.2092C39.2417 67.0931 39.2795 66.9652 39.2901 66.8336C39.3007 66.702 39.2837 66.5697 39.2403 66.445C39.2122 66.2738 39.1295 66.1162 39.0046 65.9957C38.8797 65.8752 38.7193 65.7982 38.5471 65.7763C38.298 65.7641 38.0488 65.8009 37.8139 65.8846L37.1852 66.0794L37.7338 67.9237Z" fill="white"/>
<path d="M43.3733 70.7122L43.5972 62.37L45.552 61.7634L50.4801 68.5517L48.5709 69.1453L47.6115 67.6972L45.2451 68.4324L45.279 70.1629L43.3733 70.7122ZM45.2438 66.7826L46.7414 66.3176L45.857 64.9759L45.1461 63.7651C45.2068 64.3273 45.2401 64.8149 45.2453 65.1664L45.2438 66.7826Z" fill="white"/>
<path d="M51.2996 68.2705L48.9494 60.6803L53.5994 59.2701L54.0816 60.8303L51.2903 61.7209L51.7814 63.3098L54.0685 62.5905L54.5592 64.1849L52.2721 64.9042L53.1609 67.7176L51.2996 68.2705Z" fill="white"/>
<path d="M57.0552 66.4876L54.7046 58.903L59.3517 57.4591L59.8423 59.0535L57.051 59.9441L57.5417 61.5384L59.8288 60.8192L60.3254 62.4084L58.0383 63.1277L58.9271 65.9412L57.0552 66.4876Z" fill="white"/>
<path d="M62.8049 64.7085L60.4548 57.1183L62.3123 56.5429L64.1718 62.5387L67.2693 61.5835L67.7604 63.1724L62.8049 64.7085Z" fill="white"/>
<path d="M68.7206 62.8758L66.3654 55.2796L71.1208 53.8054L71.6175 55.3947L68.7209 56.2769L69.1676 57.6559L71.4819 56.9444L71.9786 58.5337L69.6637 59.2507L70.1059 60.6852L73.1522 59.7426L73.6433 61.3314L68.7206 62.8758Z" fill="white"/>
<path d="M86.2551 61.9649L91.4355 37.0907C90.23 36.8404 89.0856 36.3548 88.0679 35.6618C87.0501 34.9688 86.179 34.082 85.5044 33.052C84.8297 32.022 84.3647 30.8692 84.136 29.6593C83.9074 28.4495 83.9194 27.2064 84.1716 26.0013L25.7456 13.8015C25.4964 15.0091 25.0116 16.1556 24.3188 17.1756C23.6261 18.1955 22.739 19.0688 21.7083 19.7455C20.6777 20.4223 19.5237 20.8891 18.3124 21.1193C17.1011 21.3495 15.8563 21.3386 14.6492 21.0873L9.46361 45.9556C11.8951 46.469 14.0236 47.9259 15.3821 50.0068C16.7407 52.0876 17.2183 54.6224 16.7102 57.055L75.1324 69.2266C75.3848 68.0189 75.8729 66.8728 76.5687 65.8539C77.2646 64.835 78.1545 63.9634 79.1877 63.2889C80.2208 62.6144 81.3768 62.1503 82.5895 61.9231C83.8022 61.6959 85.0479 61.7101 86.2551 61.9649Z" fill="url(#paint4_linear)"/>
<path d="M20.8123 53.8668C20.6019 51.7156 19.8744 49.6472 18.6919 47.8379C17.5094 46.0286 15.907 44.5321 14.0212 43.4759L17.832 25.1773C19.9844 24.9658 22.0536 24.2367 23.8631 23.0522C25.6726 21.8677 27.1687 20.263 28.2237 18.3751L80.0755 29.183C80.2864 31.3341 81.014 33.4023 82.1964 35.2115C83.3789 37.0208 84.9811 38.5174 86.8666 39.574L83.0502 57.8722C80.8985 58.0867 78.8308 58.8197 77.0246 60.0086C75.2183 61.1974 73.7273 62.8065 72.6793 64.698L20.8123 53.8668Z" fill="url(#paint5_linear)"/>
<path d="M72.7929 64.9226L20.6057 54.0486L20.5883 53.886C20.3879 51.7681 19.6758 49.7306 18.5132 47.949C17.3507 46.1674 15.7726 44.6949 13.9147 43.6585L13.7693 43.5823L17.6615 24.9717L17.8223 24.982C19.9402 24.7729 21.9756 24.0526 23.7537 22.8832C25.5317 21.7137 26.9992 20.13 28.0301 18.2682L28.1225 18.1294L80.3097 29.0035L80.2993 29.1642C80.5046 31.2816 81.2206 33.3176 82.3861 35.0973C83.5515 36.877 85.1314 38.3472 86.9903 39.3817L87.1357 39.4579L83.2542 58.0748L83.0917 58.0922C80.9738 58.2956 78.9371 59.0109 77.1571 60.1765C75.3771 61.3421 73.9073 62.9231 72.8742 64.7831L72.7929 64.9226ZM21.0243 53.6858L72.5685 64.4294C73.6314 62.5672 75.1205 60.9833 76.9138 59.8078C78.7071 58.6323 80.7536 57.8986 82.8852 57.6669L86.6314 39.6815C84.7696 38.6187 83.1864 37.1296 82.0118 35.3362C80.8372 33.5429 80.1047 31.4965 79.8744 29.3652L28.3358 18.6219C27.2726 20.4839 25.7833 22.0675 23.9901 23.2429C22.1969 24.4184 20.1506 25.1522 18.0191 25.3844L14.2511 43.3628C16.1162 44.425 17.7026 45.9146 18.8801 47.7092C20.0575 49.5037 20.7924 51.552 21.0243 53.6858Z" fill="white"/>
<path d="M28.4791 25.1641L28.3 26.0234L76.9492 36.1622L77.1283 35.3029L28.4791 25.1641Z" fill="white"/>
<path d="M23.9447 46.8829L23.7656 47.7422L72.4148 57.881L72.5939 57.0216L23.9447 46.8829Z" fill="white"/>
<path d="M25.0941 40.62L22.7197 38.0678L19.552 39.5396L21.2516 36.4869L18.8773 33.9347L22.3023 34.606L23.996 31.5585L24.4134 35.0202L27.8385 35.6916L24.6766 37.1582L25.0941 40.62Z" fill="white"/>
<path d="M74.056 50.83L77.252 49.4379L79.567 52.0476L79.2283 48.5742L82.4243 47.1821L79.0212 46.4287L78.6821 42.9609L76.9133 45.9646L73.5102 45.2111L75.8248 47.8263L74.056 50.83Z" fill="white"/>
<path d="M31.5626 41.5771L33.0457 33.7562L35.7627 34.2706C36.2804 34.3442 36.782 34.5044 37.2465 34.7446C37.6445 34.9957 37.9506 35.3689 38.1188 35.8084C38.3044 36.284 38.3427 36.8043 38.2287 37.3019C38.1585 37.7412 37.9807 38.1562 37.7111 38.51C37.4524 38.8518 37.091 39.1017 36.6799 39.2231C36.7574 39.3945 36.826 39.5699 36.8855 39.7485L37.8824 42.7687L35.754 42.3645L34.866 39.4682L33.9964 39.312L33.4988 41.941L31.5626 41.5771ZM34.2801 37.6713L35.1105 37.8305C35.3754 37.8958 35.6553 37.8559 35.8915 37.7193C35.9998 37.642 36.0907 37.5429 36.1585 37.4284C36.2262 37.3139 36.2693 37.1865 36.285 37.0543C36.3406 36.8901 36.3417 36.7123 36.2881 36.5473C36.2345 36.3824 36.1291 36.2392 35.9876 36.1389C35.7718 36.0119 35.5332 35.9285 35.2853 35.8933L34.6416 35.7739L34.2801 37.6713Z" fill="white"/>
<path d="M37.9479 42.7903L42.0807 35.4906L44.0883 35.8703L45.2626 44.1796L43.2935 43.8079L43.1266 42.077L40.6902 41.614L39.9114 43.1616L37.9479 42.7903ZM41.4566 40.1713L42.9965 40.4653L42.8228 38.8396L42.7626 37.4384C42.5384 37.9807 42.3439 38.408 42.1902 38.721L41.4566 40.1713Z" fill="white"/>
<path d="M46.0984 44.3378L47.5805 36.5335L52.3657 37.4371L52.0535 39.0872L49.1827 38.5405L48.8705 40.1906L51.2518 40.6444L50.9397 42.2945L48.5583 41.8406L48.0103 44.7336L46.0984 44.3378Z" fill="white"/>
<path d="M52.0167 45.4608L53.4987 37.6565L58.278 38.5654L57.9714 40.2157L55.129 39.6598L54.8168 41.3099L57.1929 41.7578L56.8808 43.4078L54.4787 42.9304L53.9307 45.8234L52.0167 45.4608Z" fill="white"/>
<path d="M57.9343 46.5809L59.4153 38.7933L61.3234 39.161L60.1539 45.3097L63.3438 45.9158L63.0316 47.5658L57.9343 46.5809Z" fill="white"/>
<path d="M64.0115 47.7398L65.4939 39.93L70.3886 40.8629L70.0764 42.5129L67.0954 41.9481L66.826 43.3671L69.2073 43.8209L68.8951 45.471L66.5138 45.0171L66.2366 46.469L69.3662 47.0601L69.0541 48.7101L64.0115 47.7398Z" fill="white"/>
</g>
<defs>
<linearGradient id="paint0_linear" x1="88.6287" y1="101.762" x2="75.7833" y2="0.604457" gradientUnits="userSpaceOnUse">
<stop stop-color="white" stop-opacity="0.35"/>
<stop offset="0.995036" stop-color="#FEB052"/>
</linearGradient>
<linearGradient id="paint1_linear" x1="5.10767" y1="13.3398" x2="43.7634" y2="106.859" gradientUnits="userSpaceOnUse">
<stop stop-color="white" stop-opacity="0.35"/>
<stop offset="0.995036" stop-color="#FEB052"/>
</linearGradient>
<linearGradient id="paint2_linear" x1="56.8026" y1="31.1031" x2="51.642" y2="95.3852" gradientUnits="userSpaceOnUse">
<stop stop-color="#FFC531"/>
<stop offset="1" stop-color="#F99669"/>
</linearGradient>
<linearGradient id="paint3_linear" x1="19.9546" y1="33.6289" x2="14.957" y2="85.7916" gradientUnits="userSpaceOnUse">
<stop stop-color="#985ADD"/>
<stop offset="1" stop-color="#F36580"/>
</linearGradient>
<linearGradient id="paint4_linear" x1="52.1244" y1="15.4992" x2="48.7758" y2="67.5304" gradientUnits="userSpaceOnUse">
<stop stop-color="#FFC85A"/>
<stop offset="1" stop-color="#FFBF41"/>
</linearGradient>
<linearGradient id="paint5_linear" x1="15.6885" y1="17.5684" x2="12.3725" y2="59.7833" gradientUnits="userSpaceOnUse">
<stop stop-color="#FEB65A"/>
<stop offset="1" stop-color="#F36580"/>
</linearGradient>
<clipPath id="clip0">
<rect width="100" height="100" fill="white"/>
</clipPath>
</defs>
</svg>
